<?xml version="1.0" encoding="UTF-8"?>
<svg xmlns="http://www.w3.org/2000/svg" xmlns:xlink="http://www.w3.org/1999/xlink" width="340.729492pt" height="92.413506pt" viewBox="0 0 340.729492 92.413506" version="1.2">
<defs>
<clipPath id="clip1">
  <path d="M 196 46 L 242 46 L 242 91.832031 L 196 91.832031 Z M 196 46 "/>
</clipPath>
<clipPath id="clip2">
  <path d="M 0.941406 31 L 31 31 L 31 34 L 0.941406 34 Z M 0.941406 31 "/>
</clipPath>
<clipPath id="clip3">
  <path d="M 259 63 L 339.519531 63 L 339.519531 77 L 259 77 Z M 259 63 "/>
</clipPath>
</defs>
<g id="surface1">
<path style=" stroke:none;fill-rule:nonzero;fill:rgb(0%,0%,0%);fill-opacity:1;" d="M 160.671875 58.359375 C 160.449219 58.132812 160.414062 57.765625 160.609375 57.503906 L 160.917969 57.082031 C 162.359375 55.136719 162.964844 52.75 162.625 50.363281 C 162.28125 48.019531 161.074219 45.933594 159.191406 44.46875 C 157.222656 42.945312 154.78125 42.300781 152.316406 42.652344 C 151.988281 42.703125 151.65625 42.773438 151.339844 42.851562 L 150.832031 42.984375 C 150.492188 43.074219 150.136719 42.871094 150.039062 42.53125 L 149.894531 42.035156 C 149.46875 40.574219 149.152344 39.117188 148.917969 37.582031 C 148.714844 36.070312 148.601562 34.542969 148.597656 33.027344 L 148.597656 32.5 C 148.597656 32.144531 148.878906 31.851562 149.238281 31.84375 L 149.757812 31.828125 C 150.078125 31.820312 150.414062 31.796875 150.753906 31.75 C 153.15625 31.410156 155.285156 30.148438 156.738281 28.199219 C 158.199219 26.253906 158.8125 23.855469 158.472656 21.449219 C 158.125 19.101562 156.910156 17.007812 155.011719 15.539062 L 154.605469 15.222656 C 154.371094 15.042969 154.285156 14.714844 154.40625 14.433594 L 154.621094 13.957031 C 154.640625 13.914062 154.660156 13.875 154.6875 13.84375 C 156.414062 11.40625 158.464844 9.214844 160.785156 7.332031 L 161.183594 7.007812 C 161.460938 6.78125 161.855469 6.8125 162.101562 7.085938 L 162.441406 7.480469 C 162.84375 7.941406 163.292969 8.371094 163.78125 8.75 C 165.753906 10.273438 168.1875 10.921875 170.636719 10.570312 C 175.230469 9.898438 178.578125 5.914062 178.421875 1.296875 L 178.402344 0.773438 C 178.390625 0.417969 178.667969 0.121094 179.019531 0.0976562 L 179.539062 0.0625 C 182.597656 -0.125 185.644531 0.113281 188.597656 0.773438 L 189.117188 0.890625 C 189.46875 0.96875 189.691406 1.316406 189.617188 1.664062 L 189.507812 2.179688 C 189.300781 3.199219 189.265625 4.246094 189.402344 5.285156 C 189.746094 7.621094 190.949219 9.703125 192.839844 11.167969 C 194.808594 12.691406 197.25 13.335938 199.714844 12.988281 C 201.433594 12.730469 203.035156 11.996094 204.351562 10.863281 L 204.75 10.519531 C 205.019531 10.285156 205.425781 10.308594 205.667969 10.574219 L 206.019531 10.964844 C 208.046875 13.226562 209.746094 15.753906 211.070312 18.480469 L 211.300781 18.949219 C 211.457031 19.269531 211.328125 19.65625 211.011719 19.820312 L 210.546875 20.0625 C 207.125 21.839844 205.195312 25.597656 205.738281 29.414062 C 206.074219 31.757812 207.28125 33.84375 209.164062 35.304688 C 210.285156 36.167969 211.605469 36.769531 212.984375 37.042969 L 213.496094 37.144531 C 213.847656 37.207031 214.074219 37.546875 214.019531 37.898438 L 213.933594 38.410156 C 213.4375 41.347656 212.535156 44.214844 211.246094 46.941406 L 211.019531 47.421875 C 210.863281 47.742188 210.476562 47.886719 210.152344 47.734375 L 209.671875 47.515625 C 208.074219 46.785156 206.308594 46.527344 204.5625 46.769531 C 202.164062 47.117188 200.039062 48.382812 198.582031 50.324219 C 197.125 52.269531 196.515625 54.667969 196.863281 57.074219 C 197.019531 58.140625 197.359375 59.152344 197.871094 60.089844 L 198.125 60.5625 C 198.300781 60.875 198.183594 61.273438 197.867188 61.453125 L 197.398438 61.710938 C 195.097656 62.976562 192.640625 63.964844 190.097656 64.648438 C 189.699219 64.757812 189.296875 64.863281 188.886719 64.953125 L 188.382812 65.070312 C 188.039062 65.152344 187.6875 64.941406 187.597656 64.597656 L 187.464844 64.09375 C 186.960938 62.171875 185.820312 60.433594 184.230469 59.203125 C 182.757812 58.0625 181.003906 57.410156 179.164062 57.3125 C 178.550781 57.277344 177.953125 57.304688 177.378906 57.390625 C 174.28125 57.828125 171.664062 59.796875 170.375 62.648438 L 170.164062 63.125 C 170.015625 63.453125 169.636719 63.601562 169.308594 63.464844 L 168.828125 63.261719 C 166.171875 62.152344 163.660156 60.683594 161.359375 58.90625 L 160.730469 58.410156 C 160.710938 58.394531 160.691406 58.378906 160.671875 58.359375 Z M 160.992188 44.300781 C 162.585938 45.898438 163.597656 47.929688 163.925781 50.171875 C 164.3125 52.871094 163.644531 55.566406 162.046875 57.773438 L 162.171875 57.871094 C 164.339844 59.550781 166.714844 60.941406 169.226562 62 C 170.722656 58.789062 173.691406 56.585938 177.1875 56.085938 C 177.84375 55.988281 178.535156 55.957031 179.234375 55.996094 C 181.347656 56.105469 183.351562 56.855469 185.039062 58.15625 C 186.824219 59.546875 188.113281 61.492188 188.710938 63.644531 C 189.058594 63.5625 189.40625 63.472656 189.75 63.378906 C 192.160156 62.730469 194.480469 61.796875 196.65625 60.617188 C 196.097656 59.566406 195.734375 58.441406 195.558594 57.261719 C 195.160156 54.507812 195.859375 51.765625 197.527344 49.539062 C 199.195312 47.308594 201.628906 45.863281 204.375 45.464844 C 206.332031 45.191406 208.3125 45.46875 210.109375 46.269531 C 211.300781 43.722656 212.144531 41.042969 212.613281 38.308594 C 211.078125 37.988281 209.613281 37.308594 208.363281 36.34375 C 206.195312 34.667969 204.820312 32.28125 204.4375 29.601562 C 203.816406 25.269531 205.984375 21.003906 209.835938 18.949219 C 208.589844 16.410156 207.007812 14.050781 205.121094 11.9375 C 203.636719 13.1875 201.832031 14 199.898438 14.289062 C 197.082031 14.691406 194.285156 13.953125 192.03125 12.207031 C 189.871094 10.53125 188.492188 8.144531 188.105469 5.46875 C 187.945312 4.3125 187.980469 3.160156 188.195312 2.03125 C 185.433594 1.425781 182.59375 1.203125 179.742188 1.367188 C 179.859375 6.605469 176.046875 11.109375 170.828125 11.871094 C 168.015625 12.273438 165.230469 11.535156 162.976562 9.789062 C 162.449219 9.386719 161.964844 8.921875 161.523438 8.425781 C 159.363281 10.199219 157.449219 12.238281 155.828125 14.507812 C 157.996094 16.1875 159.378906 18.582031 159.773438 21.261719 C 160.167969 24.019531 159.464844 26.761719 157.796875 28.992188 C 156.132812 31.21875 153.695312 32.660156 150.941406 33.050781 C 150.59375 33.101562 150.25 33.125 149.914062 33.140625 C 149.925781 34.558594 150.027344 35.992188 150.222656 37.394531 C 150.4375 38.824219 150.730469 40.191406 151.125 41.550781 C 151.449219 41.46875 151.785156 41.402344 152.125 41.347656 C 154.949219 40.941406 157.746094 41.683594 159.996094 43.425781 C 160.347656 43.699219 160.679688 43.992188 160.992188 44.300781 Z M 160.992188 44.300781 "/>
<path style=" stroke:none;fill-rule:nonzero;fill:rgb(0%,0%,0%);fill-opacity:1;" d="M 170.25 44.367188 C 169.488281 43.605469 168.792969 42.757812 168.183594 41.859375 C 165.6875 38.148438 164.789062 33.683594 165.644531 29.292969 C 166.503906 24.90625 169.019531 21.117188 172.730469 18.617188 C 179.359375 14.15625 188.265625 15.015625 193.90625 20.652344 C 194.667969 21.417969 195.363281 22.261719 195.972656 23.160156 C 201.121094 30.824219 199.085938 41.25 191.425781 46.40625 C 184.796875 50.863281 175.890625 50.011719 170.25 44.367188 Z M 192.980469 21.585938 C 187.78125 16.386719 179.574219 15.601562 173.464844 19.707031 C 170.046875 22.007812 167.726562 25.507812 166.9375 29.550781 C 166.144531 33.597656 166.976562 37.707031 169.273438 41.121094 C 169.835938 41.957031 170.476562 42.734375 171.179688 43.433594 C 176.375 48.632812 184.582031 49.425781 190.691406 45.308594 C 197.75 40.558594 199.628906 30.957031 194.882812 23.894531 C 194.316406 23.070312 193.683594 22.289062 192.980469 21.585938 Z M 192.980469 21.585938 "/>
<g clip-path="url(#clip1)" clip-rule="nonzero">
<path style=" stroke:none;fill-rule:nonzero;fill:rgb(0%,0%,0%);fill-opacity:1;" d="M 204.023438 86.433594 C 203.785156 86.199219 203.761719 85.824219 203.972656 85.558594 L 204.191406 85.28125 C 205.203125 84.027344 205.664062 82.460938 205.5 80.871094 C 205.332031 79.300781 204.59375 77.894531 203.378906 76.875 C 202.117188 75.816406 200.511719 75.324219 198.871094 75.492188 C 198.652344 75.519531 198.433594 75.554688 198.214844 75.601562 L 197.871094 75.675781 C 197.523438 75.753906 197.175781 75.539062 197.089844 75.195312 L 197.003906 74.847656 C 196.75 73.8125 196.566406 72.800781 196.453125 71.746094 C 196.347656 70.691406 196.3125 69.632812 196.351562 68.585938 L 196.363281 68.230469 C 196.375 67.875 196.671875 67.589844 197.027344 67.59375 L 197.386719 67.59375 C 197.601562 67.597656 197.828125 67.59375 198.054688 67.570312 C 199.652344 67.40625 201.089844 66.628906 202.109375 65.375 C 203.121094 64.125 203.59375 62.546875 203.429688 60.945312 C 203.261719 59.378906 202.511719 57.964844 201.292969 56.941406 L 201.019531 56.714844 C 200.785156 56.523438 200.71875 56.191406 200.851562 55.917969 L 201.011719 55.59375 C 202.34375 53.847656 203.816406 52.390625 205.472656 51.144531 L 205.757812 50.929688 C 206.039062 50.71875 206.445312 50.757812 206.667969 51.046875 L 206.890625 51.328125 C 207.148438 51.648438 207.433594 51.941406 207.746094 52.203125 C 209.011719 53.265625 210.605469 53.757812 212.238281 53.589844 C 215.300781 53.265625 217.625 50.710938 217.640625 47.648438 L 217.644531 47.289062 C 217.644531 46.929688 217.929688 46.640625 218.289062 46.632812 L 218.640625 46.625 C 220.761719 46.578125 222.859375 46.824219 224.886719 47.363281 L 225.238281 47.453125 C 225.589844 47.546875 225.792969 47.902344 225.707031 48.253906 L 225.617188 48.601562 C 225.457031 49.265625 225.40625 49.957031 225.472656 50.65625 C 225.636719 52.214844 226.371094 53.617188 227.59375 54.640625 C 228.855469 55.703125 230.460938 56.195312 232.101562 56.023438 C 233.246094 55.902344 234.328125 55.457031 235.226562 54.738281 L 235.511719 54.507812 C 235.785156 54.292969 236.191406 54.324219 236.421875 54.601562 L 236.65625 54.878906 C 238 56.503906 239.105469 58.296875 239.945312 60.214844 L 240.089844 60.546875 C 240.234375 60.871094 240.089844 61.253906 239.769531 61.402344 L 239.445312 61.558594 C 237.128906 62.644531 235.753906 65.085938 236.019531 67.625 C 236.179688 69.195312 236.921875 70.597656 238.132812 71.617188 C 238.851562 72.21875 239.710938 72.652344 240.617188 72.867188 L 240.964844 72.949219 C 241.3125 73.027344 241.53125 73.375 241.460938 73.722656 L 241.386719 74.074219 C 240.96875 76.085938 240.265625 78.046875 239.300781 79.898438 L 239.132812 80.222656 C 238.964844 80.539062 238.574219 80.667969 238.25 80.503906 L 237.929688 80.34375 C 236.890625 79.816406 235.726562 79.601562 234.558594 79.71875 C 232.964844 79.882812 231.523438 80.667969 230.507812 81.917969 C 229.488281 83.167969 229.023438 84.738281 229.191406 86.34375 C 229.269531 87.046875 229.464844 87.726562 229.785156 88.375 L 229.945312 88.699219 C 230.105469 89.019531 229.972656 89.417969 229.648438 89.578125 L 229.324219 89.742188 C 227.691406 90.554688 225.96875 91.171875 224.195312 91.570312 C 223.917969 91.640625 223.636719 91.699219 223.351562 91.757812 L 223 91.820312 C 222.652344 91.886719 222.3125 91.660156 222.238281 91.316406 L 222.160156 90.96875 C 221.875 89.675781 221.171875 88.5 220.140625 87.644531 C 219.199219 86.851562 218.054688 86.371094 216.835938 86.261719 C 216.425781 86.21875 216.027344 86.222656 215.652344 86.265625 C 213.585938 86.472656 211.800781 87.714844 210.875 89.570312 L 210.714844 89.890625 C 210.554688 90.207031 210.171875 90.339844 209.847656 90.195312 L 209.527344 90.042969 C 207.722656 89.207031 206.019531 88.125 204.476562 86.828125 L 204.0625 86.472656 C 204.046875 86.464844 204.035156 86.453125 204.023438 86.433594 Z M 204.703125 76.304688 C 205.882812 77.488281 206.632812 79.058594 206.8125 80.730469 C 207 82.578125 206.5 84.394531 205.394531 85.878906 C 206.757812 87.011719 208.25 87.96875 209.828125 88.730469 C 210.988281 86.605469 213.09375 85.203125 215.511719 84.957031 C 215.972656 84.902344 216.464844 84.898438 216.960938 84.949219 C 218.445312 85.085938 219.84375 85.671875 220.988281 86.632812 C 222.152344 87.609375 222.996094 88.941406 223.378906 90.40625 C 223.550781 90.371094 223.726562 90.332031 223.894531 90.292969 C 225.484375 89.933594 227.019531 89.394531 228.480469 88.6875 C 228.167969 87.980469 227.96875 87.242188 227.882812 86.480469 C 227.679688 84.527344 228.246094 82.613281 229.484375 81.085938 C 230.722656 79.5625 232.480469 78.609375 234.425781 78.40625 C 235.75 78.277344 237.066406 78.492188 238.261719 79.042969 C 239.066406 77.453125 239.660156 75.785156 240.039062 74.078125 C 239.035156 73.792969 238.089844 73.296875 237.292969 72.625 C 235.828125 71.402344 234.90625 69.648438 234.707031 67.761719 C 234.394531 64.757812 235.964844 61.875 238.625 60.492188 C 237.890625 58.863281 236.949219 57.335938 235.824219 55.9375 C 234.777344 56.710938 233.542969 57.191406 232.238281 57.335938 C 230.238281 57.535156 228.289062 56.941406 226.746094 55.648438 C 225.277344 54.414062 224.363281 52.667969 224.164062 50.785156 C 224.09375 50.03125 224.128906 49.285156 224.28125 48.5625 C 222.546875 48.132812 220.757812 47.921875 218.953125 47.933594 C 218.792969 51.546875 216.011719 54.507812 212.378906 54.894531 C 210.382812 55.101562 208.4375 54.507812 206.902344 53.214844 C 206.59375 52.953125 206.308594 52.671875 206.042969 52.367188 C 204.644531 53.445312 203.386719 54.6875 202.296875 56.066406 C 203.6875 57.304688 204.539062 58.960938 204.742188 60.808594 C 204.9375 62.765625 204.367188 64.679688 203.128906 66.203125 C 201.890625 67.730469 200.136719 68.679688 198.183594 68.882812 C 198.003906 68.898438 197.828125 68.90625 197.65625 68.910156 C 197.636719 69.808594 197.671875 70.714844 197.761719 71.609375 C 197.859375 72.503906 198.007812 73.378906 198.214844 74.261719 C 198.382812 74.230469 198.554688 74.203125 198.722656 74.183594 C 200.738281 73.980469 202.683594 74.578125 204.21875 75.867188 C 204.390625 76.003906 204.550781 76.152344 204.703125 76.304688 Z M 204.703125 76.304688 "/>
</g>
<path style=" stroke:none;fill-rule:nonzero;fill:rgb(0%,0%,0%);fill-opacity:1;" d="M 211.253906 77.410156 C 210.613281 76.769531 210.046875 76.054688 209.570312 75.277344 C 207.925781 72.621094 207.417969 69.484375 208.136719 66.445312 C 208.855469 63.40625 210.714844 60.828125 213.367188 59.191406 C 218.003906 56.332031 223.925781 57.015625 227.773438 60.859375 C 228.414062 61.5 228.980469 62.21875 229.457031 62.996094 C 231.105469 65.648438 231.609375 68.789062 230.890625 71.824219 C 230.171875 74.863281 228.3125 77.441406 225.660156 79.082031 C 221.023438 81.945312 215.101562 81.257812 211.253906 77.410156 Z M 226.847656 61.792969 C 223.433594 58.378906 218.175781 57.769531 214.0625 60.308594 C 211.703125 61.765625 210.054688 64.050781 209.417969 66.75 C 208.78125 69.445312 209.230469 72.234375 210.6875 74.585938 C 211.113281 75.277344 211.617188 75.917969 212.183594 76.484375 C 215.597656 79.890625 220.851562 80.5 224.96875 77.960938 C 227.324219 76.507812 228.972656 74.21875 229.609375 71.523438 C 230.246094 68.828125 229.796875 66.046875 228.339844 63.691406 C 227.917969 62.996094 227.414062 62.363281 226.847656 61.792969 Z M 226.847656 61.792969 "/>
<g clip-path="url(#clip2)" clip-rule="nonzero">
<path style="fill:none;stroke-width:1.636221;stroke-linecap:butt;stroke-linejoin:miter;stroke:rgb(0%,0%,0%);stroke-opacity:1;stroke-miterlimit:4;" d="M 0.00143027 32.840012 L 29.228718 32.840012 " transform="matrix(0.993694,0,0,0.993691,0.939985,0)"/>
</g>
<path style="fill-rule:evenodd;fill:rgb(0%,0%,0%);fill-opacity:1;stroke-width:1.745302;stroke-linecap:butt;stroke-linejoin:miter;stroke:rgb(0%,0%,0%);stroke-opacity:1;stroke-miterlimit:4;" d="M 36.784178 32.840012 L 25.462781 39.381284 L 25.462781 26.29481 Z M 36.784178 32.840012 " transform="matrix(0.993694,0,0,0.993691,0.939985,0)"/>
<path style="fill:none;stroke-width:1.236828;stroke-linecap:round;stroke-linejoin:miter;stroke:rgb(0%,0%,0%);stroke-opacity:1;stroke-miterlimit:4;" d="M 85.010185 32.840012 C 85.010185 45.501932 74.742306 55.769841 62.076493 55.769841 C 49.41068 55.769841 39.146733 45.501932 39.146733 32.840012 C 39.146733 20.17023 49.41068 9.902321 62.076493 9.902321 C 74.742306 9.902321 85.010185 20.17023 85.010185 32.840012 Z M 85.010185 32.840012 " transform="matrix(0.993694,0,0,0.993691,0.939985,0)"/>
<path style="fill:none;stroke-width:1.636221;stroke-linecap:butt;stroke-linejoin:miter;stroke:rgb(0%,0%,0%);stroke-opacity:1;stroke-miterlimit:4;" d="M 62.076493 83.129966 L 62.076493 65.687887 " transform="matrix(0.993694,0,0,0.993691,0.939985,0)"/>
<path style="fill-rule:evenodd;fill:rgb(0%,0%,0%);fill-opacity:1;stroke-width:1.745302;stroke-linecap:butt;stroke-linejoin:miter;stroke:rgb(0%,0%,0%);stroke-opacity:1;stroke-miterlimit:4;" d="M -58.132404 62.076493 L -69.453835 68.621676 L -69.453835 55.531311 Z M -58.132404 62.076493 " transform="matrix(0,-0.993691,0.993694,0,0.939985,0)"/>
<path style=" stroke:none;fill-rule:nonzero;fill:rgb(0%,0%,0%);fill-opacity:1;" d="M 54.335938 33.140625 L 54.335938 32.121094 L 50.054688 32.121094 L 50.054688 27.839844 L 49.03125 27.839844 L 49.03125 32.121094 L 44.75 32.121094 L 44.75 33.140625 L 49.03125 33.140625 L 49.03125 37.421875 L 50.054688 37.421875 L 50.054688 33.140625 Z M 54.335938 33.140625 "/>
<path style=" stroke:none;fill-rule:nonzero;fill:rgb(0%,0%,0%);fill-opacity:1;" d="M 58.101562 47.0625 L 67.152344 47.0625 L 67.152344 47.976562 L 58.101562 47.976562 Z M 58.101562 47.0625 "/>
<path style="fill:none;stroke-width:1.636221;stroke-linecap:butt;stroke-linejoin:miter;stroke:rgb(0%,0%,0%);stroke-opacity:1;stroke-miterlimit:4;" d="M 85.627358 32.840012 L 120.755137 32.840012 " transform="matrix(0.993694,0,0,0.993691,0.939985,0)"/>
<path style="fill-rule:evenodd;fill:rgb(0%,0%,0%);fill-opacity:1;stroke-width:1.745302;stroke-linecap:butt;stroke-linejoin:miter;stroke:rgb(0%,0%,0%);stroke-opacity:1;stroke-miterlimit:4;" d="M 128.306667 32.840012 L 116.985269 39.381284 L 116.985269 26.29481 Z M 128.306667 32.840012 " transform="matrix(0.993694,0,0,0.993691,0.939985,0)"/>
<path style=" stroke:none;fill-rule:nonzero;fill:rgb(0%,0%,0%);fill-opacity:1;" d="M 297.414062 67.21875 C 290.292969 67.21875 283.714844 67.109375 278.898438 66.910156 C 270.066406 66.546875 269.589844 66.011719 269.183594 65.554688 C 268.875 65.203125 268.449219 64.71875 268.007812 59.148438 C 267.761719 55.992188 267.550781 51.738281 267.425781 47.140625 C 267.210938 39 267.210938 28.152344 267.882812 22.113281 C 268.265625 18.714844 268.738281 17.734375 269.378906 17.265625 C 269.824219 16.945312 270.738281 16.273438 278.726562 15.84375 C 283.152344 15.617188 289.054688 15.496094 295.828125 15.496094 C 303.5625 15.496094 311.722656 15.664062 318.203125 15.9375 C 329.246094 16.421875 329.871094 16.957031 330.296875 17.324219 C 330.757812 17.734375 331.730469 18.578125 331.855469 33.753906 C 331.933594 42.785156 331.625 52.082031 331.058594 58.035156 C 330.449219 64.441406 329.734375 65.355469 328.988281 65.78125 C 326.59375 67.171875 300.402344 67.21875 297.414062 67.21875 Z M 270.964844 63.875 C 272.855469 64.378906 282.222656 64.851562 297.414062 64.851562 C 314.039062 64.851562 325.832031 64.304688 327.691406 63.769531 C 328.4375 62.335938 329.277344 54.375 329.460938 41.410156 C 329.644531 29.605469 329.183594 20.9375 328.648438 19.109375 C 326.210938 18.496094 311.945312 17.8125 295.816406 17.8125 C 278.300781 17.8125 271.9375 18.605469 270.828125 19.09375 C 270.15625 20.390625 269.515625 27.882812 269.667969 41.574219 C 269.824219 53.015625 270.445312 62.011719 270.964844 63.875 Z M 270.964844 63.875 "/>
<path style=" stroke:none;fill-rule:nonzero;fill:rgb(0%,0%,0%);fill-opacity:1;" d="M 281.84375 36.234375 C 280.011719 36.234375 279.050781 34.515625 279.050781 32.816406 C 279.050781 31.996094 279.273438 31.230469 279.667969 30.652344 C 280.179688 29.917969 280.953125 29.515625 281.84375 29.515625 C 283.132812 29.515625 283.871094 30.042969 284.265625 30.480469 C 284.746094 31.023438 285 31.738281 285 32.546875 C 285.007812 34.320312 283.734375 36.234375 281.84375 36.234375 Z M 281.84375 31.003906 C 281.628906 31.003906 281.304688 31.050781 281.019531 31.453125 C 280.792969 31.792969 280.65625 32.296875 280.65625 32.816406 C 280.65625 33.753906 281.074219 34.75 281.84375 34.75 C 282.726562 34.75 283.390625 33.558594 283.390625 32.546875 C 283.390625 32.09375 283.269531 31.6875 283.027344 31.425781 C 282.777344 31.136719 282.378906 31.003906 281.84375 31.003906 Z M 281.84375 31.003906 "/>
<path style=" stroke:none;fill-rule:nonzero;fill:rgb(0%,0%,0%);fill-opacity:1;" d="M 288.535156 36.234375 C 288.085938 36.234375 287.734375 35.898438 287.734375 35.492188 L 287.734375 31.117188 L 286.910156 31.714844 C 286.566406 31.964844 286.050781 31.90625 285.78125 31.589844 C 285.511719 31.269531 285.574219 30.796875 285.917969 30.542969 L 288.042969 29.003906 C 288.289062 28.828125 288.617188 28.789062 288.894531 28.914062 C 289.171875 29.039062 289.339844 29.296875 289.339844 29.582031 L 289.339844 35.480469 C 289.339844 35.90625 288.976562 36.234375 288.535156 36.234375 Z M 288.535156 36.234375 "/>
<path style=" stroke:none;fill-rule:nonzero;fill:rgb(0%,0%,0%);fill-opacity:1;" d="M 293.515625 36.234375 C 291.675781 36.234375 290.71875 34.515625 290.71875 32.816406 C 290.71875 31.996094 290.9375 31.230469 291.332031 30.652344 C 291.84375 29.917969 292.617188 29.515625 293.515625 29.515625 C 294.796875 29.515625 295.539062 30.042969 295.933594 30.480469 C 296.417969 31.023438 296.664062 31.738281 296.664062 32.546875 C 296.675781 34.320312 295.402344 36.234375 293.515625 36.234375 Z M 293.515625 31.003906 C 293.296875 31.003906 292.972656 31.050781 292.691406 31.453125 C 292.460938 31.792969 292.324219 32.296875 292.324219 32.816406 C 292.324219 33.753906 292.738281 34.75 293.515625 34.75 C 294.390625 34.75 295.058594 33.558594 295.058594 32.546875 C 295.058594 32.09375 294.933594 31.6875 294.691406 31.425781 C 294.441406 31.136719 294.042969 31.003906 293.515625 31.003906 Z M 293.515625 31.003906 "/>
<path style=" stroke:none;fill-rule:nonzero;fill:rgb(0%,0%,0%);fill-opacity:1;" d="M 300.199219 36.234375 C 299.753906 36.234375 299.402344 35.898438 299.402344 35.492188 L 299.402344 31.117188 L 298.574219 31.714844 C 298.222656 31.964844 297.714844 31.90625 297.449219 31.589844 C 297.175781 31.269531 297.238281 30.796875 297.585938 30.542969 L 299.710938 29.003906 C 299.953125 28.828125 300.285156 28.789062 300.558594 28.914062 C 300.839844 29.039062 301.003906 29.296875 301.003906 29.582031 L 301.003906 35.480469 C 301.003906 35.90625 300.640625 36.234375 300.199219 36.234375 Z M 300.199219 36.234375 "/>
<path style=" stroke:none;fill-rule:nonzero;fill:rgb(0%,0%,0%);fill-opacity:1;" d="M 305.179688 36.234375 C 303.34375 36.234375 302.382812 34.515625 302.382812 32.816406 C 302.382812 31.996094 302.601562 31.230469 303 30.652344 C 303.511719 29.917969 304.28125 29.515625 305.179688 29.515625 C 306.464844 29.515625 307.203125 30.042969 307.597656 30.480469 C 308.082031 31.023438 308.332031 31.738281 308.332031 32.546875 C 308.34375 34.320312 307.066406 36.234375 305.179688 36.234375 Z M 305.179688 31.003906 C 304.960938 31.003906 304.636719 31.050781 304.355469 31.453125 C 304.125 31.792969 303.988281 32.296875 303.988281 32.816406 C 303.988281 33.753906 304.410156 34.75 305.179688 34.75 C 306.054688 34.75 306.726562 33.558594 306.726562 32.546875 C 306.726562 32.09375 306.597656 31.6875 306.359375 31.425781 C 306.109375 31.136719 305.710938 31.003906 305.179688 31.003906 Z M 305.179688 31.003906 "/>
<path style=" stroke:none;fill-rule:nonzero;fill:rgb(0%,0%,0%);fill-opacity:1;" d="M 311.867188 36.234375 C 311.417969 36.234375 311.066406 35.898438 311.066406 35.492188 L 311.066406 31.117188 L 310.242188 31.714844 C 309.898438 31.964844 309.386719 31.90625 309.113281 31.589844 C 308.84375 31.269531 308.90625 30.796875 309.25 30.542969 L 311.378906 29.003906 C 311.621094 28.828125 311.953125 28.789062 312.222656 28.914062 C 312.503906 29.039062 312.671875 29.296875 312.671875 29.582031 L 312.671875 35.480469 C 312.671875 35.90625 312.308594 36.234375 311.867188 36.234375 Z M 311.867188 36.234375 "/>
<path style=" stroke:none;fill-rule:nonzero;fill:rgb(0%,0%,0%);fill-opacity:1;" d="M 281.84375 45.273438 C 280.011719 45.273438 279.050781 43.554688 279.050781 41.855469 C 279.050781 41.03125 279.273438 40.269531 279.667969 39.691406 C 280.179688 38.957031 280.953125 38.550781 281.84375 38.550781 C 283.132812 38.550781 283.871094 39.082031 284.265625 39.519531 C 284.746094 40.058594 285 40.777344 285 41.589844 C 285.007812 43.371094 283.734375 45.273438 281.84375 45.273438 Z M 281.84375 40.039062 C 281.628906 40.039062 281.304688 40.089844 281.019531 40.492188 C 280.792969 40.832031 280.65625 41.335938 280.65625 41.855469 C 280.65625 42.789062 281.074219 43.789062 281.84375 43.789062 C 282.726562 43.789062 283.390625 42.597656 283.390625 41.589844 C 283.390625 41.128906 283.269531 40.726562 283.027344 40.460938 C 282.777344 40.183594 282.378906 40.039062 281.84375 40.039062 Z M 281.84375 40.039062 "/>
<path style=" stroke:none;fill-rule:nonzero;fill:rgb(0%,0%,0%);fill-opacity:1;" d="M 288.535156 45.273438 C 288.085938 45.273438 287.734375 44.933594 287.734375 44.53125 L 287.734375 40.15625 L 286.910156 40.753906 C 286.566406 41.003906 286.050781 40.945312 285.78125 40.628906 C 285.511719 40.308594 285.5625 39.835938 285.917969 39.585938 L 288.042969 38.039062 C 288.289062 37.863281 288.617188 37.824219 288.894531 37.953125 C 289.171875 38.078125 289.339844 38.339844 289.339844 38.621094 L 289.339844 44.519531 C 289.339844 44.945312 288.976562 45.273438 288.535156 45.273438 Z M 288.535156 45.273438 "/>
<path style=" stroke:none;fill-rule:nonzero;fill:rgb(0%,0%,0%);fill-opacity:1;" d="M 293.515625 45.273438 C 291.675781 45.273438 290.71875 43.554688 290.71875 41.855469 C 290.71875 41.03125 290.9375 40.269531 291.332031 39.691406 C 291.84375 38.957031 292.617188 38.550781 293.515625 38.550781 C 294.796875 38.550781 295.539062 39.082031 295.933594 39.519531 C 296.417969 40.058594 296.664062 40.777344 296.664062 41.589844 C 296.675781 43.371094 295.402344 45.273438 293.515625 45.273438 Z M 293.515625 40.039062 C 293.296875 40.039062 292.972656 40.089844 292.691406 40.492188 C 292.460938 40.832031 292.324219 41.335938 292.324219 41.855469 C 292.324219 42.789062 292.738281 43.789062 293.515625 43.789062 C 294.390625 43.789062 295.058594 42.597656 295.058594 41.589844 C 295.058594 41.128906 294.933594 40.726562 294.691406 40.460938 C 294.441406 40.183594 294.042969 40.039062 293.515625 40.039062 Z M 293.515625 40.039062 "/>
<path style=" stroke:none;fill-rule:nonzero;fill:rgb(0%,0%,0%);fill-opacity:1;" d="M 300.199219 45.273438 C 299.753906 45.273438 299.402344 44.933594 299.402344 44.53125 L 299.402344 40.15625 L 298.574219 40.753906 C 298.234375 41.003906 297.714844 40.945312 297.449219 40.628906 C 297.175781 40.308594 297.238281 39.835938 297.585938 39.585938 L 299.710938 38.039062 C 299.953125 37.863281 300.285156 37.824219 300.558594 37.953125 C 300.839844 38.078125 301.003906 38.339844 301.003906 38.621094 L 301.003906 44.519531 C 301.003906 44.945312 300.640625 45.273438 300.199219 45.273438 Z M 300.199219 45.273438 "/>
<path style=" stroke:none;fill-rule:nonzero;fill:rgb(0%,0%,0%);fill-opacity:1;" d="M 281.84375 53.84375 C 280.011719 53.84375 279.050781 52.117188 279.050781 50.417969 C 279.050781 49.597656 279.273438 48.839844 279.667969 48.257812 C 280.179688 47.523438 280.953125 47.117188 281.84375 47.117188 C 283.132812 47.117188 283.871094 47.648438 284.265625 48.082031 C 284.746094 48.625 285 49.339844 285 50.152344 C 285.007812 51.929688 283.734375 53.84375 281.84375 53.84375 Z M 281.84375 48.59375 C 281.628906 48.59375 281.304688 48.644531 281.019531 49.046875 C 280.792969 49.386719 280.65625 49.890625 280.65625 50.410156 C 280.65625 51.347656 281.074219 52.34375 281.84375 52.34375 C 282.726562 52.34375 283.390625 51.15625 283.390625 50.140625 C 283.390625 49.6875 283.269531 49.28125 283.027344 49.019531 C 282.777344 48.742188 282.378906 48.59375 281.84375 48.59375 Z M 281.84375 48.59375 "/>
<path style=" stroke:none;fill-rule:nonzero;fill:rgb(0%,0%,0%);fill-opacity:1;" d="M 288.535156 53.84375 C 288.085938 53.84375 287.734375 53.5 287.734375 53.097656 L 287.734375 48.722656 L 286.910156 49.320312 C 286.566406 49.570312 286.050781 49.523438 285.78125 49.191406 C 285.511719 48.875 285.5625 48.402344 285.917969 48.152344 L 288.042969 46.605469 C 288.289062 46.433594 288.617188 46.394531 288.894531 46.519531 C 289.171875 46.644531 289.339844 46.90625 289.339844 47.183594 L 289.339844 53.085938 C 289.339844 53.5 288.976562 53.84375 288.535156 53.84375 Z M 288.535156 53.84375 "/>
<path style=" stroke:none;fill-rule:nonzero;fill:rgb(0%,0%,0%);fill-opacity:1;" d="M 293.515625 53.84375 C 291.675781 53.84375 290.71875 52.117188 290.71875 50.417969 C 290.71875 49.597656 290.9375 48.839844 291.332031 48.257812 C 291.84375 47.523438 292.617188 47.117188 293.515625 47.117188 C 294.796875 47.117188 295.539062 47.648438 295.933594 48.082031 C 296.417969 48.625 296.664062 49.339844 296.664062 50.152344 C 296.675781 51.929688 295.402344 53.84375 293.515625 53.84375 Z M 293.515625 48.59375 C 293.296875 48.59375 292.972656 48.644531 292.691406 49.046875 C 292.460938 49.386719 292.324219 49.890625 292.324219 50.410156 C 292.324219 51.347656 292.738281 52.34375 293.515625 52.34375 C 294.390625 52.34375 295.058594 51.15625 295.058594 50.140625 C 295.058594 49.6875 294.933594 49.28125 294.691406 49.019531 C 294.441406 48.742188 294.042969 48.59375 293.515625 48.59375 Z M 293.515625 48.59375 "/>
<path style=" stroke:none;fill-rule:nonzero;fill:rgb(0%,0%,0%);fill-opacity:1;" d="M 300.199219 53.84375 C 299.753906 53.84375 299.402344 53.5 299.402344 53.097656 L 299.402344 48.722656 L 298.574219 49.320312 C 298.234375 49.570312 297.714844 49.523438 297.449219 49.191406 C 297.175781 48.875 297.238281 48.402344 297.585938 48.152344 L 299.710938 46.605469 C 299.953125 46.433594 300.285156 46.394531 300.558594 46.519531 C 300.839844 46.644531 301.003906 46.90625 301.003906 47.183594 L 301.003906 53.085938 C 301.003906 53.5 300.640625 53.84375 300.199219 53.84375 Z M 300.199219 53.84375 "/>
<path style=" stroke:none;fill-rule:nonzero;fill:rgb(0%,0%,0%);fill-opacity:1;" d="M 305.179688 45.273438 C 303.34375 45.273438 302.382812 43.554688 302.382812 41.855469 C 302.382812 41.03125 302.601562 40.269531 303 39.691406 C 303.511719 38.957031 304.28125 38.550781 305.179688 38.550781 C 306.464844 38.550781 307.203125 39.082031 307.597656 39.519531 C 308.082031 40.058594 308.332031 40.777344 308.332031 41.589844 C 308.34375 43.371094 307.066406 45.273438 305.179688 45.273438 Z M 305.179688 40.039062 C 304.960938 40.039062 304.636719 40.089844 304.355469 40.492188 C 304.125 40.832031 303.988281 41.335938 303.988281 41.855469 C 303.988281 42.789062 304.410156 43.789062 305.179688 43.789062 C 306.054688 43.789062 306.726562 42.597656 306.726562 41.589844 C 306.726562 41.128906 306.597656 40.726562 306.359375 40.460938 C 306.109375 40.183594 305.710938 40.039062 305.179688 40.039062 Z M 305.179688 40.039062 "/>
<path style=" stroke:none;fill-rule:nonzero;fill:rgb(0%,0%,0%);fill-opacity:1;" d="M 316.957031 45.273438 C 315.121094 45.273438 314.164062 43.554688 314.164062 41.855469 C 314.164062 41.03125 314.378906 40.269531 314.777344 39.691406 C 315.289062 38.957031 316.0625 38.550781 316.957031 38.550781 C 318.242188 38.550781 318.980469 39.082031 319.378906 39.519531 C 319.859375 40.058594 320.109375 40.777344 320.109375 41.589844 C 320.121094 43.371094 318.847656 45.273438 316.957031 45.273438 Z M 316.957031 40.039062 C 316.738281 40.039062 316.414062 40.089844 316.132812 40.492188 C 315.902344 40.832031 315.769531 41.335938 315.769531 41.855469 C 315.769531 42.789062 316.183594 43.789062 316.957031 43.789062 C 317.835938 43.789062 318.503906 42.597656 318.503906 41.589844 C 318.503906 41.128906 318.378906 40.726562 318.136719 40.460938 C 317.886719 40.183594 317.488281 40.039062 316.957031 40.039062 Z M 316.957031 40.039062 "/>
<path style=" stroke:none;fill-rule:nonzero;fill:rgb(0%,0%,0%);fill-opacity:1;" d="M 311.867188 45.273438 C 311.417969 45.273438 311.066406 44.933594 311.066406 44.53125 L 311.066406 40.15625 L 310.242188 40.753906 C 309.898438 41.003906 309.386719 40.945312 309.113281 40.628906 C 308.84375 40.308594 308.90625 39.835938 309.25 39.585938 L 311.378906 38.039062 C 311.621094 37.863281 311.953125 37.824219 312.222656 37.953125 C 312.503906 38.078125 312.671875 38.339844 312.671875 38.621094 L 312.671875 44.519531 C 312.671875 44.945312 312.308594 45.273438 311.867188 45.273438 Z M 311.867188 45.273438 "/>
<path style=" stroke:none;fill-rule:nonzero;fill:rgb(0%,0%,0%);fill-opacity:1;" d="M 297.886719 60.199219 C 292.320312 60.199219 287.179688 60.121094 283.414062 59.972656 C 276.425781 59.710938 276.0625 59.332031 275.660156 58.917969 C 275.34375 58.585938 274.5625 57.773438 274.199219 45.769531 C 274.03125 40.066406 274.015625 32.359375 274.503906 27.882812 C 274.808594 25.027344 275.253906 24.203125 275.847656 23.792969 C 276.332031 23.472656 277.785156 22.480469 296.636719 22.480469 C 302.6875 22.480469 309.066406 22.601562 314.132812 22.800781 C 322.84375 23.148438 323.3125 23.53125 323.710938 23.851562 C 324.199219 24.234375 324.925781 24.832031 325.050781 35.414062 C 325.128906 41.589844 324.914062 48.148438 324.503906 52.542969 C 324 57.988281 323.328125 58.769531 322.640625 59.148438 C 320.796875 60.152344 301.699219 60.199219 297.886719 60.199219 Z M 277.414062 57.195312 C 279.171875 57.53125 286.417969 57.851562 297.886719 57.851562 C 310.53125 57.851562 319.636719 57.472656 321.40625 57.101562 C 321.863281 55.992188 322.535156 51.15625 322.703125 41.363281 C 322.84375 33.355469 322.519531 27.300781 322.140625 25.726562 C 319.878906 25.300781 308.914062 24.84375 296.648438 24.84375 C 283.476562 24.84375 278.378906 25.363281 277.28125 25.714844 C 276.867188 26.769531 276.332031 31.632812 276.472656 41.558594 C 276.578125 49.949219 277.050781 55.6875 277.414062 57.195312 Z M 277.414062 57.195312 "/>
<g clip-path="url(#clip3)" clip-rule="nonzero">
<path style=" stroke:none;fill-rule:nonzero;fill:rgb(0%,0%,0%);fill-opacity:1;" d="M 298.195312 76.335938 C 281.050781 76.335938 263.933594 76.167969 261.582031 76.078125 C 259.527344 76 259.285156 72.949219 259.203125 71.945312 C 259.097656 70.527344 259.144531 68.816406 259.34375 67.382812 C 259.648438 65.21875 260.148438 64.261719 261.097656 64.058594 C 262.316406 63.8125 269.761719 63.921875 271.242188 63.953125 C 271.894531 63.964844 272.417969 64.5 272.398438 65.144531 C 272.386719 65.78125 271.867188 66.300781 271.226562 66.300781 C 271.226562 66.300781 271.207031 66.300781 271.207031 66.300781 C 267.472656 66.238281 263.308594 66.238281 261.953125 66.332031 C 261.433594 67.765625 261.3125 72.601562 261.9375 73.742188 C 269.578125 73.988281 331.730469 74.320312 336.140625 73.242188 C 336.503906 72.859375 336.933594 71.867188 337.105469 70.359375 C 337.300781 68.542969 337.027344 67.15625 336.796875 66.847656 C 336.019531 66.316406 331.855469 65.949219 328.394531 65.949219 C 327.738281 65.949219 327.21875 65.417969 327.21875 64.777344 C 327.21875 64.121094 327.753906 63.601562 328.394531 63.601562 C 331.625 63.601562 337.253906 63.8125 338.535156 65.265625 C 339.496094 66.347656 339.632812 68.667969 339.453125 70.484375 C 339.3125 71.789062 338.886719 74.136719 337.453125 75.207031 C 336.902344 75.621094 335.972656 76.304688 300.296875 76.335938 C 299.59375 76.335938 298.894531 76.335938 298.195312 76.335938 Z M 298.195312 76.335938 "/>
</g>
<path style=" stroke:none;fill-rule:nonzero;fill:rgb(0%,0%,0%);fill-opacity:1;" d="M 307.3125 72.035156 L 294.257812 72.035156 C 293.601562 72.035156 293.082031 71.503906 293.082031 70.863281 C 293.082031 70.222656 293.617188 69.6875 294.257812 69.6875 L 307.3125 69.6875 C 307.96875 69.6875 308.488281 70.222656 308.488281 70.863281 C 308.488281 71.503906 307.953125 72.035156 307.3125 72.035156 Z M 307.3125 72.035156 "/>
</g>
</svg>
