<?xml version="1.0" encoding="UTF-8"?>
<svg xmlns="http://www.w3.org/2000/svg" xmlns:xlink="http://www.w3.org/1999/xlink" width="276pt" height="90pt" viewBox="0 0 276 90" version="1.2">
<defs>
<clipPath id="clip1">
  <rect x="0" y="0" width="275" height="90"/>
</clipPath>
<g id="surface5" clip-path="url(#clip1)">
<path style="fill:none;stroke-width:0.75;stroke-linecap:butt;stroke-linejoin:miter;stroke:rgb(0%,0%,0%);stroke-opacity:1;stroke-miterlimit:4;" d="M 0 -21.38282 L 17.246094 -21.38282 " transform="matrix(1,0,0,-1,0,-14.000008)"/>
<path style="fill-rule:nonzero;fill:rgb(100%,100%,100%);fill-opacity:1;stroke-width:0.75;stroke-linecap:round;stroke-linejoin:bevel;stroke:rgb(0%,0%,0%);stroke-opacity:1;stroke-miterlimit:4;" d="M 17.183594 -14.824227 L 42.816406 -14.824227 L 42.816406 -40.511727 L 17.183594 -40.511727 Z M 17.183594 -14.824227 " transform="matrix(1,0,0,-1,0,-14.000008)"/>
<path style="fill:none;stroke-width:0.75;stroke-linecap:butt;stroke-linejoin:miter;stroke:rgb(0%,0%,0%);stroke-opacity:1;stroke-miterlimit:4;" d="M 17.066406 -34.464852 L 3.925781 -34.464852 L 3.925781 -46.53907 L 60.636719 -79.281258 L 60.636719 -90.867195 " transform="matrix(1,0,0,-1,0,-14.000008)"/>
<path style="fill:none;stroke-width:0.75;stroke-linecap:butt;stroke-linejoin:miter;stroke:rgb(0%,0%,0%);stroke-opacity:1;stroke-miterlimit:4;" d="M 17.066406 -83.847664 L 3.925781 -83.847664 L 3.925781 -71.777352 L 60.636719 -39.031258 L 60.636719 -27.449227 " transform="matrix(1,0,0,-1,0,-14.000008)"/>
<path style="fill:none;stroke-width:0.75;stroke-linecap:butt;stroke-linejoin:miter;stroke:rgb(0%,0%,0%);stroke-opacity:1;stroke-miterlimit:4;" d="M 0 -96.878914 L 17.066406 -96.878914 " transform="matrix(1,0,0,-1,0,-14.000008)"/>
<path style="fill:none;stroke-width:0.75;stroke-linecap:butt;stroke-linejoin:miter;stroke:rgb(0%,0%,0%);stroke-opacity:1;stroke-miterlimit:4;" d="M 49.359375 -90.824227 L 98.976562 -90.824227 " transform="matrix(1,0,0,-1,0,-14.000008)"/>
<path style="fill:none;stroke-width:0.75;stroke-linecap:butt;stroke-linejoin:miter;stroke:rgb(0%,0%,0%);stroke-opacity:1;stroke-miterlimit:4;" d="M 49.445312 -27.667977 L 99.019531 -27.667977 " transform="matrix(1,0,0,-1,0,-14.000008)"/>
<path style="fill-rule:nonzero;fill:rgb(100%,100%,100%);fill-opacity:1;stroke-width:0.75;stroke-linecap:round;stroke-linejoin:bevel;stroke:rgb(0%,0%,0%);stroke-opacity:1;stroke-miterlimit:4;" d="M 17.183594 -77.933602 L 42.816406 -77.933602 L 42.816406 -103.625008 L 17.183594 -103.625008 Z M 17.183594 -77.933602 " transform="matrix(1,0,0,-1,0,-14.000008)"/>
<path style="fill-rule:nonzero;fill:rgb(100%,100%,100%);fill-opacity:1;stroke-width:0.75;stroke-linecap:round;stroke-linejoin:bevel;stroke:rgb(0%,0%,0%);stroke-opacity:1;stroke-miterlimit:4;" d="M 49.117188 -90.781258 C 49.117188 -92.496102 47.726562 -93.886727 46.007812 -93.886727 C 44.292969 -93.886727 42.902344 -92.496102 42.902344 -90.781258 C 42.902344 -89.062508 44.292969 -87.671883 46.007812 -87.671883 C 47.726562 -87.671883 49.117188 -89.062508 49.117188 -90.781258 Z M 49.117188 -90.781258 " transform="matrix(1,0,0,-1,0,-14.000008)"/>
<path style="fill-rule:nonzero;fill:rgb(100%,100%,100%);fill-opacity:1;stroke-width:0.75;stroke-linecap:round;stroke-linejoin:bevel;stroke:rgb(0%,0%,0%);stroke-opacity:1;stroke-miterlimit:4;" d="M 49.117188 -27.667977 C 49.117188 -29.38282 47.726562 -30.773445 46.007812 -30.773445 C 44.292969 -30.773445 42.902344 -29.38282 42.902344 -27.667977 C 42.902344 -25.949227 44.292969 -24.558602 46.007812 -24.558602 C 47.726562 -24.558602 49.117188 -25.949227 49.117188 -27.667977 Z M 49.117188 -27.667977 " transform="matrix(1,0,0,-1,0,-14.000008)"/>
<path style=" stroke:none;fill-rule:nonzero;fill:rgb(0%,0%,0%);fill-opacity:1;" d="M 6.164062 3.699219 C 6.164062 3.402344 6.085938 3.167969 5.882812 2.980469 C 5.632812 2.714844 5.304688 2.605469 4.445312 2.449219 C 3.632812 2.277344 3.367188 2.089844 3.367188 1.636719 C 3.367188 1.136719 3.710938 0.855469 4.304688 0.855469 C 4.976562 0.855469 5.476562 1.214844 5.476562 1.667969 L 5.476562 1.902344 L 5.757812 1.902344 C 5.757812 1.324219 5.773438 1.089844 5.804688 0.777344 C 5.273438 0.605469 4.914062 0.542969 4.523438 0.542969 C 3.367188 0.542969 2.664062 1.074219 2.664062 1.964844 C 2.664062 2.449219 2.882812 2.777344 3.335938 2.980469 C 3.601562 3.105469 4.132812 3.261719 4.804688 3.417969 C 5.242188 3.511719 5.429688 3.714844 5.429688 4.089844 C 5.429688 4.621094 4.945312 4.996094 4.242188 4.996094 C 3.523438 4.996094 3.007812 4.652344 3.007812 4.167969 L 3.007812 3.761719 L 2.710938 3.761719 C 2.710938 4.433594 2.679688 4.730469 2.601562 5.121094 C 3.117188 5.292969 3.492188 5.371094 3.960938 5.371094 C 5.242188 5.371094 6.164062 4.667969 6.164062 3.699219 Z M 6.164062 3.699219 "/>
<path style=" stroke:none;fill-rule:nonzero;fill:rgb(0%,0%,0%);fill-opacity:1;" d="M 5.992188 76.609375 C 5.882812 76.53125 5.710938 76.5 5.539062 76.5 C 5.242188 76.5 4.914062 76.65625 4.710938 76.90625 L 4.164062 77.546875 L 4.164062 76.53125 L 4.070312 76.5 C 3.570312 76.703125 3.054688 76.84375 2.539062 76.90625 L 2.539062 77.171875 L 2.898438 77.171875 C 3.289062 77.171875 3.335938 77.25 3.335938 77.890625 L 3.335938 80.125 C 3.335938 80.734375 3.304688 80.8125 2.960938 80.828125 L 2.507812 80.859375 L 2.507812 81.15625 C 2.914062 81.140625 3.320312 81.125 3.726562 81.125 C 4.195312 81.125 4.664062 81.140625 5.132812 81.15625 L 5.132812 80.859375 L 4.632812 80.828125 C 4.179688 80.796875 4.164062 80.765625 4.164062 80.125 L 4.164062 78.421875 C 4.164062 77.828125 4.554688 77.328125 5.039062 77.328125 C 5.335938 77.328125 5.539062 77.46875 5.695312 77.78125 L 5.914062 77.78125 Z M 5.992188 76.609375 "/>
<path style=" stroke:none;fill-rule:nonzero;fill:rgb(0%,0%,0%);fill-opacity:1;" d="M 92.867188 11.351562 L 92.867188 11.148438 C 92.476562 11.195312 92.367188 11.195312 92.289062 11.195312 C 91.804688 11.195312 91.257812 11.054688 90.476562 10.710938 C 89.867188 10.445312 89.695312 10.398438 89.273438 10.351562 C 90.054688 10.289062 90.429688 10.179688 90.945312 9.882812 C 92.132812 9.210938 92.867188 7.929688 92.867188 6.507812 C 92.867188 4.460938 91.460938 3.164062 89.257812 3.164062 C 87.039062 3.164062 85.539062 4.617188 85.539062 6.773438 C 85.539062 8.945312 86.914062 10.351562 89.039062 10.351562 L 88.992188 10.367188 C 88.804688 10.445312 88.476562 10.695312 87.914062 11.117188 L 87.898438 11.445312 L 88.476562 11.117188 C 88.601562 11.070312 88.664062 11.039062 88.757812 11.039062 C 88.945312 11.039062 89.226562 11.085938 89.523438 11.195312 L 90.992188 11.648438 C 91.335938 11.757812 91.632812 11.820312 92.039062 11.898438 Z M 91.804688 6.851562 C 91.804688 8.835938 90.945312 9.929688 89.382812 9.929688 C 88.554688 9.929688 87.882812 9.617188 87.382812 9.007812 C 86.882812 8.382812 86.601562 7.445312 86.601562 6.460938 C 86.601562 4.601562 87.492188 3.570312 89.117188 3.570312 C 90.820312 3.570312 91.804688 4.789062 91.804688 6.851562 Z M 91.804688 6.851562 "/>
<path style=" stroke:none;fill-rule:nonzero;fill:rgb(0%,0%,0%);fill-opacity:1;" d="M 97.199219 10.195312 L 97.199219 9.898438 L 96.683594 9.867188 C 96.152344 9.835938 96.042969 9.726562 96.042969 9.210938 L 96.042969 3.367188 L 95.902344 3.304688 C 95.261719 3.648438 94.558594 3.945312 93.667969 4.257812 L 93.730469 4.679688 L 93.839844 4.679688 L 95.105469 4.117188 L 95.136719 4.101562 C 95.199219 4.101562 95.214844 4.195312 95.214844 4.429688 L 95.214844 9.210938 C 95.214844 9.726562 95.105469 9.835938 94.574219 9.867188 L 94.027344 9.898438 L 94.027344 10.195312 C 94.558594 10.179688 95.105469 10.164062 95.652344 10.164062 C 96.167969 10.164062 96.683594 10.179688 97.199219 10.195312 Z M 97.199219 10.195312 "/>
<path style=" stroke:none;fill-rule:nonzero;fill:rgb(0%,0%,0%);fill-opacity:1;" d="M 92.867188 74.253906 L 92.867188 74.050781 C 92.476562 74.097656 92.367188 74.097656 92.289062 74.097656 C 91.804688 74.097656 91.257812 73.957031 90.476562 73.613281 C 89.867188 73.347656 89.695312 73.300781 89.273438 73.253906 C 90.054688 73.191406 90.429688 73.082031 90.945312 72.785156 C 92.132812 72.113281 92.867188 70.832031 92.867188 69.410156 C 92.867188 67.363281 91.460938 66.066406 89.257812 66.066406 C 87.039062 66.066406 85.539062 67.519531 85.539062 69.675781 C 85.539062 71.847656 86.914062 73.253906 89.039062 73.253906 L 88.992188 73.269531 C 88.804688 73.347656 88.476562 73.597656 87.914062 74.019531 L 87.898438 74.347656 L 88.476562 74.019531 C 88.601562 73.972656 88.664062 73.941406 88.757812 73.941406 C 88.945312 73.941406 89.226562 73.988281 89.523438 74.097656 L 90.992188 74.550781 C 91.335938 74.660156 91.632812 74.722656 92.039062 74.800781 Z M 91.804688 69.753906 C 91.804688 71.738281 90.945312 72.832031 89.382812 72.832031 C 88.554688 72.832031 87.882812 72.519531 87.382812 71.910156 C 86.882812 71.285156 86.601562 70.347656 86.601562 69.363281 C 86.601562 67.503906 87.492188 66.472656 89.117188 66.472656 C 90.820312 66.472656 91.804688 67.691406 91.804688 69.753906 Z M 91.804688 69.753906 "/>
<path style=" stroke:none;fill-rule:nonzero;fill:rgb(0%,0%,0%);fill-opacity:1;" d="M 97.699219 73.097656 C 97.683594 72.894531 97.683594 72.785156 97.683594 72.644531 C 97.683594 72.519531 97.683594 72.425781 97.699219 72.207031 L 94.277344 72.300781 L 96.074219 70.394531 C 97.027344 69.378906 97.324219 68.847656 97.324219 68.097656 C 97.324219 66.957031 96.558594 66.269531 95.308594 66.269531 C 94.589844 66.269531 94.105469 66.457031 93.621094 66.957031 L 93.464844 68.300781 L 93.746094 68.300781 L 93.871094 67.847656 C 94.027344 67.269531 94.386719 67.019531 95.042969 67.019531 C 95.902344 67.019531 96.449219 67.550781 96.449219 68.394531 C 96.449219 69.128906 96.027344 69.863281 94.917969 71.050781 L 93.230469 72.832031 L 93.230469 73.097656 C 93.964844 73.082031 94.699219 73.066406 95.433594 73.066406 C 96.183594 73.066406 96.949219 73.082031 97.699219 73.097656 Z M 97.699219 73.097656 "/>
<path style=" stroke:none;fill-rule:nonzero;fill:rgb(0%,0%,0%);fill-opacity:1;" d="M 152.4375 77.976562 L 152.4375 63.332031 L 153.1875 63.332031 L 153.1875 77.226562 L 272.8125 77.226562 L 272.8125 77.976562 Z M 152.4375 77.976562 "/>
<path style="fill-rule:evenodd;fill:rgb(0%,0%,0%);fill-opacity:1;stroke-width:0.4;stroke-linecap:butt;stroke-linejoin:miter;stroke:rgb(0%,0%,0%);stroke-opacity:1;stroke-miterlimit:4;" d="M 152.808594 -80.332039 L 151.308594 -81.832039 L 152.808594 -76.582039 L 154.308594 -81.832039 Z M 152.808594 -80.332039 " transform="matrix(1,0,0,-1,0,-14.000008)"/>
<path style=" stroke:none;fill-rule:nonzero;fill:rgb(0%,0%,0%);fill-opacity:1;" d="M 152.4375 57.402344 L 152.4375 42.753906 L 153.1875 42.753906 L 153.1875 56.652344 L 272.8125 56.652344 L 272.8125 57.402344 Z M 152.4375 57.402344 "/>
<path style="fill-rule:evenodd;fill:rgb(0%,0%,0%);fill-opacity:1;stroke-width:0.4;stroke-linecap:butt;stroke-linejoin:miter;stroke:rgb(0%,0%,0%);stroke-opacity:1;stroke-miterlimit:4;" d="M 152.808594 -59.75782 L 151.308594 -61.25782 L 152.808594 -56.00782 L 154.308594 -61.25782 Z M 152.808594 -59.75782 " transform="matrix(1,0,0,-1,0,-14.000008)"/>
<path style=" stroke:none;fill-rule:nonzero;fill:rgb(0%,0%,0%);fill-opacity:1;" d="M 152.4375 37.660156 L 152.4375 23.011719 L 153.1875 23.011719 L 153.1875 36.910156 L 272.8125 36.910156 L 272.8125 37.660156 Z M 152.4375 37.660156 "/>
<path style="fill-rule:evenodd;fill:rgb(0%,0%,0%);fill-opacity:1;stroke-width:0.4;stroke-linecap:butt;stroke-linejoin:miter;stroke:rgb(0%,0%,0%);stroke-opacity:1;stroke-miterlimit:4;" d="M 152.808594 -40.015633 L 151.308594 -41.515633 L 152.808594 -36.265633 L 154.308594 -41.515633 Z M 152.808594 -40.015633 " transform="matrix(1,0,0,-1,0,-14.000008)"/>
<path style=" stroke:none;fill-rule:nonzero;fill:rgb(0%,0%,0%);fill-opacity:1;" d="M 152.4375 17.085938 L 152.4375 2.4375 L 153.1875 2.4375 L 153.1875 16.335938 L 272.8125 16.335938 L 272.8125 17.085938 Z M 152.4375 17.085938 "/>
<path style="fill-rule:evenodd;fill:rgb(0%,0%,0%);fill-opacity:1;stroke-width:0.4;stroke-linecap:butt;stroke-linejoin:miter;stroke:rgb(0%,0%,0%);stroke-opacity:1;stroke-miterlimit:4;" d="M 152.808594 -19.437508 L 151.308594 -20.937508 L 152.808594 -15.687508 L 154.308594 -20.937508 Z M 152.808594 -19.437508 " transform="matrix(1,0,0,-1,0,-14.000008)"/>
<path style=" stroke:none;fill-rule:nonzero;fill:rgb(0%,0%,0%);fill-opacity:1;" d="M 140.765625 58.394531 L 140.765625 58.191406 C 140.375 58.238281 140.265625 58.238281 140.1875 58.238281 C 139.703125 58.238281 139.15625 58.097656 138.375 57.753906 C 137.765625 57.488281 137.59375 57.441406 137.171875 57.394531 C 137.953125 57.332031 138.328125 57.222656 138.84375 56.925781 C 140.03125 56.253906 140.765625 54.972656 140.765625 53.550781 C 140.765625 51.503906 139.359375 50.207031 137.15625 50.207031 C 134.9375 50.207031 133.4375 51.660156 133.4375 53.816406 C 133.4375 55.988281 134.8125 57.394531 136.9375 57.394531 L 136.890625 57.410156 C 136.703125 57.488281 136.375 57.738281 135.8125 58.160156 L 135.796875 58.488281 L 136.375 58.160156 C 136.5 58.113281 136.5625 58.082031 136.65625 58.082031 C 136.84375 58.082031 137.125 58.128906 137.421875 58.238281 L 138.890625 58.691406 C 139.234375 58.800781 139.53125 58.863281 139.9375 58.941406 Z M 139.703125 53.894531 C 139.703125 55.878906 138.84375 56.972656 137.28125 56.972656 C 136.453125 56.972656 135.78125 56.660156 135.28125 56.050781 C 134.78125 55.425781 134.5 54.488281 134.5 53.503906 C 134.5 51.644531 135.390625 50.613281 137.015625 50.613281 C 138.71875 50.613281 139.703125 51.832031 139.703125 53.894531 Z M 139.703125 53.894531 "/>
<path style=" stroke:none;fill-rule:nonzero;fill:rgb(0%,0%,0%);fill-opacity:1;" d="M 145.097656 57.238281 L 145.097656 56.941406 L 144.582031 56.910156 C 144.050781 56.878906 143.941406 56.769531 143.941406 56.253906 L 143.941406 50.410156 L 143.800781 50.347656 C 143.160156 50.691406 142.457031 50.988281 141.566406 51.300781 L 141.628906 51.722656 L 141.738281 51.722656 L 143.003906 51.160156 L 143.035156 51.144531 C 143.097656 51.144531 143.113281 51.238281 143.113281 51.472656 L 143.113281 56.253906 C 143.113281 56.769531 143.003906 56.878906 142.472656 56.910156 L 141.925781 56.941406 L 141.925781 57.238281 C 142.457031 57.222656 143.003906 57.207031 143.550781 57.207031 C 144.066406 57.207031 144.582031 57.222656 145.097656 57.238281 Z M 145.097656 57.238281 "/>
<path style=" stroke:none;fill-rule:nonzero;fill:rgb(0%,0%,0%);fill-opacity:1;" d="M 140.519531 79.1875 L 140.519531 78.984375 C 140.128906 79.03125 140.019531 79.03125 139.941406 79.03125 C 139.457031 79.03125 138.910156 78.890625 138.128906 78.546875 C 137.519531 78.28125 137.347656 78.234375 136.925781 78.1875 C 137.707031 78.125 138.082031 78.015625 138.597656 77.71875 C 139.785156 77.046875 140.519531 75.765625 140.519531 74.34375 C 140.519531 72.296875 139.113281 71 136.910156 71 C 134.691406 71 133.191406 72.453125 133.191406 74.609375 C 133.191406 76.78125 134.566406 78.1875 136.691406 78.1875 L 136.644531 78.203125 C 136.457031 78.28125 136.128906 78.53125 135.566406 78.953125 L 135.550781 79.28125 L 136.128906 78.953125 C 136.253906 78.90625 136.316406 78.875 136.410156 78.875 C 136.597656 78.875 136.878906 78.921875 137.175781 79.03125 L 138.644531 79.484375 C 138.988281 79.59375 139.285156 79.65625 139.691406 79.734375 Z M 139.457031 74.6875 C 139.457031 76.671875 138.597656 77.765625 137.035156 77.765625 C 136.207031 77.765625 135.535156 77.453125 135.035156 76.84375 C 134.535156 76.21875 134.253906 75.28125 134.253906 74.296875 C 134.253906 72.4375 135.144531 71.40625 136.769531 71.40625 C 138.472656 71.40625 139.457031 72.625 139.457031 74.6875 Z M 139.457031 74.6875 "/>
<path style=" stroke:none;fill-rule:nonzero;fill:rgb(0%,0%,0%);fill-opacity:1;" d="M 145.351562 78.03125 C 145.335938 77.828125 145.335938 77.71875 145.335938 77.578125 C 145.335938 77.453125 145.335938 77.359375 145.351562 77.140625 L 141.929688 77.234375 L 143.726562 75.328125 C 144.679688 74.3125 144.976562 73.78125 144.976562 73.03125 C 144.976562 71.890625 144.210938 71.203125 142.960938 71.203125 C 142.242188 71.203125 141.757812 71.390625 141.273438 71.890625 L 141.117188 73.234375 L 141.398438 73.234375 L 141.523438 72.78125 C 141.679688 72.203125 142.039062 71.953125 142.695312 71.953125 C 143.554688 71.953125 144.101562 72.484375 144.101562 73.328125 C 144.101562 74.0625 143.679688 74.796875 142.570312 75.984375 L 140.882812 77.765625 L 140.882812 78.03125 C 141.617188 78.015625 142.351562 78 143.085938 78 C 143.835938 78 144.601562 78.015625 145.351562 78.03125 Z M 145.351562 78.03125 "/>
<path style=" stroke:none;fill-rule:nonzero;fill:rgb(0%,0%,0%);fill-opacity:1;" d="M 145.144531 35.128906 C 145.144531 34.832031 145.066406 34.597656 144.863281 34.410156 C 144.613281 34.144531 144.285156 34.035156 143.425781 33.878906 C 142.613281 33.707031 142.347656 33.519531 142.347656 33.066406 C 142.347656 32.566406 142.691406 32.285156 143.285156 32.285156 C 143.957031 32.285156 144.457031 32.644531 144.457031 33.097656 L 144.457031 33.332031 L 144.738281 33.332031 C 144.738281 32.753906 144.753906 32.519531 144.785156 32.207031 C 144.253906 32.035156 143.894531 31.972656 143.503906 31.972656 C 142.347656 31.972656 141.644531 32.503906 141.644531 33.394531 C 141.644531 33.878906 141.863281 34.207031 142.316406 34.410156 C 142.582031 34.535156 143.113281 34.691406 143.785156 34.847656 C 144.222656 34.941406 144.410156 35.144531 144.410156 35.519531 C 144.410156 36.050781 143.925781 36.425781 143.222656 36.425781 C 142.503906 36.425781 141.988281 36.082031 141.988281 35.597656 L 141.988281 35.191406 L 141.691406 35.191406 C 141.691406 35.863281 141.660156 36.160156 141.582031 36.550781 C 142.097656 36.722656 142.472656 36.800781 142.941406 36.800781 C 144.222656 36.800781 145.144531 36.097656 145.144531 35.128906 Z M 145.144531 35.128906 "/>
<path style=" stroke:none;fill-rule:nonzero;fill:rgb(0%,0%,0%);fill-opacity:1;" d="M 145.101562 11.496094 C 144.992188 11.417969 144.820312 11.386719 144.648438 11.386719 C 144.351562 11.386719 144.023438 11.542969 143.820312 11.792969 L 143.273438 12.433594 L 143.273438 11.417969 L 143.179688 11.386719 C 142.679688 11.589844 142.164062 11.730469 141.648438 11.792969 L 141.648438 12.058594 L 142.007812 12.058594 C 142.398438 12.058594 142.445312 12.136719 142.445312 12.777344 L 142.445312 15.011719 C 142.445312 15.621094 142.414062 15.699219 142.070312 15.714844 L 141.617188 15.746094 L 141.617188 16.042969 C 142.023438 16.027344 142.429688 16.011719 142.835938 16.011719 C 143.304688 16.011719 143.773438 16.027344 144.242188 16.042969 L 144.242188 15.746094 L 143.742188 15.714844 C 143.289062 15.683594 143.273438 15.652344 143.273438 15.011719 L 143.273438 13.308594 C 143.273438 12.714844 143.664062 12.214844 144.148438 12.214844 C 144.445312 12.214844 144.648438 12.355469 144.804688 12.667969 L 145.023438 12.667969 Z M 145.101562 11.496094 "/>
<path style="fill:none;stroke-width:1.125;stroke-linecap:butt;stroke-linejoin:miter;stroke:rgb(0%,0%,50.195312%);stroke-opacity:1;stroke-miterlimit:4;" d="M 152.808594 -81.062508 L 163.148438 -81.062508 L 163.148438 -91.242195 L 183.164062 -91.242195 L 183.164062 -80.898445 L 213.859375 -80.898445 L 213.859375 -91.410164 L 234.042969 -91.410164 L 234.042969 -81.152352 L 269.53125 -81.152352 " transform="matrix(1,0,0,-1,0,-14.000008)"/>
<path style="fill:none;stroke-width:1.125;stroke-linecap:butt;stroke-linejoin:miter;stroke:rgb(0%,0%,50.195312%);stroke-opacity:1;stroke-miterlimit:4;" d="M 152.691406 -71.074227 L 163.097656 -71.074227 L 163.097656 -61.480477 L 183.433594 -61.480477 L 183.433594 -70.875008 L 203.238281 -70.875008 L 203.238281 -61.597664 L 254.972656 -61.597664 L 254.972656 -70.636727 L 270.671875 -70.636727 " transform="matrix(1,0,0,-1,0,-14.000008)"/>
<path style="fill:none;stroke-width:1.125;stroke-linecap:butt;stroke-linejoin:miter;stroke:rgb(0%,0%,50.195312%);stroke-opacity:1;stroke-miterlimit:4;" d="M 152.71875 -50.91407 L 163.078125 -50.91407 L 163.078125 -40.69532 L 173.109375 -40.69532 L 173.109375 -51.00782 L 203.71875 -51.00782 L 203.71875 -40.69532 L 224.109375 -40.69532 L 224.109375 -50.960945 L 234.140625 -50.960945 L 234.140625 -40.69532 L 244.6875 -40.69532 L 244.6875 -50.773445 L 269.34375 -50.773445 " transform="matrix(1,0,0,-1,0,-14.000008)"/>
<path style="fill:none;stroke-width:1.125;stroke-linecap:butt;stroke-linejoin:miter;stroke:rgb(0%,0%,50.195312%);stroke-opacity:1;stroke-miterlimit:4;" d="M 152.785156 -30.50782 L 183.3125 -30.50782 L 183.3125 -20.464852 L 193.589844 -20.464852 L 193.589844 -30.50782 L 203.566406 -30.50782 L 203.566406 -20.398445 L 214.074219 -20.398445 L 214.074219 -30.50782 L 234.160156 -30.50782 L 234.160156 -20.464852 L 254.542969 -20.464852 L 254.542969 -30.50782 L 271.449219 -30.50782 " transform="matrix(1,0,0,-1,0,-14.000008)"/>
<path style="fill-rule:evenodd;fill:rgb(0%,0%,0%);fill-opacity:1;stroke-width:0.4;stroke-linecap:butt;stroke-linejoin:miter;stroke:rgb(0%,0%,0%);stroke-opacity:1;stroke-miterlimit:4;" d="M 269.8125 -91.605477 L 268.3125 -90.105477 L 273.5625 -91.605477 L 268.3125 -93.105477 Z M 269.8125 -91.605477 " transform="matrix(1,0,0,-1,0,-14.000008)"/>
<path style="fill-rule:evenodd;fill:rgb(0%,0%,0%);fill-opacity:1;stroke-width:0.4;stroke-linecap:butt;stroke-linejoin:miter;stroke:rgb(0%,0%,0%);stroke-opacity:1;stroke-miterlimit:4;" d="M 269.8125 -71.027352 L 268.3125 -69.527352 L 273.5625 -71.027352 L 268.3125 -72.527352 Z M 269.8125 -71.027352 " transform="matrix(1,0,0,-1,0,-14.000008)"/>
<path style="fill-rule:evenodd;fill:rgb(0%,0%,0%);fill-opacity:1;stroke-width:0.4;stroke-linecap:butt;stroke-linejoin:miter;stroke:rgb(0%,0%,0%);stroke-opacity:1;stroke-miterlimit:4;" d="M 269.8125 -51.285164 L 268.3125 -49.785164 L 273.5625 -51.285164 L 268.3125 -52.785164 Z M 269.8125 -51.285164 " transform="matrix(1,0,0,-1,0,-14.000008)"/>
<path style="fill-rule:evenodd;fill:rgb(0%,0%,0%);fill-opacity:1;stroke-width:0.4;stroke-linecap:butt;stroke-linejoin:miter;stroke:rgb(0%,0%,0%);stroke-opacity:1;stroke-miterlimit:4;" d="M 269.8125 -30.710945 L 268.3125 -29.210945 L 273.5625 -30.710945 L 268.3125 -32.210945 Z M 269.8125 -30.710945 " transform="matrix(1,0,0,-1,0,-14.000008)"/>
<path style=" stroke:none;fill-rule:nonzero;fill:rgb(0%,0%,0%);fill-opacity:1;" d="M 37.914062 20.039062 L 37.789062 19.476562 C 37.117188 19.789062 36.804688 19.898438 36.429688 19.898438 C 35.335938 19.898438 34.476562 19.585938 32.585938 18.492188 C 33.898438 17.023438 34.398438 15.960938 34.398438 14.554688 C 34.398438 14.210938 34.367188 14.007812 34.289062 13.679688 C 35.867188 13.742188 36.539062 13.820312 37.398438 13.945312 C 37.398438 13.382812 37.476562 12.992188 37.679688 12.335938 C 37.679688 12.335938 35.039062 12.492188 33.351562 12.492188 L 31.179688 12.460938 L 30.445312 13.460938 C 31.757812 13.570312 32.117188 13.617188 32.382812 13.679688 C 32.726562 13.773438 32.992188 14.554688 32.992188 15.460938 C 32.992188 16.273438 32.726562 16.914062 31.914062 17.992188 C 29.929688 15.960938 28.617188 14.304688 27.367188 12.273438 C 28.304688 11.585938 28.710938 11.242188 29.148438 10.804688 C 30.132812 9.757812 30.570312 8.789062 30.570312 7.773438 C 30.570312 6.492188 29.773438 5.757812 28.398438 5.757812 C 27.789062 5.757812 27.320312 5.914062 26.914062 6.273438 L 25.398438 7.617188 C 25.070312 7.898438 24.867188 8.617188 24.867188 9.523438 C 24.867188 10.445312 25.070312 11.320312 25.539062 12.492188 C 24.335938 13.195312 23.835938 13.585938 23.257812 14.242188 C 22.476562 15.148438 22.070312 16.179688 22.070312 17.289062 C 22.070312 19.789062 24.023438 21.585938 26.679688 21.585938 C 28.304688 21.585938 29.601562 21.085938 31.179688 19.867188 C 32.476562 20.867188 34.148438 21.585938 35.210938 21.585938 C 35.617188 21.585938 35.835938 21.539062 35.976562 21.445312 Z M 30.492188 19.304688 C 29.445312 20.023438 28.617188 20.335938 27.726562 20.335938 C 25.742188 20.335938 24.023438 18.539062 24.023438 16.476562 C 24.023438 15.179688 24.507812 14.351562 25.867188 13.273438 C 26.867188 15.085938 27.960938 16.492188 30.492188 19.304688 Z M 29.085938 8.429688 C 29.085938 9.460938 28.210938 10.664062 27.007812 11.523438 C 26.585938 10.273438 26.429688 9.492188 26.429688 8.710938 C 26.429688 7.570312 26.898438 6.945312 27.789062 6.945312 C 28.523438 6.945312 29.085938 7.585938 29.085938 8.429688 Z M 29.085938 8.429688 "/>
<path style=" stroke:none;fill-rule:nonzero;fill:rgb(0%,0%,0%);fill-opacity:1;" d="M 37.914062 83.148438 L 37.789062 82.585938 C 37.117188 82.898438 36.804688 83.007812 36.429688 83.007812 C 35.335938 83.007812 34.476562 82.695312 32.585938 81.601562 C 33.898438 80.132812 34.398438 79.070312 34.398438 77.664062 C 34.398438 77.320312 34.367188 77.117188 34.289062 76.789062 C 35.867188 76.851562 36.539062 76.929688 37.398438 77.054688 C 37.398438 76.492188 37.476562 76.101562 37.679688 75.445312 C 37.679688 75.445312 35.039062 75.601562 33.351562 75.601562 L 31.179688 75.570312 L 30.445312 76.570312 C 31.757812 76.679688 32.117188 76.726562 32.382812 76.789062 C 32.726562 76.882812 32.992188 77.664062 32.992188 78.570312 C 32.992188 79.382812 32.726562 80.023438 31.914062 81.101562 C 29.929688 79.070312 28.617188 77.414062 27.367188 75.382812 C 28.304688 74.695312 28.710938 74.351562 29.148438 73.914062 C 30.132812 72.867188 30.570312 71.898438 30.570312 70.882812 C 30.570312 69.601562 29.773438 68.867188 28.398438 68.867188 C 27.789062 68.867188 27.320312 69.023438 26.914062 69.382812 L 25.398438 70.726562 C 25.070312 71.007812 24.867188 71.726562 24.867188 72.632812 C 24.867188 73.554688 25.070312 74.429688 25.539062 75.601562 C 24.335938 76.304688 23.835938 76.695312 23.257812 77.351562 C 22.476562 78.257812 22.070312 79.289062 22.070312 80.398438 C 22.070312 82.898438 24.023438 84.695312 26.679688 84.695312 C 28.304688 84.695312 29.601562 84.195312 31.179688 82.976562 C 32.476562 83.976562 34.148438 84.695312 35.210938 84.695312 C 35.617188 84.695312 35.835938 84.648438 35.976562 84.554688 Z M 30.492188 82.414062 C 29.445312 83.132812 28.617188 83.445312 27.726562 83.445312 C 25.742188 83.445312 24.023438 81.648438 24.023438 79.585938 C 24.023438 78.289062 24.507812 77.460938 25.867188 76.382812 C 26.867188 78.195312 27.960938 79.601562 30.492188 82.414062 Z M 29.085938 71.539062 C 29.085938 72.570312 28.210938 73.773438 27.007812 74.632812 C 26.585938 73.382812 26.429688 72.601562 26.429688 71.820312 C 26.429688 70.679688 26.898438 70.054688 27.789062 70.054688 C 28.523438 70.054688 29.085938 70.695312 29.085938 71.539062 Z M 29.085938 71.539062 "/>
</g>
</defs>
<g id="surface1">
<use xlink:href="#surface5" transform="matrix(1,0,0,1,1,0)"/>
</g>
</svg>
