<?xml version="1.0" encoding="UTF-8"?>
<svg xmlns="http://www.w3.org/2000/svg" xmlns:xlink="http://www.w3.org/1999/xlink" width="488.370758pt" height="221.121765pt" viewBox="0 0 488.370758 221.121765" version="1.2">
<defs>
<clipPath id="clip1">
  <path d="M 472 144 L 487.089844 144 L 487.089844 159 L 472 159 Z M 472 144 "/>
</clipPath>
<clipPath id="clip2">
  <path d="M 472 88 L 487.089844 88 L 487.089844 103 L 472 103 Z M 472 88 "/>
</clipPath>
<clipPath id="clip3">
  <path d="M 63 132 L 66 132 L 66 220.246094 L 63 220.246094 Z M 63 132 "/>
</clipPath>
<clipPath id="clip4">
  <path d="M 0.652344 67 L 8 67 L 8 78 L 0.652344 78 Z M 0.652344 67 "/>
</clipPath>
</defs>
<g id="surface1">
<path style="fill:none;stroke-width:0.947658;stroke-linecap:butt;stroke-linejoin:miter;stroke:rgb(0%,0%,0%);stroke-opacity:1;stroke-miterlimit:4;" d="M 55.131884 -210.151675 C 195.927154 -210.724253 242.039261 -209.543802 269.056297 -181.22474 C 297.128288 -151.787975 344.036514 -152.533111 473.842999 -152.297805 " transform="matrix(0.996044,0,0,-0.996044,0.652624,0)"/>
<path style="fill:none;stroke-width:0.947658;stroke-linecap:butt;stroke-linejoin:miter;stroke:rgb(0%,0%,0%);stroke-opacity:1;stroke-miterlimit:4;" d="M 55.131884 -15.377239 C 239.611689 -64.807159 294.95563 -72.815402 473.842999 -72.701671 " transform="matrix(0.996044,0,0,-0.996044,0.652624,0)"/>
<path style="fill:none;stroke-width:1.353797;stroke-linecap:butt;stroke-linejoin:miter;stroke:rgb(0%,0%,0%);stroke-opacity:1;stroke-miterlimit:4;" d="M 56.069186 -152.297805 L 485.702415 -152.297805 " transform="matrix(0.996044,0,0,-0.996044,0.652624,0)"/>
<path style=" stroke:none;fill-rule:evenodd;fill:rgb(0%,0%,0%);fill-opacity:1;" d="M 479.042969 151.695312 L 476.339844 154.390625 L 485.78125 151.695312 L 476.339844 149 Z M 479.042969 151.695312 "/>
<g clip-path="url(#clip1)" clip-rule="nonzero">
<path style="fill:none;stroke-width:0.722025;stroke-linecap:butt;stroke-linejoin:miter;stroke:rgb(0%,0%,0%);stroke-opacity:1;stroke-miterlimit:4;" d="M 480.29038 -152.297805 L 477.576519 -155.003822 L 487.055424 -152.297805 L 477.576519 -149.591787 Z M 480.29038 -152.297805 " transform="matrix(0.996044,0,0,-0.996044,0.652624,0)"/>
</g>
<path style="fill:none;stroke-width:1.353797;stroke-linecap:butt;stroke-linejoin:miter;stroke:rgb(0%,0%,0%);stroke-opacity:1;stroke-miterlimit:4;" d="M 56.069186 -95.875378 L 485.702415 -95.875378 " transform="matrix(0.996044,0,0,-0.996044,0.652624,0)"/>
<path style=" stroke:none;fill-rule:evenodd;fill:rgb(0%,0%,0%);fill-opacity:1;" d="M 479.042969 95.496094 L 476.339844 98.191406 L 485.78125 95.496094 L 476.339844 92.800781 Z M 479.042969 95.496094 "/>
<g clip-path="url(#clip2)" clip-rule="nonzero">
<path style="fill:none;stroke-width:0.722025;stroke-linecap:butt;stroke-linejoin:miter;stroke:rgb(0%,0%,0%);stroke-opacity:1;stroke-miterlimit:4;" d="M 480.29038 -95.875378 L 477.576519 -98.581396 L 487.055424 -95.875378 L 477.576519 -93.16936 Z M 480.29038 -95.875378 " transform="matrix(0.996044,0,0,-0.996044,0.652624,0)"/>
</g>
<path style="fill:none;stroke-width:1.353797;stroke-linecap:butt;stroke-linejoin:miter;stroke:rgb(0%,0%,0%);stroke-opacity:1;stroke-miterlimit:4;" d="M 269.056297 -87.976944 L 269.056297 -103.63655 " transform="matrix(0.996044,0,0,-0.996044,0.652624,0)"/>
<path style="fill:none;stroke-width:1.353797;stroke-linecap:butt;stroke-linejoin:miter;stroke:rgb(0%,0%,50.195312%);stroke-opacity:1;stroke-miterlimit:4;" d="M 55.131884 -15.377239 L 269.056297 -72.701671 L 473.842999 -72.701671 " transform="matrix(0.996044,0,0,-0.996044,0.652624,0)"/>
<path style="fill:none;stroke-width:1.353797;stroke-linecap:butt;stroke-linejoin:miter;stroke:rgb(0%,0%,0%);stroke-opacity:1;stroke-miterlimit:4;" d="M 63.979385 -107.946569 L 63.979385 -8.082757 " transform="matrix(0.996044,0,0,-0.996044,0.652624,0)"/>
<path style="fill-rule:evenodd;fill:rgb(0%,0%,0%);fill-opacity:1;stroke-width:0.722025;stroke-linecap:butt;stroke-linejoin:miter;stroke:rgb(0%,0%,0%);stroke-opacity:1;stroke-miterlimit:4;" d="M 63.979385 -8.082757 L 66.689325 -10.788774 L 63.979385 -1.313791 L 61.273368 -10.788774 Z M 63.979385 -8.082757 " transform="matrix(0.996044,0,0,-0.996044,0.652624,0)"/>
<g clip-path="url(#clip3)" clip-rule="nonzero">
<path style="fill:none;stroke-width:1.353797;stroke-linecap:butt;stroke-linejoin:miter;stroke:rgb(0%,0%,0%);stroke-opacity:1;stroke-miterlimit:4;" d="M 63.979385 -221.120851 L 63.979385 -133.720406 " transform="matrix(0.996044,0,0,-0.996044,0.652624,0)"/>
</g>
<path style="fill-rule:evenodd;fill:rgb(0%,0%,0%);fill-opacity:1;stroke-width:0.722025;stroke-linecap:butt;stroke-linejoin:miter;stroke:rgb(0%,0%,0%);stroke-opacity:1;stroke-miterlimit:4;" d="M 63.979385 -139.132441 L 66.689325 -141.838459 L 63.979385 -132.363475 L 61.273368 -141.838459 Z M 63.979385 -139.132441 " transform="matrix(0.996044,0,0,-0.996044,0.652624,0)"/>
<path style="fill:none;stroke-width:1.353797;stroke-linecap:butt;stroke-linejoin:miter;stroke:rgb(0%,0%,0%);stroke-opacity:1;stroke-miterlimit:4;" d="M 269.056297 -144.462119 L 269.056297 -160.125647 " transform="matrix(0.996044,0,0,-0.996044,0.652624,0)"/>
<path style="fill:none;stroke-width:1.353797;stroke-linecap:butt;stroke-linejoin:miter;stroke:rgb(0%,0%,50.195312%);stroke-opacity:1;stroke-miterlimit:4;" d="M 55.131884 -210.151675 L 269.056297 -210.151675 L 269.056297 -152.297805 L 473.842999 -152.297805 " transform="matrix(0.996044,0,0,-0.996044,0.652624,0)"/>
<path style="fill:none;stroke-width:0.947658;stroke-linecap:butt;stroke-linejoin:miter;stroke:rgb(0%,0%,0%);stroke-opacity:1;stroke-dasharray:1.895316,1.895316;stroke-miterlimit:4;" d="M 269.056297 -72.701671 L 58.002616 -72.701671 " transform="matrix(0.996044,0,0,-0.996044,0.652624,0)"/>
<g clip-path="url(#clip4)" clip-rule="nonzero">
<path style=" stroke:none;fill-rule:nonzero;fill:rgb(0%,0%,0%);fill-opacity:1;" d="M 7.113281 77.789062 C 7.085938 77.480469 7.085938 77.339844 7.085938 77.152344 C 7.085938 76.949219 7.085938 76.808594 7.113281 76.496094 L 2.167969 76.636719 L 4.753906 73.886719 C 6.15625 72.429688 6.582031 71.636719 6.582031 70.546875 C 6.582031 68.914062 5.457031 67.902344 3.660156 67.902344 C 2.621094 67.902344 1.917969 68.183594 1.210938 68.914062 L 0.992188 70.859375 L 1.410156 70.859375 L 1.578125 70.183594 C 1.804688 69.363281 2.335938 68.996094 3.292969 68.996094 C 4.5 68.996094 5.285156 69.789062 5.285156 71 C 5.285156 72.058594 4.699219 73.105469 3.070312 74.820312 L 0.652344 77.394531 L 0.652344 77.789062 C 1.71875 77.761719 2.789062 77.742188 3.828125 77.742188 C 4.921875 77.742188 6.019531 77.761719 7.113281 77.789062 Z M 7.113281 77.789062 "/>
</g>
<path style=" stroke:none;fill-rule:nonzero;fill:rgb(0%,0%,0%);fill-opacity:1;" d="M 14.183594 72.507812 C 14.183594 69.390625 13.257812 67.902344 11.320312 67.902344 C 9.097656 67.902344 7.980469 69.648438 7.980469 73.105469 C 7.980469 74.785156 8.257812 76.21875 8.765625 76.925781 C 9.269531 77.621094 10.054688 78.015625 10.957031 78.015625 C 13.117188 78.015625 14.183594 76.167969 14.183594 72.507812 Z M 13.003906 73.210938 C 13.003906 76.269531 12.445312 77.515625 11.152344 77.515625 C 9.75 77.515625 9.15625 76.082031 9.15625 72.59375 C 9.15625 69.59375 9.691406 68.410156 11.042969 68.410156 C 12.445312 68.410156 13.003906 69.8125 13.003906 73.210938 Z M 13.003906 73.210938 "/>
<path style=" stroke:none;fill-rule:nonzero;fill:rgb(0%,0%,0%);fill-opacity:1;" d="M 22.128906 77.789062 L 22.128906 77.339844 L 21.453125 77.3125 C 20.976562 77.292969 20.949219 77.171875 20.949219 76.269531 L 20.949219 67.484375 L 20.8125 67.371094 C 20.191406 67.625 19.714844 67.730469 18.589844 67.902344 L 18.589844 68.300781 L 19.375 68.300781 C 19.628906 68.300781 19.742188 68.460938 19.742188 68.890625 L 19.742188 76.269531 C 19.742188 77.171875 19.6875 77.292969 19.207031 77.3125 L 18.5625 77.339844 L 18.5625 77.789062 C 19.152344 77.761719 19.742188 77.742188 20.332031 77.742188 C 20.949219 77.742188 21.511719 77.761719 22.128906 77.789062 Z M 22.128906 77.789062 "/>
<path style=" stroke:none;fill-rule:nonzero;fill:rgb(0%,0%,0%);fill-opacity:1;" d="M 29.734375 74.367188 C 29.734375 72.429688 28.332031 71.050781 26.390625 71.050781 C 24.3125 71.050781 22.851562 72.507812 22.851562 74.644531 C 22.851562 76.636719 24.117188 78.015625 25.96875 78.015625 C 28.164062 78.015625 29.734375 76.496094 29.734375 74.367188 Z M 28.414062 74.871094 C 28.414062 76.53125 27.6875 77.535156 26.535156 77.535156 C 25.128906 77.535156 24.171875 76.1875 24.171875 74.144531 C 24.171875 72.449219 24.875 71.53125 26.140625 71.53125 C 27.433594 71.53125 28.414062 72.9375 28.414062 74.871094 Z M 28.414062 74.871094 "/>
<path style=" stroke:none;fill-rule:nonzero;fill:rgb(0%,0%,0%);fill-opacity:1;" d="M 37.957031 71.757812 L 37.902344 71.585938 L 35.878906 71.636719 C 35.347656 71.222656 34.839844 71.050781 34.140625 71.050781 C 33.523438 71.050781 32.789062 71.242188 32.199219 71.585938 C 31.414062 72.039062 30.992188 72.738281 30.992188 73.609375 C 30.992188 74.679688 31.636719 75.40625 32.707031 75.511719 L 31.582031 76.390625 C 31.441406 76.582031 31.359375 76.785156 31.359375 77.003906 C 31.359375 77.394531 31.613281 77.621094 32.3125 77.824219 L 31.046875 78.5 C 30.851562 78.605469 30.65625 79.140625 30.65625 79.589844 C 30.65625 80.886719 31.917969 81.785156 33.746094 81.785156 C 35.90625 81.785156 37.597656 80.4375 37.597656 78.6875 C 37.597656 77.65625 36.917969 76.949219 35.90625 76.949219 L 33.632812 76.949219 C 32.902344 76.949219 32.539062 76.757812 32.539062 76.390625 C 32.539062 76.1875 32.652344 76.050781 33.042969 75.71875 C 33.125 75.652344 33.15625 75.632812 33.210938 75.578125 C 33.355469 75.578125 33.4375 75.597656 33.550781 75.597656 C 34.167969 75.597656 34.921875 75.316406 35.488281 74.902344 C 36.132812 74.453125 36.472656 73.855469 36.472656 73.105469 C 36.472656 72.816406 36.417969 72.65625 36.300781 72.34375 L 37.621094 72.34375 Z M 35.261719 73.554688 C 35.261719 74.472656 34.644531 75.128906 33.800781 75.128906 C 32.816406 75.128906 32.199219 74.367188 32.199219 73.269531 C 32.199219 72.171875 32.707031 71.53125 33.632812 71.53125 C 34.585938 71.53125 35.261719 72.3125 35.261719 73.554688 Z M 36.472656 79.195312 C 36.472656 80.4375 35.347656 81.335938 33.855469 81.335938 C 32.597656 81.335938 31.753906 80.597656 31.753906 79.558594 C 31.753906 78.914062 32.117188 78.328125 32.675781 78.074219 C 32.929688 77.988281 33.324219 77.929688 34.308594 77.929688 C 35.90625 77.929688 36.472656 78.273438 36.472656 79.195312 Z M 36.472656 79.195312 "/>
<path style=" stroke:none;fill-rule:nonzero;fill:rgb(0%,0%,0%);fill-opacity:1;" d="M 51.972656 77.789062 L 51.972656 77.339844 L 51.691406 77.3125 C 51.46875 77.3125 51.242188 77.152344 50.789062 76.722656 L 46.070312 72.289062 L 49.890625 68.855469 C 50.257812 68.523438 50.621094 68.324219 50.988281 68.324219 L 51.605469 68.300781 L 51.605469 67.851562 C 51.214844 67.875 50.847656 67.902344 50.453125 67.902344 C 50.03125 67.902344 49.609375 67.875 49.191406 67.851562 L 49.191406 68.246094 C 49.191406 68.324219 48.992188 68.574219 48.769531 68.800781 L 44.808594 72.675781 L 44.808594 69.613281 C 44.808594 68.488281 44.863281 68.382812 45.535156 68.324219 L 46.214844 68.300781 L 46.214844 67.851562 C 45.507812 67.875 44.808594 67.902344 44.105469 67.902344 C 43.402344 67.902344 42.726562 67.875 42.027344 67.851562 L 42.027344 68.300781 L 42.726562 68.324219 C 43.375 68.382812 43.433594 68.488281 43.433594 69.613281 L 43.433594 76.027344 C 43.433594 77.152344 43.375 77.253906 42.726562 77.3125 L 42.027344 77.339844 L 42.027344 77.789062 C 42.726562 77.761719 43.402344 77.742188 44.105469 77.742188 C 44.808594 77.742188 45.507812 77.761719 46.214844 77.789062 L 46.214844 77.339844 L 45.535156 77.3125 C 44.863281 77.253906 44.808594 77.152344 44.808594 76.027344 L 44.808594 73.105469 L 44.949219 72.988281 L 49.917969 77.789062 C 50.285156 77.761719 50.675781 77.742188 51.042969 77.742188 C 51.351562 77.742188 51.660156 77.761719 51.972656 77.789062 Z M 51.972656 77.789062 "/>
<path style=" stroke:none;fill-rule:nonzero;fill:rgb(0%,0%,0%);fill-opacity:1;" d="M 45.867188 151.109375 C 45.867188 148 44.941406 146.511719 43.003906 146.511719 C 40.78125 146.511719 39.65625 148.25 39.65625 151.703125 C 39.65625 153.394531 39.941406 154.824219 40.449219 155.523438 C 40.949219 156.222656 41.738281 156.625 42.636719 156.625 C 44.800781 156.625 45.867188 154.765625 45.867188 151.109375 Z M 44.6875 151.820312 C 44.6875 154.875 44.125 156.109375 42.832031 156.109375 C 41.429688 156.109375 40.839844 154.6875 40.839844 151.195312 C 40.839844 148.1875 41.375 147.011719 42.71875 147.011719 C 44.125 147.011719 44.6875 148.414062 44.6875 151.820312 Z M 44.6875 151.820312 "/>
<path style=" stroke:none;fill-rule:nonzero;fill:rgb(0%,0%,0%);fill-opacity:1;" d="M 51.363281 148.675781 C 51.363281 147.492188 50.410156 146.511719 49.203125 146.511719 C 48.023438 146.511719 47.066406 147.460938 47.066406 148.640625 C 47.066406 149.820312 48.023438 150.78125 49.234375 150.78125 C 50.386719 150.78125 51.363281 149.820312 51.363281 148.675781 Z M 50.777344 148.675781 C 50.777344 149.515625 50.074219 150.210938 49.234375 150.210938 C 48.359375 150.210938 47.660156 149.515625 47.660156 148.640625 C 47.660156 147.777344 48.359375 147.0625 49.203125 147.0625 C 50.074219 147.0625 50.777344 147.804688 50.777344 148.675781 Z M 50.777344 148.675781 "/>
<path style=" stroke:none;fill-rule:nonzero;fill:rgb(0%,0%,0%);fill-opacity:1;" d="M 31.777344 209.289062 L 31.71875 209.191406 L 27.957031 209.191406 L 27.59375 210.148438 L 27.652344 210.230469 L 31.359375 210.230469 Z M 31.777344 209.289062 "/>
<path style=" stroke:none;fill-rule:nonzero;fill:rgb(0%,0%,0%);fill-opacity:1;" d="M 38.617188 207.351562 C 38.617188 204.925781 37.46875 203.460938 35.585938 203.460938 C 33.757812 203.460938 32.382812 204.894531 32.382812 206.820312 C 32.382812 208.433594 33.453125 209.644531 34.9375 209.644531 C 35.417969 209.644531 35.976562 209.472656 36.230469 209.289062 L 37.246094 208.433594 C 37.128906 210.863281 35.558594 212.597656 32.972656 213.210938 L 32.972656 213.351562 L 33.480469 213.574219 C 35.050781 213.066406 35.753906 212.746094 36.515625 212.085938 C 37.886719 210.910156 38.617188 209.25 38.617188 207.351562 Z M 37.386719 206.59375 C 37.386719 207.878906 36.625 208.777344 35.53125 208.777344 C 34.378906 208.777344 33.621094 207.761719 33.621094 206.269531 C 33.621094 204.839844 34.351562 203.941406 35.53125 203.941406 C 36.175781 203.941406 36.65625 204.203125 36.960938 204.796875 C 37.214844 205.242188 37.386719 205.933594 37.386719 206.59375 Z M 37.386719 206.59375 "/>
<path style=" stroke:none;fill-rule:nonzero;fill:rgb(0%,0%,0%);fill-opacity:1;" d="M 45.867188 208.070312 C 45.867188 204.957031 44.941406 203.460938 43.003906 203.460938 C 40.78125 203.460938 39.65625 205.203125 39.65625 208.660156 C 39.65625 210.351562 39.941406 211.777344 40.449219 212.480469 C 40.949219 213.195312 41.738281 213.574219 42.636719 213.574219 C 44.800781 213.574219 45.867188 211.722656 45.867188 208.070312 Z M 44.6875 208.777344 C 44.6875 211.847656 44.125 213.066406 42.832031 213.066406 C 41.429688 213.066406 40.839844 211.636719 40.839844 208.164062 C 40.839844 205.144531 41.375 203.984375 42.71875 203.984375 C 44.125 203.984375 44.6875 205.371094 44.6875 208.777344 Z M 44.6875 208.777344 "/>
<path style=" stroke:none;fill-rule:nonzero;fill:rgb(0%,0%,0%);fill-opacity:1;" d="M 51.363281 205.632812 C 51.363281 204.445312 50.410156 203.460938 49.203125 203.460938 C 48.023438 203.460938 47.066406 204.429688 47.066406 205.597656 C 47.066406 206.777344 48.023438 207.734375 49.234375 207.734375 C 50.386719 207.734375 51.363281 206.777344 51.363281 205.632812 Z M 50.777344 205.632812 C 50.777344 206.46875 50.074219 207.167969 49.234375 207.167969 C 48.359375 207.167969 47.660156 206.46875 47.660156 205.597656 C 47.660156 204.734375 48.359375 204.027344 49.203125 204.027344 C 50.074219 204.027344 50.777344 204.753906 50.777344 205.632812 Z M 50.777344 205.632812 "/>
<path style=" stroke:none;fill-rule:nonzero;fill:rgb(0%,0%,0%);fill-opacity:1;" d="M 484.355469 81.464844 C 484.433594 80.175781 483.902344 79.320312 483.074219 79.320312 C 482.769531 79.320312 482.542969 79.390625 482.3125 79.574219 L 481.1875 80.597656 L 481.40625 81.015625 C 481.636719 80.902344 481.785156 80.832031 482.019531 80.832031 C 482.65625 80.832031 482.925781 81.316406 482.890625 82.214844 C 482.734375 85.507812 480.464844 89.097656 478.503906 89.097656 C 477.410156 89.097656 476.765625 88.191406 476.839844 86.710938 C 476.839844 86.421875 476.886719 86.105469 477.027344 85.542969 L 477.523438 83.84375 C 477.636719 83.464844 477.789062 83.160156 477.929688 82.785156 L 477.667969 82.453125 L 476.234375 83.058594 L 475.511719 85.726562 C 475.210938 86.496094 474.953125 87.425781 474.273438 87.960938 C 473.625 88.484375 472.988281 88.867188 472.238281 88.867188 C 471.597656 88.867188 471.0625 88.5625 470.722656 88.113281 C 470.265625 87.621094 470.15625 86.828125 470.191406 86.144531 C 470.304688 84.109375 470.910156 82.324219 472.875 80.519531 C 473.140625 80.332031 473.554688 79.953125 473.816406 79.691406 L 473.476562 79.320312 C 472.875 79.722656 471.855469 80.449219 471.253906 80.980469 C 469.550781 82.453125 468.601562 84.371094 468.523438 86.066406 C 468.453125 87.355469 468.488281 88.457031 469.175781 89.3125 C 469.628906 89.890625 470.15625 90.191406 470.941406 90.191406 C 471.597656 90.191406 472.457031 89.851562 473.066406 89.511719 C 473.96875 89.019531 474.417969 88.5625 475.210938 87.933594 C 475.371094 89.285156 476.273438 90.191406 477.523438 90.191406 C 478.503906 90.191406 479.410156 89.773438 480.5 88.761719 C 481.519531 87.855469 482.542969 86.449219 483.261719 85.054688 C 483.867188 83.886719 484.320312 82.402344 484.355469 81.464844 Z M 484.355469 81.464844 "/>
<path style=" stroke:none;fill-rule:nonzero;fill:rgb(0%,0%,0%);fill-opacity:1;" d="M 484.355469 137.34375 C 484.433594 136.070312 483.902344 135.203125 483.074219 135.203125 C 482.769531 135.203125 482.542969 135.277344 482.3125 135.464844 L 481.1875 136.488281 L 481.40625 136.898438 C 481.636719 136.785156 481.785156 136.714844 482.019531 136.714844 C 482.65625 136.714844 482.925781 137.214844 482.890625 138.113281 C 482.734375 141.390625 480.464844 144.980469 478.503906 144.980469 C 477.410156 144.980469 476.765625 144.074219 476.839844 142.605469 C 476.839844 142.308594 476.886719 141.996094 477.027344 141.433594 L 477.523438 139.734375 C 477.636719 139.355469 477.789062 139.046875 477.929688 138.671875 L 477.667969 138.335938 L 476.234375 138.949219 L 475.511719 141.617188 C 475.210938 142.378906 474.953125 143.316406 474.273438 143.851562 C 473.625 144.375 472.988281 144.757812 472.238281 144.757812 C 471.597656 144.757812 471.0625 144.453125 470.722656 144.007812 C 470.265625 143.511719 470.15625 142.710938 470.191406 142.039062 C 470.304688 140 470.910156 138.21875 472.875 136.410156 C 473.140625 136.226562 473.554688 135.84375 473.816406 135.582031 L 473.476562 135.203125 C 472.875 135.609375 471.855469 136.332031 471.253906 136.863281 C 469.550781 138.335938 468.601562 140.257812 468.523438 141.960938 C 468.453125 143.246094 468.488281 144.339844 469.175781 145.203125 C 469.628906 145.773438 470.15625 146.074219 470.941406 146.074219 C 471.597656 146.074219 472.457031 145.738281 473.066406 145.402344 C 473.96875 144.910156 474.417969 144.453125 475.210938 143.820312 C 475.371094 145.175781 476.273438 146.074219 477.523438 146.074219 C 478.503906 146.074219 479.410156 145.664062 480.5 144.648438 C 481.519531 143.746094 482.542969 142.339844 483.261719 140.9375 C 483.867188 139.777344 484.320312 138.292969 484.355469 137.34375 Z M 484.355469 137.34375 "/>
<path style=" stroke:none;fill-rule:nonzero;fill:rgb(0%,0%,0%);fill-opacity:1;" d="M 80.597656 7.960938 L 80.542969 7.59375 C 79.949219 7.628906 79.359375 7.648438 78.773438 7.648438 C 78.179688 7.648438 77.621094 7.628906 77.027344 7.59375 L 77.027344 8.042969 L 78.207031 8.128906 C 78.574219 8.164062 78.714844 8.304688 78.714844 8.632812 L 78.714844 10.066406 C 78.714844 10.40625 78.6875 10.597656 78.632812 10.691406 C 78.460938 10.964844 77.621094 11.164062 76.664062 11.164062 C 73.855469 11.164062 72.058594 9.289062 72.058594 6.304688 C 72.058594 3.546875 73.574219 1.945312 76.242188 1.945312 C 77 1.945312 77.621094 2.03125 78.152344 2.203125 C 78.992188 2.480469 79.359375 2.824219 79.359375 3.359375 L 79.359375 4.117188 L 79.785156 4.117188 C 79.785156 3.382812 79.863281 2.703125 80.089844 1.945312 C 78.492188 1.472656 77.761719 1.359375 76.636719 1.359375 C 72.957031 1.359375 70.511719 3.441406 70.511719 6.609375 C 70.511719 8.042969 71.019531 9.308594 71.890625 10.207031 C 72.902344 11.164062 74.414062 11.757812 76.070312 11.757812 C 77.085938 11.757812 78.066406 11.589844 80.03125 11.023438 L 80.03125 8.632812 C 80.03125 8.183594 80.03125 8.164062 80.175781 8.101562 Z M 80.597656 7.960938 "/>
<path style=" stroke:none;fill-rule:nonzero;fill:rgb(0%,0%,0%);fill-opacity:1;" d="M 89.355469 11.53125 L 89.355469 11.085938 L 88.707031 11.050781 C 88.203125 11.023438 88.175781 10.914062 88.175781 10.015625 L 88.175781 1.21875 L 88.035156 1.113281 C 87.417969 1.359375 86.9375 1.472656 85.8125 1.644531 L 85.8125 2.03125 L 86.628906 2.03125 C 86.882812 2.03125 86.964844 2.203125 86.964844 2.621094 L 86.964844 5.242188 C 86.179688 4.898438 85.789062 4.789062 85.28125 4.789062 C 84.886719 4.789062 84.550781 4.867188 84.183594 5.039062 L 82.949219 5.710938 C 82.132812 6.140625 81.601562 7.179688 81.601562 8.390625 C 81.601562 9.53125 81.964844 10.464844 82.667969 11.050781 C 83.171875 11.449219 83.847656 11.640625 84.777344 11.640625 C 85.054688 11.640625 85.367188 11.589844 85.449219 11.53125 L 87.023438 10.207031 L 86.964844 11.53125 C 87.332031 11.5 87.699219 11.46875 88.0625 11.46875 C 88.484375 11.46875 88.933594 11.5 89.355469 11.53125 Z M 86.964844 8.320312 C 86.964844 9.253906 86.9375 9.394531 86.769531 9.734375 C 86.347656 10.375 85.675781 10.824219 85 10.824219 C 83.738281 10.824219 82.839844 9.617188 82.839844 7.9375 C 82.839844 6.367188 83.597656 5.464844 84.886719 5.464844 C 85.421875 5.464844 86.011719 5.625 86.519531 5.972656 C 86.796875 6.195312 86.964844 6.367188 86.964844 6.46875 Z M 86.964844 8.320312 "/>
<path style=" stroke:none;fill-rule:nonzero;fill:rgb(0%,0%,0%);fill-opacity:1;" d="M 98.050781 8.21875 C 98.050781 7.492188 97.738281 6.890625 97.207031 6.523438 C 96.671875 6.140625 96.195312 5.992188 95.070312 5.914062 C 95.773438 5.765625 96.113281 5.625 96.5 5.378906 C 97.207031 4.898438 97.542969 4.28125 97.542969 3.546875 C 97.542969 2.285156 96.726562 1.582031 94.988281 1.582031 C 94.144531 1.582031 93.300781 1.644531 92.433594 1.644531 C 91.699219 1.644531 90.941406 1.609375 90.183594 1.582031 L 90.183594 2.03125 L 90.691406 2.058594 C 91.363281 2.117188 91.417969 2.234375 91.417969 3.359375 L 91.417969 10.125 C 91.417969 10.65625 91.308594 10.964844 91.109375 11.050781 L 90.742188 11.191406 L 90.742188 11.53125 C 91.25 11.5 91.785156 11.46875 92.292969 11.46875 C 92.878906 11.46875 93.5 11.53125 94.058594 11.53125 C 95.128906 11.53125 96.054688 11.246094 96.699219 10.796875 C 97.542969 10.1875 98.050781 9.222656 98.050781 8.21875 Z M 96.5625 8.492188 C 96.5625 10.015625 95.578125 10.914062 93.890625 10.914062 C 93.472656 10.914062 93.132812 10.882812 92.792969 10.796875 L 92.792969 6.304688 C 93.332031 6.28125 93.472656 6.28125 93.75 6.28125 C 95.664062 6.28125 96.5625 6.976562 96.5625 8.492188 Z M 96.136719 3.859375 C 96.136719 5.09375 95.296875 5.765625 93.667969 5.765625 C 93.414062 5.765625 93.21875 5.765625 92.792969 5.746094 L 92.792969 2.285156 C 93.160156 2.203125 93.5 2.171875 93.949219 2.171875 C 95.464844 2.171875 96.136719 2.683594 96.136719 3.859375 Z M 96.136719 3.859375 "/>
<path style=" stroke:none;fill-rule:nonzero;fill:rgb(0%,0%,0%);fill-opacity:1;" d="M 78.773438 135.609375 C 78.773438 134.039062 77.476562 132.808594 75.824219 132.808594 C 75.289062 132.808594 74.78125 132.949219 74.554688 133.140625 L 73.375 134.238281 L 73.375 132.859375 L 73.234375 132.808594 C 72.507812 133.085938 71.777344 133.308594 71.019531 133.398438 L 71.019531 133.792969 L 71.550781 133.792969 C 72.109375 133.792969 72.167969 133.871094 72.167969 134.832031 L 72.167969 141.992188 C 72.167969 142.890625 72.140625 143.007812 71.636719 143.03125 L 70.992188 143.082031 L 70.992188 143.511719 C 71.578125 143.476562 72.167969 143.457031 72.789062 143.457031 C 73.375 143.457031 73.964844 143.476562 74.554688 143.511719 L 74.554688 143.082031 L 73.914062 143.03125 C 73.40625 143.007812 73.375 142.890625 73.375 141.992188 L 73.375 139.289062 C 73.800781 139.570312 74.246094 139.65625 74.894531 139.65625 C 75.3125 139.65625 75.679688 139.570312 75.90625 139.429688 L 77.535156 138.363281 C 78.125 138 78.773438 136.542969 78.773438 135.609375 Z M 77.535156 136.148438 C 77.535156 137.753906 76.578125 138.929688 75.289062 138.929688 C 74.53125 138.929688 73.941406 138.671875 73.375 138.085938 L 73.375 135.140625 C 73.375 134.917969 73.433594 134.769531 73.628906 134.519531 C 74.050781 133.984375 74.640625 133.730469 75.34375 133.730469 C 76.691406 133.730469 77.535156 134.65625 77.535156 136.148438 Z M 77.535156 136.148438 "/>
<path style=" stroke:none;fill-rule:nonzero;fill:rgb(0%,0%,0%);fill-opacity:1;" d="M 87.636719 139.550781 L 87.636719 139.097656 L 87.042969 139.070312 C 86.539062 139.039062 86.511719 138.960938 86.511719 138.03125 L 86.511719 135.277344 C 86.511719 133.621094 85.726562 132.808594 84.121094 132.808594 C 83.589844 132.808594 83.308594 132.894531 82.996094 133.140625 L 81.902344 134.09375 L 81.902344 129.234375 L 81.792969 129.128906 C 81.144531 129.375 80.699219 129.488281 79.574219 129.660156 L 79.574219 130.050781 L 80.359375 130.050781 C 80.613281 130.050781 80.722656 130.21875 80.722656 130.644531 L 80.722656 138.03125 C 80.722656 138.929688 80.667969 139.039062 80.1875 139.070312 L 79.542969 139.097656 L 79.542969 139.550781 C 80.132812 139.515625 80.722656 139.488281 81.3125 139.488281 C 81.902344 139.488281 82.496094 139.515625 83.082031 139.550781 L 83.082031 139.097656 L 82.4375 139.070312 C 81.957031 139.039062 81.902344 138.929688 81.902344 138.03125 L 81.902344 134.992188 C 81.902344 134.378906 82.855469 133.671875 83.730469 133.671875 C 84.683594 133.671875 85.300781 134.378906 85.300781 135.46875 L 85.300781 139.550781 C 85.667969 139.515625 86.058594 139.488281 86.425781 139.488281 C 86.84375 139.488281 87.214844 139.515625 87.636719 139.550781 Z M 87.636719 139.550781 "/>
<path style=" stroke:none;fill-rule:nonzero;fill:rgb(0%,0%,0%);fill-opacity:1;" d="M 94.476562 139.550781 L 94.476562 139.097656 L 93.910156 139.070312 C 93.578125 139.070312 93.519531 138.960938 93.519531 138.25 L 93.519531 135.644531 C 93.519531 133.566406 92.929688 132.808594 91.273438 132.808594 C 90.652344 132.808594 90.089844 132.949219 89.53125 133.28125 L 88.796875 133.730469 L 88.796875 134.65625 L 89.164062 134.769531 L 89.332031 134.320312 C 89.644531 133.644531 89.78125 133.566406 90.457031 133.566406 C 91.777344 133.566406 92.339844 134.074219 92.394531 135.386719 L 90.960938 135.644531 C 89.023438 136.007812 88.210938 136.652344 88.210938 137.914062 C 88.210938 139.019531 88.882812 139.65625 90.007812 139.65625 C 90.261719 139.65625 90.515625 139.636719 90.628906 139.550781 L 92.394531 138.308594 L 92.3125 139.550781 C 92.679688 139.515625 93.042969 139.488281 93.433594 139.488281 C 93.769531 139.488281 94.136719 139.515625 94.476562 139.550781 Z M 92.394531 137.71875 C 91.972656 138.308594 91.074219 138.84375 90.515625 138.84375 C 89.949219 138.84375 89.449219 138.308594 89.449219 137.71875 C 89.449219 137.183594 89.730469 136.679688 90.148438 136.402344 C 90.515625 136.199219 91.300781 136.007812 92.394531 135.835938 Z M 92.394531 137.71875 "/>
<path style=" stroke:none;fill-rule:nonzero;fill:rgb(0%,0%,0%);fill-opacity:1;" d="M 100.484375 137.386719 C 100.484375 136.9375 100.375 136.59375 100.066406 136.320312 C 99.699219 135.957031 99.222656 135.78125 97.984375 135.554688 C 96.804688 135.328125 96.414062 135.058594 96.414062 134.378906 C 96.414062 133.671875 96.917969 133.28125 97.789062 133.28125 C 98.746094 133.28125 99.476562 133.757812 99.476562 134.429688 L 99.476562 134.769531 L 99.867188 134.769531 C 99.894531 133.933594 99.894531 133.589844 99.953125 133.140625 C 99.195312 132.894531 98.6875 132.808594 98.097656 132.808594 C 96.441406 132.808594 95.429688 133.589844 95.429688 134.851562 C 95.429688 135.554688 95.738281 136.039062 96.386719 136.339844 C 96.777344 136.511719 97.539062 136.734375 98.523438 136.960938 C 99.136719 137.101562 99.421875 137.386719 99.421875 137.945312 C 99.421875 138.703125 98.714844 139.238281 97.707031 139.238281 C 96.636719 139.238281 95.90625 138.757812 95.90625 138.03125 L 95.90625 137.441406 L 95.488281 137.441406 C 95.488281 138.425781 95.429688 138.878906 95.316406 139.429688 C 96.074219 139.691406 96.613281 139.777344 97.285156 139.777344 C 99.136719 139.777344 100.484375 138.792969 100.484375 137.386719 Z M 100.484375 137.386719 "/>
<path style=" stroke:none;fill-rule:nonzero;fill:rgb(0%,0%,0%);fill-opacity:1;" d="M 107.351562 135.503906 C 107.351562 133.871094 106.28125 132.808594 104.675781 132.808594 C 104.144531 132.808594 103.527344 132.972656 102.964844 133.339844 C 101.785156 133.984375 101.308594 134.882812 101.308594 136.367188 C 101.308594 137.269531 101.507812 138.03125 101.925781 138.566406 C 102.460938 139.324219 103.445312 139.777344 104.511719 139.777344 C 105.042969 139.777344 105.574219 139.65625 106.140625 139.410156 C 106.53125 139.238281 106.839844 139.070312 106.898438 138.984375 L 107.179688 138.476562 L 106.984375 138.339844 C 106.085938 138.898438 105.746094 139.019531 105.128906 139.019531 C 104.203125 139.019531 103.445312 138.617188 103.050781 137.914062 C 102.769531 137.441406 102.65625 137.046875 102.628906 136.199219 L 104.734375 136.199219 C 105.71875 136.199219 106.335938 136.179688 107.320312 136.007812 C 107.320312 135.816406 107.351562 135.667969 107.351562 135.503906 Z M 106.054688 135.667969 L 104.457031 135.730469 C 103.808594 135.730469 103.445312 135.695312 102.65625 135.644531 C 102.65625 134.972656 102.710938 134.65625 102.910156 134.296875 C 103.21875 133.644531 103.835938 133.28125 104.511719 133.28125 C 104.988281 133.28125 105.355469 133.449219 105.605469 133.847656 C 105.914062 134.320312 106.054688 134.710938 106.054688 135.667969 Z M 106.054688 135.667969 "/>
<path style=" stroke:none;fill-rule:nonzero;fill:rgb(0%,0%,0%);fill-opacity:1;" d="M 270.558594 116.3125 L 270.558594 115.910156 L 269.875 115.867188 C 269.179688 115.839844 269.046875 115.6875 269.046875 115.039062 L 269.046875 107.421875 L 268.871094 107.351562 C 268.035156 107.789062 267.125 108.179688 265.957031 108.601562 L 266.046875 109.148438 L 266.175781 109.148438 L 267.839844 108.398438 L 267.867188 108.382812 C 267.953125 108.382812 267.972656 108.488281 267.972656 108.808594 L 267.972656 115.039062 C 267.972656 115.6875 267.839844 115.839844 267.144531 115.867188 L 266.421875 115.910156 L 266.421875 116.3125 L 268.542969 116.261719 Z M 270.558594 116.3125 "/>
<path style="fill:none;stroke-width:0.840928;stroke-linecap:butt;stroke-linejoin:miter;stroke:rgb(0%,0%,0%);stroke-opacity:1;stroke-miterlimit:10;" d="M 262.487342 -123.315965 L 274.852665 -123.315965 " transform="matrix(0.996044,0,0,-0.996044,0.652624,0)"/>
<path style=" stroke:none;fill-rule:nonzero;fill:rgb(0%,0%,0%);fill-opacity:1;" d="M 270.722656 126.726562 L 267.109375 126.761719 L 263.5 126.726562 L 263.253906 128.847656 L 263.628906 128.847656 L 263.824219 128.054688 C 263.890625 127.792969 263.976562 127.574219 264.039062 127.492188 C 264.132812 127.398438 264.617188 127.308594 265.09375 127.308594 L 266.519531 127.308594 L 265.425781 134.019531 C 265.226562 135.171875 265.207031 135.21875 264.683594 135.269531 L 264.019531 135.285156 L 263.976562 135.660156 L 265.796875 135.609375 L 267.503906 135.660156 L 267.546875 135.285156 L 266.78125 135.269531 C 266.449219 135.238281 266.324219 135.136719 266.324219 134.867188 C 266.324219 134.738281 266.324219 134.691406 266.367188 134.421875 L 267.597656 127.308594 L 268.507812 127.308594 C 269.519531 127.308594 269.976562 127.375 270.023438 127.527344 C 270.066406 127.644531 270.085938 127.878906 270.066406 128.019531 L 270.023438 128.847656 L 270.371094 128.847656 Z M 270.722656 126.726562 "/>
<path style=" stroke:none;fill-rule:nonzero;fill:rgb(0%,0%,0%);fill-opacity:1;" d="M 273 138.050781 L 272.910156 137.867188 L 272.632812 138.050781 C 272.324219 138.21875 272.101562 138.320312 271.992188 138.320312 C 271.925781 138.320312 271.863281 138.238281 271.863281 138.132812 C 271.863281 138.050781 271.882812 137.953125 271.925781 137.761719 L 272.734375 134.867188 C 272.777344 134.691406 272.804688 134.605469 272.804688 134.519531 C 272.804688 134.367188 272.714844 134.273438 272.542969 134.273438 C 272.324219 134.273438 271.925781 134.449219 271.164062 134.980469 L 270.851562 135.171875 L 270.945312 135.347656 L 271.269531 135.148438 C 271.578125 134.980469 271.664062 134.929688 271.773438 134.929688 C 271.863281 134.929688 271.925781 135.015625 271.925781 135.136719 C 271.925781 135.21875 271.90625 135.414062 271.863281 135.539062 L 271.183594 137.84375 C 271.070312 138.132812 271.050781 138.363281 271.050781 138.566406 C 271.050781 138.792969 271.164062 138.941406 271.359375 138.941406 C 271.621094 138.941406 271.992188 138.722656 273 138.050781 Z M 273.261719 132.878906 C 273.261719 132.660156 273.109375 132.476562 272.890625 132.476562 C 272.582031 132.476562 272.28125 132.808594 272.28125 133.121094 C 272.28125 133.347656 272.457031 133.503906 272.714844 133.503906 C 273.023438 133.503906 273.261719 133.25 273.261719 132.878906 Z M 273.261719 132.878906 "/>
</g>
</svg>
