<?xml version="1.0" encoding="UTF-8"?>
<svg xmlns="http://www.w3.org/2000/svg" xmlns:xlink="http://www.w3.org/1999/xlink" width="275pt" height="90pt" viewBox="0 0 275 90" version="1.2">
<defs>
<clipPath id="clip1">
  <rect x="0" y="0" width="275" height="90"/>
</clipPath>
<g id="surface5" clip-path="url(#clip1)">
<path style="fill:none;stroke-width:0.75;stroke-linecap:butt;stroke-linejoin:miter;stroke:rgb(0%,0%,0%);stroke-opacity:1;stroke-miterlimit:4;" d="M 32.171875 -18.378906 L 49.417969 -18.378906 " transform="matrix(1,0,0,-1,-32,-11)"/>
<path style="fill-rule:nonzero;fill:rgb(100%,100%,100%);fill-opacity:1;stroke-width:0.75;stroke-linecap:round;stroke-linejoin:bevel;stroke:rgb(0%,0%,0%);stroke-opacity:1;stroke-miterlimit:4;" d="M 49.355469 11.820312 L 74.988281 11.820312 L 74.988281 37.507812 L 49.355469 37.507812 Z M 49.355469 11.820312 " transform="matrix(1,0,0,1,-32,-11)"/>
<path style="fill:none;stroke-width:0.75;stroke-linecap:butt;stroke-linejoin:miter;stroke:rgb(0%,0%,0%);stroke-opacity:1;stroke-miterlimit:4;" d="M 49.238281 -31.460938 L 36.097656 -31.460938 L 36.097656 -43.535156 L 92.808594 -76.277344 L 92.808594 -87.863281 " transform="matrix(1,0,0,-1,-32,-11)"/>
<path style="fill:none;stroke-width:0.75;stroke-linecap:butt;stroke-linejoin:miter;stroke:rgb(0%,0%,0%);stroke-opacity:1;stroke-miterlimit:4;" d="M 49.238281 -80.84375 L 36.097656 -80.84375 L 36.097656 -68.773438 L 92.808594 -36.027344 L 92.808594 -24.445312 " transform="matrix(1,0,0,-1,-32,-11)"/>
<path style="fill:none;stroke-width:0.75;stroke-linecap:butt;stroke-linejoin:miter;stroke:rgb(0%,0%,0%);stroke-opacity:1;stroke-miterlimit:4;" d="M 32.171875 -93.875 L 49.238281 -93.875 " transform="matrix(1,0,0,-1,-32,-11)"/>
<path style="fill:none;stroke-width:0.75;stroke-linecap:butt;stroke-linejoin:miter;stroke:rgb(0%,0%,0%);stroke-opacity:1;stroke-miterlimit:4;" d="M 81.53125 -87.820312 L 131.148438 -87.820312 " transform="matrix(1,0,0,-1,-32,-11)"/>
<path style="fill:none;stroke-width:0.75;stroke-linecap:butt;stroke-linejoin:miter;stroke:rgb(0%,0%,0%);stroke-opacity:1;stroke-miterlimit:4;" d="M 81.617188 -24.664062 L 131.191406 -24.664062 " transform="matrix(1,0,0,-1,-32,-11)"/>
<path style="fill-rule:nonzero;fill:rgb(100%,100%,100%);fill-opacity:1;stroke-width:0.75;stroke-linecap:round;stroke-linejoin:bevel;stroke:rgb(0%,0%,0%);stroke-opacity:1;stroke-miterlimit:4;" d="M 49.355469 74.929688 L 74.988281 74.929688 L 74.988281 100.621094 L 49.355469 100.621094 Z M 49.355469 74.929688 " transform="matrix(1,0,0,1,-32,-11)"/>
<path style="fill-rule:nonzero;fill:rgb(100%,100%,100%);fill-opacity:1;stroke-width:0.75;stroke-linecap:round;stroke-linejoin:bevel;stroke:rgb(0%,0%,0%);stroke-opacity:1;stroke-miterlimit:4;" d="M 81.289062 87.777344 C 81.289062 89.492188 79.898438 90.882812 78.179688 90.882812 C 76.464844 90.882812 75.074219 89.492188 75.074219 87.777344 C 75.074219 86.058594 76.464844 84.667969 78.179688 84.667969 C 79.898438 84.667969 81.289062 86.058594 81.289062 87.777344 Z M 81.289062 87.777344 " transform="matrix(1,0,0,1,-32,-11)"/>
<path style="fill-rule:nonzero;fill:rgb(100%,100%,100%);fill-opacity:1;stroke-width:0.75;stroke-linecap:round;stroke-linejoin:bevel;stroke:rgb(0%,0%,0%);stroke-opacity:1;stroke-miterlimit:4;" d="M 81.289062 24.664062 C 81.289062 26.378906 79.898438 27.769531 78.179688 27.769531 C 76.464844 27.769531 75.074219 26.378906 75.074219 24.664062 C 75.074219 22.945312 76.464844 21.554688 78.179688 21.554688 C 79.898438 21.554688 81.289062 22.945312 81.289062 24.664062 Z M 81.289062 24.664062 " transform="matrix(1,0,0,1,-32,-11)"/>
<path style=" stroke:none;fill-rule:nonzero;fill:rgb(0%,0%,0%);fill-opacity:1;" d="M 6.335938 3.695312 C 6.335938 3.398438 6.257812 3.164062 6.054688 2.976562 C 5.804688 2.710938 5.476562 2.601562 4.617188 2.445312 C 3.804688 2.273438 3.539062 2.085938 3.539062 1.632812 C 3.539062 1.132812 3.882812 0.851562 4.476562 0.851562 C 5.148438 0.851562 5.648438 1.210938 5.648438 1.664062 L 5.648438 1.898438 L 5.929688 1.898438 C 5.929688 1.320312 5.945312 1.085938 5.976562 0.773438 C 5.445312 0.601562 5.085938 0.539062 4.695312 0.539062 C 3.539062 0.539062 2.835938 1.070312 2.835938 1.960938 C 2.835938 2.445312 3.054688 2.773438 3.507812 2.976562 C 3.773438 3.101562 4.304688 3.257812 4.976562 3.414062 C 5.414062 3.507812 5.601562 3.710938 5.601562 4.085938 C 5.601562 4.617188 5.117188 4.992188 4.414062 4.992188 C 3.695312 4.992188 3.179688 4.648438 3.179688 4.164062 L 3.179688 3.757812 L 2.882812 3.757812 C 2.882812 4.429688 2.851562 4.726562 2.773438 5.117188 C 3.289062 5.289062 3.664062 5.367188 4.132812 5.367188 C 5.414062 5.367188 6.335938 4.664062 6.335938 3.695312 Z M 6.335938 3.695312 "/>
<path style=" stroke:none;fill-rule:nonzero;fill:rgb(0%,0%,0%);fill-opacity:1;" d="M 6.164062 76.605469 C 6.054688 76.527344 5.882812 76.496094 5.710938 76.496094 C 5.414062 76.496094 5.085938 76.652344 4.882812 76.902344 L 4.335938 77.542969 L 4.335938 76.527344 L 4.242188 76.496094 C 3.742188 76.699219 3.226562 76.839844 2.710938 76.902344 L 2.710938 77.167969 L 3.070312 77.167969 C 3.460938 77.167969 3.507812 77.246094 3.507812 77.886719 L 3.507812 80.121094 C 3.507812 80.730469 3.476562 80.808594 3.132812 80.824219 L 2.679688 80.855469 L 2.679688 81.152344 C 3.085938 81.136719 3.492188 81.121094 3.898438 81.121094 C 4.367188 81.121094 4.835938 81.136719 5.304688 81.152344 L 5.304688 80.855469 L 4.804688 80.824219 C 4.351562 80.792969 4.335938 80.761719 4.335938 80.121094 L 4.335938 78.417969 C 4.335938 77.824219 4.726562 77.324219 5.210938 77.324219 C 5.507812 77.324219 5.710938 77.464844 5.867188 77.777344 L 6.085938 77.777344 Z M 6.164062 76.605469 "/>
<path style=" stroke:none;fill-rule:nonzero;fill:rgb(0%,0%,0%);fill-opacity:1;" d="M 93.039062 11.347656 L 93.039062 11.144531 C 92.648438 11.191406 92.539062 11.191406 92.460938 11.191406 C 91.976562 11.191406 91.429688 11.050781 90.648438 10.707031 C 90.039062 10.441406 89.867188 10.394531 89.445312 10.347656 C 90.226562 10.285156 90.601562 10.175781 91.117188 9.878906 C 92.304688 9.207031 93.039062 7.925781 93.039062 6.503906 C 93.039062 4.457031 91.632812 3.160156 89.429688 3.160156 C 87.210938 3.160156 85.710938 4.613281 85.710938 6.769531 C 85.710938 8.941406 87.085938 10.347656 89.210938 10.347656 L 89.164062 10.363281 C 88.976562 10.441406 88.648438 10.691406 88.085938 11.113281 L 88.070312 11.441406 L 88.648438 11.113281 C 88.773438 11.066406 88.835938 11.035156 88.929688 11.035156 C 89.117188 11.035156 89.398438 11.082031 89.695312 11.191406 L 91.164062 11.644531 C 91.507812 11.753906 91.804688 11.816406 92.210938 11.894531 Z M 91.976562 6.847656 C 91.976562 8.832031 91.117188 9.925781 89.554688 9.925781 C 88.726562 9.925781 88.054688 9.613281 87.554688 9.003906 C 87.054688 8.378906 86.773438 7.441406 86.773438 6.457031 C 86.773438 4.597656 87.664062 3.566406 89.289062 3.566406 C 90.992188 3.566406 91.976562 4.785156 91.976562 6.847656 Z M 91.976562 6.847656 "/>
<path style=" stroke:none;fill-rule:nonzero;fill:rgb(0%,0%,0%);fill-opacity:1;" d="M 97.371094 10.191406 L 97.371094 9.894531 L 96.855469 9.863281 C 96.324219 9.832031 96.214844 9.722656 96.214844 9.207031 L 96.214844 3.363281 L 96.074219 3.300781 C 95.433594 3.644531 94.730469 3.941406 93.839844 4.253906 L 93.902344 4.675781 L 94.011719 4.675781 L 95.277344 4.113281 L 95.308594 4.097656 C 95.371094 4.097656 95.386719 4.191406 95.386719 4.425781 L 95.386719 9.207031 C 95.386719 9.722656 95.277344 9.832031 94.746094 9.863281 L 94.199219 9.894531 L 94.199219 10.191406 C 94.730469 10.175781 95.277344 10.160156 95.824219 10.160156 C 96.339844 10.160156 96.855469 10.175781 97.371094 10.191406 Z M 97.371094 10.191406 "/>
<path style=" stroke:none;fill-rule:nonzero;fill:rgb(0%,0%,0%);fill-opacity:1;" d="M 93.039062 74.25 L 93.039062 74.046875 C 92.648438 74.09375 92.539062 74.09375 92.460938 74.09375 C 91.976562 74.09375 91.429688 73.953125 90.648438 73.609375 C 90.039062 73.34375 89.867188 73.296875 89.445312 73.25 C 90.226562 73.1875 90.601562 73.078125 91.117188 72.78125 C 92.304688 72.109375 93.039062 70.828125 93.039062 69.40625 C 93.039062 67.359375 91.632812 66.0625 89.429688 66.0625 C 87.210938 66.0625 85.710938 67.515625 85.710938 69.671875 C 85.710938 71.84375 87.085938 73.25 89.210938 73.25 L 89.164062 73.265625 C 88.976562 73.34375 88.648438 73.59375 88.085938 74.015625 L 88.070312 74.34375 L 88.648438 74.015625 C 88.773438 73.96875 88.835938 73.9375 88.929688 73.9375 C 89.117188 73.9375 89.398438 73.984375 89.695312 74.09375 L 91.164062 74.546875 C 91.507812 74.65625 91.804688 74.71875 92.210938 74.796875 Z M 91.976562 69.75 C 91.976562 71.734375 91.117188 72.828125 89.554688 72.828125 C 88.726562 72.828125 88.054688 72.515625 87.554688 71.90625 C 87.054688 71.28125 86.773438 70.34375 86.773438 69.359375 C 86.773438 67.5 87.664062 66.46875 89.289062 66.46875 C 90.992188 66.46875 91.976562 67.6875 91.976562 69.75 Z M 91.976562 69.75 "/>
<path style=" stroke:none;fill-rule:nonzero;fill:rgb(0%,0%,0%);fill-opacity:1;" d="M 97.871094 73.09375 C 97.855469 72.890625 97.855469 72.78125 97.855469 72.640625 C 97.855469 72.515625 97.855469 72.421875 97.871094 72.203125 L 94.449219 72.296875 L 96.246094 70.390625 C 97.199219 69.375 97.496094 68.84375 97.496094 68.09375 C 97.496094 66.953125 96.730469 66.265625 95.480469 66.265625 C 94.761719 66.265625 94.277344 66.453125 93.792969 66.953125 L 93.636719 68.296875 L 93.917969 68.296875 L 94.042969 67.84375 C 94.199219 67.265625 94.558594 67.015625 95.214844 67.015625 C 96.074219 67.015625 96.621094 67.546875 96.621094 68.390625 C 96.621094 69.125 96.199219 69.859375 95.089844 71.046875 L 93.402344 72.828125 L 93.402344 73.09375 C 94.136719 73.078125 94.871094 73.0625 95.605469 73.0625 C 96.355469 73.0625 97.121094 73.078125 97.871094 73.09375 Z M 97.871094 73.09375 "/>
<path style=" stroke:none;fill-rule:nonzero;fill:rgb(0%,0%,0%);fill-opacity:1;" d="M 29.945312 77.164062 L 29.945312 76.351562 L 22.867188 73.195312 L 22.867188 74.164062 L 28.710938 76.757812 L 22.867188 79.351562 L 22.867188 80.320312 Z M 29.773438 82.367188 L 29.773438 81.492188 L 22.867188 81.492188 L 22.867188 82.367188 Z M 29.773438 82.367188 "/>
<path style=" stroke:none;fill-rule:nonzero;fill:rgb(0%,0%,0%);fill-opacity:1;" d="M 37.472656 81.976562 L 37.472656 81.507812 L 36.675781 81.460938 C 35.816406 81.414062 35.660156 81.242188 35.660156 80.445312 L 35.660156 71.257812 L 35.441406 71.179688 C 34.441406 71.710938 33.347656 72.179688 31.925781 72.664062 L 32.035156 73.335938 L 32.191406 73.335938 L 34.191406 72.445312 L 34.238281 72.429688 C 34.332031 72.429688 34.363281 72.554688 34.363281 72.929688 L 34.363281 80.445312 C 34.363281 81.242188 34.191406 81.414062 33.363281 81.460938 L 32.488281 81.507812 L 32.488281 81.976562 C 33.347656 81.945312 34.191406 81.929688 35.050781 81.929688 C 35.847656 81.929688 36.675781 81.945312 37.472656 81.976562 Z M 37.472656 81.976562 "/>
<path style=" stroke:none;fill-rule:nonzero;fill:rgb(0%,0%,0%);fill-opacity:1;" d="M 29.945312 14.050781 L 29.945312 13.238281 L 22.867188 10.082031 L 22.867188 11.050781 L 28.710938 13.644531 L 22.867188 16.238281 L 22.867188 17.207031 Z M 29.773438 19.253906 L 29.773438 18.378906 L 22.867188 18.378906 L 22.867188 19.253906 Z M 29.773438 19.253906 "/>
<path style=" stroke:none;fill-rule:nonzero;fill:rgb(0%,0%,0%);fill-opacity:1;" d="M 37.472656 18.863281 L 37.472656 18.394531 L 36.675781 18.347656 C 35.816406 18.300781 35.660156 18.128906 35.660156 17.332031 L 35.660156 8.144531 L 35.441406 8.066406 C 34.441406 8.597656 33.347656 9.066406 31.925781 9.550781 L 32.035156 10.222656 L 32.191406 10.222656 L 34.191406 9.332031 L 34.238281 9.316406 C 34.332031 9.316406 34.363281 9.441406 34.363281 9.816406 L 34.363281 17.332031 C 34.363281 18.128906 34.191406 18.300781 33.363281 18.347656 L 32.488281 18.394531 L 32.488281 18.863281 C 33.347656 18.832031 34.191406 18.816406 35.050781 18.816406 C 35.847656 18.816406 36.675781 18.832031 37.472656 18.863281 Z M 37.472656 18.863281 "/>
<path style=" stroke:none;fill-rule:nonzero;fill:rgb(0%,0%,0%);fill-opacity:1;" d="M 152.609375 77.972656 L 152.609375 63.328125 L 153.359375 63.328125 L 153.359375 77.222656 L 272.984375 77.222656 L 272.984375 77.972656 Z M 152.609375 77.972656 "/>
<path style="fill-rule:evenodd;fill:rgb(0%,0%,0%);fill-opacity:1;stroke-width:0.4;stroke-linecap:butt;stroke-linejoin:miter;stroke:rgb(0%,0%,0%);stroke-opacity:1;stroke-miterlimit:4;" d="M 184.980469 -77.328125 L 183.480469 -78.828125 L 184.980469 -73.578125 L 186.480469 -78.828125 Z M 184.980469 -77.328125 " transform="matrix(1,0,0,-1,-32,-11)"/>
<path style=" stroke:none;fill-rule:nonzero;fill:rgb(0%,0%,0%);fill-opacity:1;" d="M 152.609375 57.398438 L 152.609375 42.75 L 153.359375 42.75 L 153.359375 56.648438 L 272.984375 56.648438 L 272.984375 57.398438 Z M 152.609375 57.398438 "/>
<path style="fill-rule:evenodd;fill:rgb(0%,0%,0%);fill-opacity:1;stroke-width:0.4;stroke-linecap:butt;stroke-linejoin:miter;stroke:rgb(0%,0%,0%);stroke-opacity:1;stroke-miterlimit:4;" d="M 184.980469 -56.753906 L 183.480469 -58.253906 L 184.980469 -53.003906 L 186.480469 -58.253906 Z M 184.980469 -56.753906 " transform="matrix(1,0,0,-1,-32,-11)"/>
<path style=" stroke:none;fill-rule:nonzero;fill:rgb(0%,0%,0%);fill-opacity:1;" d="M 152.609375 37.65625 L 152.609375 23.007812 L 153.359375 23.007812 L 153.359375 36.90625 L 272.984375 36.90625 L 272.984375 37.65625 Z M 152.609375 37.65625 "/>
<path style="fill-rule:evenodd;fill:rgb(0%,0%,0%);fill-opacity:1;stroke-width:0.4;stroke-linecap:butt;stroke-linejoin:miter;stroke:rgb(0%,0%,0%);stroke-opacity:1;stroke-miterlimit:4;" d="M 184.980469 -37.011719 L 183.480469 -38.511719 L 184.980469 -33.261719 L 186.480469 -38.511719 Z M 184.980469 -37.011719 " transform="matrix(1,0,0,-1,-32,-11)"/>
<path style=" stroke:none;fill-rule:nonzero;fill:rgb(0%,0%,0%);fill-opacity:1;" d="M 152.609375 17.082031 L 152.609375 2.433594 L 153.359375 2.433594 L 153.359375 16.332031 L 272.984375 16.332031 L 272.984375 17.082031 Z M 152.609375 17.082031 "/>
<path style="fill-rule:evenodd;fill:rgb(0%,0%,0%);fill-opacity:1;stroke-width:0.4;stroke-linecap:butt;stroke-linejoin:miter;stroke:rgb(0%,0%,0%);stroke-opacity:1;stroke-miterlimit:4;" d="M 184.980469 -16.433594 L 183.480469 -17.933594 L 184.980469 -12.683594 L 186.480469 -17.933594 Z M 184.980469 -16.433594 " transform="matrix(1,0,0,-1,-32,-11)"/>
<path style=" stroke:none;fill-rule:nonzero;fill:rgb(0%,0%,0%);fill-opacity:1;" d="M 140.9375 58.390625 L 140.9375 58.1875 C 140.546875 58.234375 140.4375 58.234375 140.359375 58.234375 C 139.875 58.234375 139.328125 58.09375 138.546875 57.75 C 137.9375 57.484375 137.765625 57.4375 137.34375 57.390625 C 138.125 57.328125 138.5 57.21875 139.015625 56.921875 C 140.203125 56.25 140.9375 54.96875 140.9375 53.546875 C 140.9375 51.5 139.53125 50.203125 137.328125 50.203125 C 135.109375 50.203125 133.609375 51.65625 133.609375 53.8125 C 133.609375 55.984375 134.984375 57.390625 137.109375 57.390625 L 137.0625 57.40625 C 136.875 57.484375 136.546875 57.734375 135.984375 58.15625 L 135.96875 58.484375 L 136.546875 58.15625 C 136.671875 58.109375 136.734375 58.078125 136.828125 58.078125 C 137.015625 58.078125 137.296875 58.125 137.59375 58.234375 L 139.0625 58.6875 C 139.40625 58.796875 139.703125 58.859375 140.109375 58.9375 Z M 139.875 53.890625 C 139.875 55.875 139.015625 56.96875 137.453125 56.96875 C 136.625 56.96875 135.953125 56.65625 135.453125 56.046875 C 134.953125 55.421875 134.671875 54.484375 134.671875 53.5 C 134.671875 51.640625 135.5625 50.609375 137.1875 50.609375 C 138.890625 50.609375 139.875 51.828125 139.875 53.890625 Z M 139.875 53.890625 "/>
<path style=" stroke:none;fill-rule:nonzero;fill:rgb(0%,0%,0%);fill-opacity:1;" d="M 145.269531 57.234375 L 145.269531 56.9375 L 144.753906 56.90625 C 144.222656 56.875 144.113281 56.765625 144.113281 56.25 L 144.113281 50.40625 L 143.972656 50.34375 C 143.332031 50.6875 142.628906 50.984375 141.738281 51.296875 L 141.800781 51.71875 L 141.910156 51.71875 L 143.175781 51.15625 L 143.207031 51.140625 C 143.269531 51.140625 143.285156 51.234375 143.285156 51.46875 L 143.285156 56.25 C 143.285156 56.765625 143.175781 56.875 142.644531 56.90625 L 142.097656 56.9375 L 142.097656 57.234375 C 142.628906 57.21875 143.175781 57.203125 143.722656 57.203125 C 144.238281 57.203125 144.753906 57.21875 145.269531 57.234375 Z M 145.269531 57.234375 "/>
<path style=" stroke:none;fill-rule:nonzero;fill:rgb(0%,0%,0%);fill-opacity:1;" d="M 140.691406 79.183594 L 140.691406 78.980469 C 140.300781 79.027344 140.191406 79.027344 140.113281 79.027344 C 139.628906 79.027344 139.082031 78.886719 138.300781 78.542969 C 137.691406 78.277344 137.519531 78.230469 137.097656 78.183594 C 137.878906 78.121094 138.253906 78.011719 138.769531 77.714844 C 139.957031 77.042969 140.691406 75.761719 140.691406 74.339844 C 140.691406 72.292969 139.285156 70.996094 137.082031 70.996094 C 134.863281 70.996094 133.363281 72.449219 133.363281 74.605469 C 133.363281 76.777344 134.738281 78.183594 136.863281 78.183594 L 136.816406 78.199219 C 136.628906 78.277344 136.300781 78.527344 135.738281 78.949219 L 135.722656 79.277344 L 136.300781 78.949219 C 136.425781 78.902344 136.488281 78.871094 136.582031 78.871094 C 136.769531 78.871094 137.050781 78.917969 137.347656 79.027344 L 138.816406 79.480469 C 139.160156 79.589844 139.457031 79.652344 139.863281 79.730469 Z M 139.628906 74.683594 C 139.628906 76.667969 138.769531 77.761719 137.207031 77.761719 C 136.378906 77.761719 135.707031 77.449219 135.207031 76.839844 C 134.707031 76.214844 134.425781 75.277344 134.425781 74.292969 C 134.425781 72.433594 135.316406 71.402344 136.941406 71.402344 C 138.644531 71.402344 139.628906 72.621094 139.628906 74.683594 Z M 139.628906 74.683594 "/>
<path style=" stroke:none;fill-rule:nonzero;fill:rgb(0%,0%,0%);fill-opacity:1;" d="M 145.523438 78.027344 C 145.507812 77.824219 145.507812 77.714844 145.507812 77.574219 C 145.507812 77.449219 145.507812 77.355469 145.523438 77.136719 L 142.101562 77.230469 L 143.898438 75.324219 C 144.851562 74.308594 145.148438 73.777344 145.148438 73.027344 C 145.148438 71.886719 144.382812 71.199219 143.132812 71.199219 C 142.414062 71.199219 141.929688 71.386719 141.445312 71.886719 L 141.289062 73.230469 L 141.570312 73.230469 L 141.695312 72.777344 C 141.851562 72.199219 142.210938 71.949219 142.867188 71.949219 C 143.726562 71.949219 144.273438 72.480469 144.273438 73.324219 C 144.273438 74.058594 143.851562 74.792969 142.742188 75.980469 L 141.054688 77.761719 L 141.054688 78.027344 C 141.789062 78.011719 142.523438 77.996094 143.257812 77.996094 C 144.007812 77.996094 144.773438 78.011719 145.523438 78.027344 Z M 145.523438 78.027344 "/>
<path style=" stroke:none;fill-rule:nonzero;fill:rgb(0%,0%,0%);fill-opacity:1;" d="M 145.316406 35.125 C 145.316406 34.828125 145.238281 34.59375 145.035156 34.40625 C 144.785156 34.140625 144.457031 34.03125 143.597656 33.875 C 142.785156 33.703125 142.519531 33.515625 142.519531 33.0625 C 142.519531 32.5625 142.863281 32.28125 143.457031 32.28125 C 144.128906 32.28125 144.628906 32.640625 144.628906 33.09375 L 144.628906 33.328125 L 144.910156 33.328125 C 144.910156 32.75 144.925781 32.515625 144.957031 32.203125 C 144.425781 32.03125 144.066406 31.96875 143.675781 31.96875 C 142.519531 31.96875 141.816406 32.5 141.816406 33.390625 C 141.816406 33.875 142.035156 34.203125 142.488281 34.40625 C 142.753906 34.53125 143.285156 34.6875 143.957031 34.84375 C 144.394531 34.9375 144.582031 35.140625 144.582031 35.515625 C 144.582031 36.046875 144.097656 36.421875 143.394531 36.421875 C 142.675781 36.421875 142.160156 36.078125 142.160156 35.59375 L 142.160156 35.1875 L 141.863281 35.1875 C 141.863281 35.859375 141.832031 36.15625 141.753906 36.546875 C 142.269531 36.71875 142.644531 36.796875 143.113281 36.796875 C 144.394531 36.796875 145.316406 36.09375 145.316406 35.125 Z M 145.316406 35.125 "/>
<path style=" stroke:none;fill-rule:nonzero;fill:rgb(0%,0%,0%);fill-opacity:1;" d="M 145.273438 11.492188 C 145.164062 11.414062 144.992188 11.382812 144.820312 11.382812 C 144.523438 11.382812 144.195312 11.539062 143.992188 11.789062 L 143.445312 12.429688 L 143.445312 11.414062 L 143.351562 11.382812 C 142.851562 11.585938 142.335938 11.726562 141.820312 11.789062 L 141.820312 12.054688 L 142.179688 12.054688 C 142.570312 12.054688 142.617188 12.132812 142.617188 12.773438 L 142.617188 15.007812 C 142.617188 15.617188 142.585938 15.695312 142.242188 15.710938 L 141.789062 15.742188 L 141.789062 16.039062 C 142.195312 16.023438 142.601562 16.007812 143.007812 16.007812 C 143.476562 16.007812 143.945312 16.023438 144.414062 16.039062 L 144.414062 15.742188 L 143.914062 15.710938 C 143.460938 15.679688 143.445312 15.648438 143.445312 15.007812 L 143.445312 13.304688 C 143.445312 12.710938 143.835938 12.210938 144.320312 12.210938 C 144.617188 12.210938 144.820312 12.351562 144.976562 12.664062 L 145.195312 12.664062 Z M 145.273438 11.492188 "/>
<path style="fill:none;stroke-width:1.125;stroke-linecap:butt;stroke-linejoin:miter;stroke:rgb(0%,0%,50.195312%);stroke-opacity:1;stroke-miterlimit:4;" d="M 184.980469 -88.242188 L 195.320312 -88.242188 L 195.320312 -78.0625 L 215.335938 -78.0625 L 215.335938 -88.40625 L 246.03125 -88.40625 L 246.03125 -77.894531 L 266.214844 -77.894531 L 266.214844 -88.152344 L 301.703125 -88.152344 " transform="matrix(1,0,0,-1,-32,-11)"/>
<path style="fill:none;stroke-width:1.125;stroke-linecap:butt;stroke-linejoin:miter;stroke:rgb(0%,0%,50.195312%);stroke-opacity:1;stroke-miterlimit:4;" d="M 184.863281 -57.726562 L 195.269531 -57.726562 L 195.269531 -67.835938 L 215.605469 -67.835938 L 215.605469 -58.441406 L 235.410156 -58.441406 L 235.410156 -67.71875 L 287.144531 -67.71875 L 287.144531 -58.679688 L 302.84375 -58.679688 " transform="matrix(1,0,0,-1,-32,-11)"/>
<path style="fill:none;stroke-width:1.125;stroke-linecap:butt;stroke-linejoin:miter;stroke:rgb(0%,0%,50.195312%);stroke-opacity:1;stroke-miterlimit:4;" d="M 184.890625 -47.910156 L 195.25 -47.910156 L 195.25 -37.691406 L 205.28125 -37.691406 L 205.28125 -48.003906 L 235.890625 -48.003906 L 235.890625 -37.691406 L 256.28125 -37.691406 L 256.28125 -47.957031 L 266.3125 -47.957031 L 266.3125 -37.691406 L 276.859375 -37.691406 L 276.859375 -47.769531 L 301.515625 -47.769531 " transform="matrix(1,0,0,-1,-32,-11)"/>
<path style="fill:none;stroke-width:1.125;stroke-linecap:butt;stroke-linejoin:miter;stroke:rgb(0%,0%,50.195312%);stroke-opacity:1;stroke-miterlimit:4;" d="M 184.957031 -27.503906 L 215.484375 -27.503906 L 215.484375 -17.460938 L 225.761719 -17.460938 L 225.761719 -27.503906 L 235.738281 -27.503906 L 235.738281 -17.394531 L 246.246094 -17.394531 L 246.246094 -27.503906 L 266.332031 -27.503906 L 266.332031 -17.460938 L 286.714844 -17.460938 L 286.714844 -27.503906 L 303.621094 -27.503906 " transform="matrix(1,0,0,-1,-32,-11)"/>
<path style="fill-rule:evenodd;fill:rgb(0%,0%,0%);fill-opacity:1;stroke-width:0.4;stroke-linecap:butt;stroke-linejoin:miter;stroke:rgb(0%,0%,0%);stroke-opacity:1;stroke-miterlimit:4;" d="M 301.984375 -88.601562 L 300.484375 -87.101562 L 305.734375 -88.601562 L 300.484375 -90.101562 Z M 301.984375 -88.601562 " transform="matrix(1,0,0,-1,-32,-11)"/>
<path style="fill-rule:evenodd;fill:rgb(0%,0%,0%);fill-opacity:1;stroke-width:0.4;stroke-linecap:butt;stroke-linejoin:miter;stroke:rgb(0%,0%,0%);stroke-opacity:1;stroke-miterlimit:4;" d="M 301.984375 -68.023438 L 300.484375 -66.523438 L 305.734375 -68.023438 L 300.484375 -69.523438 Z M 301.984375 -68.023438 " transform="matrix(1,0,0,-1,-32,-11)"/>
<path style="fill-rule:evenodd;fill:rgb(0%,0%,0%);fill-opacity:1;stroke-width:0.4;stroke-linecap:butt;stroke-linejoin:miter;stroke:rgb(0%,0%,0%);stroke-opacity:1;stroke-miterlimit:4;" d="M 301.984375 -48.28125 L 300.484375 -46.78125 L 305.734375 -48.28125 L 300.484375 -49.78125 Z M 301.984375 -48.28125 " transform="matrix(1,0,0,-1,-32,-11)"/>
<path style="fill-rule:evenodd;fill:rgb(0%,0%,0%);fill-opacity:1;stroke-width:0.4;stroke-linecap:butt;stroke-linejoin:miter;stroke:rgb(0%,0%,0%);stroke-opacity:1;stroke-miterlimit:4;" d="M 301.984375 -27.707031 L 300.484375 -26.207031 L 305.734375 -27.707031 L 300.484375 -29.207031 Z M 301.984375 -27.707031 " transform="matrix(1,0,0,-1,-32,-11)"/>
</g>
</defs>
<g id="surface1">
<use xlink:href="#surface5"/>
</g>
</svg>
