<?xml version="1.0" encoding="UTF-8"?>
<svg xmlns="http://www.w3.org/2000/svg" xmlns:xlink="http://www.w3.org/1999/xlink" width="429.609741pt" height="109.37175pt" viewBox="0 0 429.609741 109.37175" version="1.2">
<defs>
<clipPath id="clip1">
  <path d="M 1.03125 0 L 420 0 L 420 104 L 1.03125 104 Z M 1.03125 0 "/>
</clipPath>
<clipPath id="clip2">
  <path d="M 1.03125 56 L 427 56 L 427 58 L 1.03125 58 Z M 1.03125 56 "/>
</clipPath>
<clipPath id="clip3">
  <path d="M 414 50 L 428.1875 50 L 428.1875 64 L 414 64 Z M 414 50 "/>
</clipPath>
<clipPath id="clip4">
  <path d="M 1.03125 71 L 347 71 L 347 73 L 1.03125 73 Z M 1.03125 71 "/>
</clipPath>
<clipPath id="clip5">
  <path d="M 353 102 L 359 102 L 359 108.746094 L 353 108.746094 Z M 353 102 "/>
</clipPath>
</defs>
<g id="surface1">
<g clip-path="url(#clip1)" clip-rule="nonzero">
<path style="fill:none;stroke-width:1.345374;stroke-linecap:butt;stroke-linejoin:miter;stroke:rgb(0%,0%,50.195312%);stroke-opacity:1;stroke-miterlimit:4;" d="M 0.79988 0.667877 L 315.503517 33.908508 L 412.903554 96.846092 " transform="matrix(0.994289,0,0,0.994289,1.032814,0)"/>
</g>
<g clip-path="url(#clip2)" clip-rule="nonzero">
<path style="fill:none;stroke-width:1.345374;stroke-linecap:butt;stroke-linejoin:miter;stroke:rgb(0%,0%,0%);stroke-opacity:1;stroke-miterlimit:4;" d="M 0.520943 57.099554 L 427.478987 57.099554 " transform="matrix(0.994289,0,0,0.994289,1.032814,0)"/>
</g>
<path style=" stroke:none;fill-rule:evenodd;fill:rgb(0%,0%,0%);fill-opacity:1;" d="M 420.71875 56.773438 L 418.042969 59.449219 L 427.40625 56.773438 L 418.042969 54.09375 Z M 420.71875 56.773438 "/>
<g clip-path="url(#clip3)" clip-rule="nonzero">
<path style="fill:none;stroke-width:0.717533;stroke-linecap:butt;stroke-linejoin:miter;stroke:rgb(0%,0%,0%);stroke-opacity:1;stroke-miterlimit:4;" d="M 422.096684 57.099554 L 419.405533 59.790705 L 428.822598 57.099554 L 419.405533 54.404474 Z M 422.096684 57.099554 " transform="matrix(0.994289,0,0,0.994289,1.032814,0)"/>
</g>
<path style=" stroke:none;fill-rule:nonzero;fill:rgb(0%,0%,0%);fill-opacity:1;" d="M 358.625 34.207031 C 358.707031 32.800781 358.121094 31.84375 357.210938 31.84375 C 356.878906 31.84375 356.632812 31.925781 356.378906 32.136719 L 355.140625 33.25 L 355.378906 33.707031 C 355.632812 33.585938 355.800781 33.503906 356.046875 33.503906 C 356.753906 33.503906 357.046875 34.046875 357.003906 35.03125 C 356.835938 38.648438 354.34375 42.59375 352.191406 42.59375 C 350.988281 42.59375 350.28125 41.597656 350.367188 39.972656 C 350.367188 39.648438 350.410156 39.3125 350.566406 38.691406 L 351.113281 36.828125 C 351.234375 36.40625 351.402344 36.074219 351.566406 35.664062 L 351.277344 35.285156 L 349.699219 35.953125 L 348.910156 38.894531 C 348.574219 39.730469 348.289062 40.761719 347.542969 41.347656 C 346.832031 41.921875 346.128906 42.34375 345.300781 42.34375 C 344.59375 42.34375 344.011719 42.007812 343.644531 41.511719 C 343.140625 40.972656 343.011719 40.097656 343.054688 39.355469 C 343.179688 37.109375 343.84375 35.160156 346.003906 33.167969 C 346.296875 32.960938 346.75 32.546875 347.042969 32.253906 L 346.667969 31.84375 C 346.003906 32.292969 344.882812 33.089844 344.222656 33.667969 C 342.351562 35.285156 341.316406 37.402344 341.230469 39.269531 C 341.148438 40.683594 341.1875 41.878906 341.933594 42.839844 C 342.4375 43.464844 343.011719 43.792969 343.886719 43.792969 C 344.59375 43.792969 345.554688 43.421875 346.214844 43.046875 C 347.207031 42.511719 347.707031 42.007812 348.574219 41.304688 C 348.742188 42.796875 349.738281 43.792969 351.113281 43.792969 C 352.191406 43.792969 353.1875 43.339844 354.386719 42.21875 C 355.507812 41.21875 356.632812 39.691406 357.414062 38.148438 C 358.078125 36.867188 358.582031 35.242188 358.625 34.207031 Z M 358.625 34.207031 "/>
<path style=" stroke:none;fill-rule:nonzero;fill:rgb(0%,0%,0%);fill-opacity:1;" d="M 366.558594 41.429688 C 366.105469 41.140625 365.4375 41.011719 364.691406 41.011719 C 363.820312 41.011719 362.40625 41.632812 361.292969 42.542969 C 360.167969 43.414062 359.421875 45.324219 359.421875 47.234375 C 359.421875 48.984375 360.25 49.898438 361.828125 49.898438 C 362.863281 49.898438 363.820312 49.519531 364.898438 48.730469 L 365.894531 47.988281 L 365.726562 47.609375 L 365.4375 47.777344 C 364.03125 48.648438 363.285156 48.984375 362.574219 48.984375 C 361.492188 48.984375 360.914062 48.230469 360.914062 46.820312 C 360.914062 44.914062 361.574219 43.046875 362.53125 42.34375 C 362.949219 42.050781 363.441406 41.878906 364.070312 41.878906 C 364.941406 41.878906 365.644531 42.21875 365.644531 42.667969 L 365.644531 43.75 L 366.105469 43.75 C 366.261719 42.585938 366.390625 41.921875 366.558594 41.429688 Z M 366.558594 41.429688 "/>
<path style="fill:none;stroke-width:1.345374;stroke-linecap:butt;stroke-linejoin:miter;stroke:rgb(0%,0%,0%);stroke-opacity:1;stroke-miterlimit:4;" d="M 351.050287 49.250035 L 351.050287 64.811569 " transform="matrix(0.994289,0,0,0.994289,1.032814,0)"/>
<g clip-path="url(#clip4)" clip-rule="nonzero">
<path style="fill:none;stroke-width:1.345374;stroke-linecap:butt;stroke-linejoin:miter;stroke:rgb(0%,0%,0%);stroke-opacity:1;stroke-dasharray:2.690747,2.690747;stroke-miterlimit:4;" d="M 0.847024 72.338935 L 346.646228 72.338935 " transform="matrix(0.994289,0,0,0.994289,1.032814,0)"/>
</g>
<path style="fill-rule:evenodd;fill:rgb(0%,0%,0%);fill-opacity:1;stroke-width:0.504515;stroke-linecap:butt;stroke-linejoin:round;stroke:rgb(0%,0%,0%);stroke-opacity:1;stroke-miterlimit:4;" d="M 339.609947 69.082053 L 348.433781 72.32322 L 339.609947 75.568317 C 341.020346 73.655046 341.012489 71.034611 339.609947 69.082053 Z M 339.609947 69.082053 " transform="matrix(0.994289,0,0,0.994289,1.032814,0)"/>
<path style=" stroke:none;fill-rule:nonzero;fill:rgb(0%,0%,0%);fill-opacity:1;" d="M 352.671875 95.457031 C 352.335938 95.496094 352.023438 95.496094 351.703125 95.496094 C 351.367188 95.496094 351.058594 95.496094 350.742188 95.457031 C 350.515625 95.886719 350.742188 95.570312 349.753906 97.265625 L 346.910156 102.144531 L 345.175781 95.457031 C 344.863281 95.496094 344.523438 95.496094 344.207031 95.496094 C 343.871094 95.496094 343.558594 95.496094 343.246094 95.457031 L 343.203125 95.785156 L 343.519531 95.808594 C 344.109375 95.84375 344.328125 95.960938 344.328125 96.28125 C 344.328125 96.335938 344.3125 96.421875 344.292969 96.5 L 342.609375 102.390625 C 342.4375 102.984375 342.257812 103.144531 341.628906 103.207031 L 341.589844 103.5 L 342.871094 103.460938 C 343.300781 103.460938 343.730469 103.480469 344.152344 103.5 L 344.195312 103.164062 L 343.730469 103.144531 C 343.378906 103.101562 343.179688 103.007812 343.179688 102.832031 C 343.179688 102.714844 343.203125 102.550781 343.265625 102.355469 L 344.679688 96.992188 L 346.425781 103.675781 L 346.671875 103.675781 L 347.347656 102.476562 L 350.105469 97.683594 L 350.699219 96.671875 L 350.28125 102.691406 C 350.246094 103.007812 350.085938 103.09375 349.496094 103.144531 L 349.136719 103.164062 L 349.101562 103.5 L 350.65625 103.460938 L 352.199219 103.5 L 352.242188 103.164062 L 351.804688 103.144531 C 351.390625 103.101562 351.171875 102.96875 351.171875 102.734375 L 351.195312 102.296875 L 351.667969 96.164062 C 351.667969 95.949219 351.867188 95.828125 352.199219 95.808594 L 352.628906 95.785156 Z M 352.671875 95.457031 "/>
<g clip-path="url(#clip5)" clip-rule="nonzero">
<path style=" stroke:none;fill-rule:nonzero;fill:rgb(0%,0%,0%);fill-opacity:1;" d="M 358.496094 103.535156 C 358.496094 103.339844 358.457031 103.164062 358.398438 103.007812 C 358.28125 102.746094 357.90625 102.253906 357.644531 102.253906 C 357.449219 102.253906 357.195312 102.3125 357 102.410156 C 356.625 102.609375 356.183594 102.929688 355.933594 103.164062 C 355.828125 103.265625 355.773438 103.417969 355.730469 103.558594 L 355.125 106.140625 C 354.394531 106.066406 353.953125 105.707031 353.972656 105.078125 C 354.035156 104.128906 354.726562 103.082031 355.480469 102.726562 C 355.578125 102.671875 355.75 102.628906 355.933594 102.609375 C 356.027344 102.53125 356.027344 102.53125 356.085938 102.453125 C 356.0625 102.355469 356.027344 102.355469 355.984375 102.355469 C 355.792969 102.355469 355.414062 102.511719 355.125 102.628906 C 353.992188 103.144531 353.324219 104.007812 353.261719 105.078125 C 353.230469 105.980469 353.800781 106.472656 354.886719 106.472656 C 354.941406 106.472656 355.003906 106.472656 355.042969 106.453125 L 354.535156 108.371094 L 354.449219 108.683594 L 354.511719 108.746094 C 354.703125 108.683594 354.886719 108.648438 355.179688 108.585938 L 355.695312 106.375 C 356.148438 106.304688 356.582031 106.121094 356.957031 105.902344 C 357.808594 105.410156 358.457031 104.425781 358.496094 103.535156 Z M 357.765625 103.675781 C 357.722656 104.503906 357.171875 105.410156 356.484375 105.863281 C 356.289062 105.980469 356.027344 106.085938 355.75 106.121094 L 355.984375 105.121094 C 356.125 104.425781 356.421875 103.046875 356.65625 102.867188 C 356.773438 102.746094 357.035156 102.671875 357.34375 102.671875 C 357.601562 102.671875 357.808594 103.222656 357.765625 103.675781 Z M 357.765625 103.675781 "/>
</g>
<path style=" stroke:none;fill-rule:nonzero;fill:rgb(0%,0%,0%);fill-opacity:1;" d="M 104.507812 81.898438 C 104.507812 80.222656 103.449219 79.054688 101.917969 79.054688 C 101.25 79.054688 100.550781 79.300781 100.191406 79.667969 L 99.410156 80.476562 L 99.410156 75.484375 L 99.269531 75.375 C 98.65625 75.625 98.183594 75.738281 97.039062 75.902344 L 97.039062 76.324219 L 97.847656 76.324219 C 98.101562 76.324219 98.210938 76.457031 98.210938 76.90625 L 98.210938 83.566406 C 98.210938 84.433594 98.183594 84.820312 98.101562 85.824219 L 98.320312 85.910156 L 98.878906 85.40625 C 99.464844 85.769531 99.964844 85.910156 100.71875 85.910156 C 101.277344 85.910156 101.664062 85.824219 101.945312 85.601562 L 103.394531 84.570312 C 104.007812 84.125 104.507812 82.925781 104.507812 81.898438 Z M 103.285156 82.480469 C 103.285156 84.066406 102.417969 85.183594 101.191406 85.183594 C 100.46875 85.183594 99.410156 84.742188 99.410156 84.402344 L 99.410156 81.335938 C 99.410156 81.144531 99.550781 80.894531 99.769531 80.640625 C 100.164062 80.222656 100.71875 79.976562 101.304688 79.976562 C 102.5 79.976562 103.285156 80.949219 103.285156 82.480469 Z M 103.285156 82.480469 "/>
<path style=" stroke:none;fill-rule:nonzero;fill:rgb(0%,0%,0%);fill-opacity:1;" d="M 111.859375 85.796875 L 111.859375 85.355469 L 111.300781 85.320312 C 110.96875 85.320312 110.914062 85.210938 110.914062 84.488281 L 110.914062 81.898438 C 110.914062 79.804688 110.300781 79.054688 108.652344 79.054688 C 108.042969 79.054688 107.457031 79.222656 106.929688 79.527344 L 106.175781 80 L 106.175781 80.917969 L 106.535156 81.03125 L 106.730469 80.589844 C 107.011719 79.914062 107.175781 79.804688 107.816406 79.804688 C 109.15625 79.804688 109.714844 80.335938 109.765625 81.644531 L 108.347656 81.898438 C 106.421875 82.257812 105.589844 82.925781 105.589844 84.152344 C 105.589844 85.269531 106.261719 85.910156 107.398438 85.910156 C 107.648438 85.910156 107.902344 85.878906 107.984375 85.796875 L 109.765625 84.570312 L 109.6875 85.796875 C 110.074219 85.769531 110.4375 85.742188 110.800781 85.742188 C 111.164062 85.742188 111.496094 85.769531 111.859375 85.796875 Z M 109.765625 83.988281 C 109.351562 84.570312 108.457031 85.101562 107.902344 85.101562 C 107.316406 85.101562 106.816406 84.570312 106.816406 83.957031 C 106.816406 83.425781 107.121094 82.925781 107.539062 82.644531 C 107.902344 82.453125 108.683594 82.257812 109.765625 82.089844 Z M 109.765625 83.988281 "/>
<path style=" stroke:none;fill-rule:nonzero;fill:rgb(0%,0%,0%);fill-opacity:1;" d="M 120.4375 85.796875 L 120.4375 85.355469 L 119.851562 85.320312 C 119.347656 85.296875 119.324219 85.210938 119.324219 84.292969 L 119.324219 81.53125 C 119.324219 79.859375 118.542969 79.054688 116.925781 79.054688 C 116.394531 79.054688 116.117188 79.136719 115.8125 79.414062 L 114.722656 80.335938 L 114.722656 79.109375 L 114.582031 79.054688 C 113.859375 79.359375 113.136719 79.554688 112.382812 79.636719 L 112.382812 80.027344 L 112.910156 80.027344 C 113.46875 80.027344 113.523438 80.140625 113.523438 81.089844 L 113.523438 84.292969 C 113.523438 85.183594 113.496094 85.296875 112.996094 85.320312 L 112.355469 85.355469 L 112.355469 85.796875 C 112.941406 85.769531 113.550781 85.742188 114.136719 85.742188 C 114.722656 85.742188 115.308594 85.769531 115.894531 85.796875 L 115.894531 85.355469 L 115.25 85.320312 C 114.777344 85.296875 114.722656 85.183594 114.722656 84.292969 L 114.722656 81.257812 C 114.722656 80.609375 115.671875 79.914062 116.535156 79.914062 C 117.480469 79.914062 118.121094 80.640625 118.121094 81.726562 L 118.121094 85.796875 C 118.488281 85.769531 118.875 85.742188 119.238281 85.742188 C 119.65625 85.742188 120.042969 85.769531 120.4375 85.796875 Z M 120.4375 85.796875 "/>
<path style=" stroke:none;fill-rule:nonzero;fill:rgb(0%,0%,0%);fill-opacity:1;" d="M 128.820312 85.796875 L 128.820312 85.355469 L 128.175781 85.320312 C 127.671875 85.296875 127.648438 85.183594 127.648438 84.292969 L 127.648438 75.484375 L 127.507812 75.375 C 126.894531 75.625 126.421875 75.738281 125.28125 75.902344 L 125.28125 76.324219 L 126.085938 76.324219 C 126.335938 76.324219 126.449219 76.457031 126.449219 76.90625 L 126.449219 79.496094 C 125.640625 79.167969 125.25 79.054688 124.75 79.054688 C 124.359375 79.054688 124.023438 79.136719 123.660156 79.332031 L 122.40625 79.976562 C 121.597656 80.417969 121.070312 81.449219 121.070312 82.644531 C 121.070312 83.792969 121.460938 84.742188 122.15625 85.320312 C 122.632812 85.714844 123.300781 85.910156 124.246094 85.910156 C 124.527344 85.910156 124.859375 85.855469 124.917969 85.796875 L 126.503906 84.460938 L 126.421875 85.796875 C 126.808594 85.769531 127.171875 85.742188 127.535156 85.742188 C 127.957031 85.742188 128.398438 85.769531 128.820312 85.796875 Z M 126.449219 82.589844 C 126.449219 83.511719 126.421875 83.648438 126.226562 83.988281 C 125.835938 84.65625 125.136719 85.101562 124.472656 85.101562 C 123.214844 85.101562 122.296875 83.875 122.296875 82.203125 C 122.296875 80.640625 123.078125 79.722656 124.359375 79.722656 C 124.917969 79.722656 125.472656 79.914062 125.976562 80.25 C 126.28125 80.449219 126.449219 80.640625 126.449219 80.75 Z M 126.449219 82.589844 "/>
<path style=" stroke:none;fill-rule:nonzero;fill:rgb(0%,0%,0%);fill-opacity:1;" d="M 135.664062 81.757812 C 135.664062 80.109375 134.605469 79.054688 133.015625 79.054688 C 132.488281 79.054688 131.875 79.246094 131.292969 79.582031 C 130.121094 80.25 129.644531 81.144531 129.644531 82.621094 C 129.644531 83.511719 129.839844 84.292969 130.257812 84.820312 C 130.816406 85.574219 131.792969 86.023438 132.855469 86.023438 C 133.382812 86.023438 133.910156 85.910156 134.496094 85.65625 C 134.886719 85.488281 135.164062 85.320312 135.246094 85.242188 L 135.527344 84.742188 L 135.332031 84.601562 C 134.410156 85.128906 134.105469 85.269531 133.492188 85.269531 C 132.546875 85.269531 131.792969 84.847656 131.375 84.152344 C 131.125 83.679688 131.011719 83.289062 130.984375 82.453125 L 133.074219 82.453125 C 134.050781 82.453125 134.664062 82.425781 135.636719 82.257812 C 135.664062 82.0625 135.664062 81.925781 135.664062 81.757812 Z M 134.410156 81.925781 L 132.796875 81.976562 C 132.15625 81.976562 131.792969 81.953125 131.011719 81.898438 C 131.011719 81.222656 131.066406 80.894531 131.261719 80.53125 C 131.542969 79.914062 132.15625 79.527344 132.855469 79.527344 C 133.324219 79.527344 133.683594 79.695312 133.9375 80.082031 C 134.277344 80.558594 134.410156 80.976562 134.410156 81.925781 Z M 134.410156 81.925781 "/>
<path style=" stroke:none;fill-rule:nonzero;fill:rgb(0%,0%,0%);fill-opacity:1;" d="M 147.585938 81.867188 C 147.585938 80.28125 146.277344 79.054688 144.605469 79.054688 C 144.074219 79.054688 143.574219 79.191406 143.351562 79.414062 L 142.179688 80.476562 L 142.179688 79.109375 L 142.039062 79.054688 C 141.316406 79.359375 140.5625 79.554688 139.808594 79.636719 L 139.808594 80.027344 L 140.339844 80.027344 C 140.925781 80.027344 140.984375 80.140625 140.984375 81.089844 L 140.984375 88.25 C 140.984375 89.140625 140.925781 89.253906 140.449219 89.28125 L 139.78125 89.335938 L 139.78125 89.753906 C 140.394531 89.726562 140.984375 89.699219 141.566406 89.699219 C 142.179688 89.699219 142.765625 89.726562 143.351562 89.753906 L 143.351562 89.335938 L 142.710938 89.28125 C 142.210938 89.253906 142.179688 89.140625 142.179688 88.25 L 142.179688 85.546875 C 142.597656 85.824219 143.046875 85.910156 143.6875 85.910156 C 144.101562 85.910156 144.492188 85.824219 144.714844 85.683594 L 146.332031 84.625 C 146.917969 84.261719 147.585938 82.785156 147.585938 81.867188 Z M 146.332031 82.398438 C 146.332031 84.011719 145.386719 85.183594 144.101562 85.183594 C 143.324219 85.183594 142.738281 84.933594 142.179688 84.347656 L 142.179688 81.363281 C 142.179688 81.171875 142.238281 81.03125 142.429688 80.78125 C 142.851562 80.25 143.433594 79.976562 144.132812 79.976562 C 145.46875 79.976562 146.332031 80.917969 146.332031 82.398438 Z M 146.332031 82.398438 "/>
<path style=" stroke:none;fill-rule:nonzero;fill:rgb(0%,0%,0%);fill-opacity:1;" d="M 154.964844 85.796875 L 154.964844 85.355469 L 154.410156 85.320312 C 154.070312 85.320312 154.015625 85.210938 154.015625 84.488281 L 154.015625 81.898438 C 154.015625 79.804688 153.402344 79.054688 151.761719 79.054688 C 151.148438 79.054688 150.5625 79.222656 150.03125 79.527344 L 149.277344 80 L 149.277344 80.917969 L 149.644531 81.03125 L 149.839844 80.589844 C 150.113281 79.914062 150.285156 79.804688 150.925781 79.804688 C 152.261719 79.804688 152.820312 80.335938 152.875 81.644531 L 151.453125 81.898438 C 149.53125 82.257812 148.695312 82.925781 148.695312 84.152344 C 148.695312 85.269531 149.363281 85.910156 150.507812 85.910156 C 150.757812 85.910156 151.007812 85.878906 151.09375 85.796875 L 152.875 84.570312 L 152.789062 85.796875 C 153.183594 85.769531 153.542969 85.742188 153.90625 85.742188 C 154.269531 85.742188 154.605469 85.769531 154.964844 85.796875 Z M 152.875 83.988281 C 152.457031 84.570312 151.566406 85.101562 151.007812 85.101562 C 150.421875 85.101562 149.917969 84.570312 149.917969 83.957031 C 149.917969 83.425781 150.226562 82.925781 150.644531 82.644531 C 151.007812 82.453125 151.789062 82.257812 152.875 82.089844 Z M 152.875 83.988281 "/>
<path style=" stroke:none;fill-rule:nonzero;fill:rgb(0%,0%,0%);fill-opacity:1;" d="M 160.949219 83.625 C 160.949219 83.179688 160.835938 82.871094 160.5625 82.566406 C 160.195312 82.203125 159.722656 82.03125 158.46875 81.8125 C 157.300781 81.5625 156.910156 81.28125 156.910156 80.640625 C 156.910156 79.914062 157.410156 79.527344 158.273438 79.527344 C 159.222656 79.527344 159.949219 80.027344 159.949219 80.695312 L 159.949219 81.03125 L 160.363281 81.03125 C 160.363281 80.195312 160.390625 79.859375 160.421875 79.414062 C 159.667969 79.136719 159.167969 79.054688 158.582031 79.054688 C 156.910156 79.054688 155.90625 79.835938 155.90625 81.117188 C 155.90625 81.8125 156.210938 82.285156 156.878906 82.589844 C 157.273438 82.757812 158.027344 82.980469 159 83.207031 C 159.640625 83.34375 159.890625 83.648438 159.890625 84.179688 C 159.890625 84.960938 159.195312 85.488281 158.160156 85.488281 C 157.132812 85.488281 156.378906 84.988281 156.378906 84.292969 L 156.378906 83.707031 L 155.960938 83.707031 C 155.960938 84.679688 155.90625 85.101562 155.796875 85.683594 C 156.546875 85.9375 157.105469 86.023438 157.773438 86.023438 C 159.640625 86.023438 160.949219 85.015625 160.949219 83.625 Z M 160.949219 83.625 "/>
<path style=" stroke:none;fill-rule:nonzero;fill:rgb(0%,0%,0%);fill-opacity:1;" d="M 166.988281 83.625 C 166.988281 83.179688 166.882812 82.871094 166.601562 82.566406 C 166.234375 82.203125 165.765625 82.03125 164.511719 81.8125 C 163.339844 81.5625 162.949219 81.28125 162.949219 80.640625 C 162.949219 79.914062 163.453125 79.527344 164.3125 79.527344 C 165.265625 79.527344 165.988281 80.027344 165.988281 80.695312 L 165.988281 81.03125 L 166.402344 81.03125 C 166.402344 80.195312 166.433594 79.859375 166.460938 79.414062 C 165.707031 79.136719 165.207031 79.054688 164.621094 79.054688 C 162.949219 79.054688 161.945312 79.835938 161.945312 81.117188 C 161.945312 81.8125 162.25 82.285156 162.921875 82.589844 C 163.3125 82.757812 164.066406 82.980469 165.039062 83.207031 C 165.679688 83.34375 165.933594 83.648438 165.933594 84.179688 C 165.933594 84.960938 165.234375 85.488281 164.203125 85.488281 C 163.171875 85.488281 162.421875 84.988281 162.421875 84.292969 L 162.421875 83.707031 L 162.003906 83.707031 C 162.003906 84.679688 161.945312 85.101562 161.835938 85.683594 C 162.589844 85.9375 163.144531 86.023438 163.8125 86.023438 C 165.679688 86.023438 166.988281 85.015625 166.988281 83.625 Z M 166.988281 83.625 "/>
<path style=" stroke:none;fill-rule:nonzero;fill:rgb(0%,0%,0%);fill-opacity:1;" d="M 174.175781 85.796875 L 174.175781 85.355469 L 173.617188 85.320312 C 173.28125 85.320312 173.226562 85.210938 173.226562 84.488281 L 173.226562 81.898438 C 173.226562 79.804688 172.613281 79.054688 170.96875 79.054688 C 170.355469 79.054688 169.769531 79.222656 169.242188 79.527344 L 168.488281 80 L 168.488281 80.917969 L 168.851562 81.03125 L 169.046875 80.589844 C 169.324219 79.914062 169.492188 79.804688 170.132812 79.804688 C 171.472656 79.804688 172.027344 80.335938 172.085938 81.644531 L 170.664062 81.898438 C 168.742188 82.257812 167.902344 82.925781 167.902344 84.152344 C 167.902344 85.269531 168.570312 85.910156 169.714844 85.910156 C 169.964844 85.910156 170.21875 85.878906 170.296875 85.796875 L 172.085938 84.570312 L 172 85.796875 C 172.390625 85.769531 172.753906 85.742188 173.113281 85.742188 C 173.476562 85.742188 173.8125 85.769531 174.175781 85.796875 Z M 172.085938 83.988281 C 171.664062 84.570312 170.773438 85.101562 170.21875 85.101562 C 169.628906 85.101562 169.128906 84.570312 169.128906 83.957031 C 169.128906 83.425781 169.4375 82.925781 169.855469 82.644531 C 170.21875 82.453125 170.996094 82.257812 172.085938 82.089844 Z M 172.085938 83.988281 "/>
<path style=" stroke:none;fill-rule:nonzero;fill:rgb(0%,0%,0%);fill-opacity:1;" d="M 182.75 85.796875 L 182.75 85.355469 L 182.164062 85.320312 C 181.664062 85.296875 181.636719 85.210938 181.636719 84.292969 L 181.636719 81.53125 C 181.636719 79.859375 180.855469 79.054688 179.238281 79.054688 C 178.710938 79.054688 178.433594 79.136719 178.125 79.414062 L 177.039062 80.335938 L 177.039062 79.109375 L 176.898438 79.054688 C 176.175781 79.359375 175.449219 79.554688 174.695312 79.636719 L 174.695312 80.027344 L 175.226562 80.027344 C 175.78125 80.027344 175.835938 80.140625 175.835938 81.089844 L 175.835938 84.292969 C 175.835938 85.183594 175.808594 85.296875 175.308594 85.320312 L 174.667969 85.355469 L 174.667969 85.796875 C 175.253906 85.769531 175.867188 85.742188 176.453125 85.742188 C 177.039062 85.742188 177.621094 85.769531 178.207031 85.796875 L 178.207031 85.355469 L 177.566406 85.320312 C 177.089844 85.296875 177.039062 85.183594 177.039062 84.292969 L 177.039062 81.257812 C 177.039062 80.609375 177.984375 79.914062 178.847656 79.914062 C 179.796875 79.914062 180.4375 80.640625 180.4375 81.726562 L 180.4375 85.796875 C 180.800781 85.769531 181.1875 85.742188 181.550781 85.742188 C 181.96875 85.742188 182.363281 85.769531 182.75 85.796875 Z M 182.75 85.796875 "/>
<path style=" stroke:none;fill-rule:nonzero;fill:rgb(0%,0%,0%);fill-opacity:1;" d="M 187.421875 79.527344 L 185.472656 79.609375 L 185.472656 79.054688 C 185.472656 78.46875 185.53125 77.9375 185.640625 77.046875 L 185.472656 76.878906 C 185.113281 77.105469 184.691406 77.265625 184.246094 77.4375 C 184.304688 77.855469 184.304688 78.132812 184.304688 78.554688 L 184.304688 79.554688 L 183.191406 80.054688 L 183.191406 80.335938 L 184.277344 80.28125 L 184.277344 84.402344 C 184.277344 85.460938 184.75 85.910156 185.839844 85.910156 C 186.171875 85.910156 186.535156 85.855469 186.613281 85.742188 L 187.285156 84.988281 L 187.117188 84.742188 C 186.753906 84.933594 186.535156 85.015625 186.253906 85.015625 C 185.699219 85.015625 185.472656 84.742188 185.472656 84.039062 L 185.472656 80.28125 L 187.316406 80.28125 Z M 187.421875 79.527344 "/>
<path style=" stroke:none;fill-rule:nonzero;fill:rgb(0%,0%,0%);fill-opacity:1;" d="M 193.917969 81.757812 C 193.917969 80.109375 192.859375 79.054688 191.273438 79.054688 C 190.742188 79.054688 190.128906 79.246094 189.542969 79.582031 C 188.375 80.25 187.902344 81.144531 187.902344 82.621094 C 187.902344 83.511719 188.09375 84.292969 188.511719 84.820312 C 189.070312 85.574219 190.046875 86.023438 191.105469 86.023438 C 191.632812 86.023438 192.164062 85.910156 192.746094 85.65625 C 193.140625 85.488281 193.414062 85.320312 193.5 85.242188 L 193.78125 84.742188 L 193.585938 84.601562 C 192.667969 85.128906 192.359375 85.269531 191.746094 85.269531 C 190.796875 85.269531 190.046875 84.847656 189.625 84.152344 C 189.375 83.679688 189.261719 83.289062 189.238281 82.453125 L 191.328125 82.453125 C 192.300781 82.453125 192.914062 82.425781 193.890625 82.257812 C 193.917969 82.0625 193.917969 81.925781 193.917969 81.757812 Z M 192.667969 81.925781 L 191.046875 81.976562 C 190.40625 81.976562 190.046875 81.953125 189.261719 81.898438 C 189.261719 81.222656 189.320312 80.894531 189.515625 80.53125 C 189.792969 79.914062 190.40625 79.527344 191.105469 79.527344 C 191.574219 79.527344 191.941406 79.695312 192.1875 80.082031 C 192.527344 80.558594 192.667969 80.976562 192.667969 81.925781 Z M 192.667969 81.925781 "/>
<path style="fill:none;stroke-width:0.807224;stroke-linecap:butt;stroke-linejoin:miter;stroke:rgb(0%,0%,0%);stroke-opacity:1;stroke-dasharray:0.807224,1.614448;stroke-miterlimit:4;" d="M 351.007072 70.999253 L 351.007072 91.734869 " transform="matrix(0.994289,0,0,0.994289,1.032814,0)"/>
<path style="fill-rule:evenodd;fill:rgb(0%,0%,0%);fill-opacity:1;stroke-width:0.43052;stroke-linecap:butt;stroke-linejoin:miter;stroke:rgb(0%,0%,0%);stroke-opacity:1;stroke-miterlimit:4;" d="M 351.007072 88.505487 L 349.396309 86.890796 L 351.007072 92.54025 L 352.62962 86.890796 Z M 351.007072 88.505487 " transform="matrix(0.994289,0,0,0.994289,1.032814,0)"/>
<path style="fill:none;stroke-width:1.341011;stroke-linecap:butt;stroke-linejoin:miter;stroke:rgb(0%,0%,0%);stroke-opacity:1;stroke-miterlimit:4;" d="M 80.257355 -25.107332 C 33.22176 -28.837813 19.569023 -15.399948 9.273344 -5.490103 " transform="matrix(0.994289,0.0802707,0.0802707,-0.994289,1.032814,0)"/>
<path style="fill-rule:evenodd;fill:rgb(0%,0%,0%);fill-opacity:1;stroke-width:0.715206;stroke-linecap:butt;stroke-linejoin:miter;stroke:rgb(0%,0%,0%);stroke-opacity:1;stroke-miterlimit:4;" d="M 13.1369 -9.209025 L 13.207737 -13.006277 L 8.310225 -4.558185 L 16.934466 -9.142091 Z M 13.1369 -9.209025 " transform="matrix(0.994289,0.0802707,0.0802707,-0.994289,1.032814,0)"/>
<path style=" stroke:none;fill-rule:nonzero;fill:rgb(0%,0%,0%);fill-opacity:1;" d="M 89.4375 29.308594 C 89.4375 27.984375 88.351562 26.957031 86.953125 26.957031 C 86.515625 26.957031 86.09375 27.078125 85.90625 27.265625 L 84.933594 28.144531 L 84.933594 27.007812 L 84.820312 26.957031 C 84.214844 27.21875 83.585938 27.378906 82.960938 27.449219 L 82.960938 27.773438 L 83.40625 27.773438 C 83.894531 27.773438 83.9375 27.863281 83.9375 28.660156 L 83.9375 34.621094 C 83.9375 35.367188 83.894531 35.46875 83.496094 35.488281 L 82.9375 35.53125 L 82.9375 35.875 C 83.449219 35.855469 83.9375 35.835938 84.421875 35.835938 C 84.933594 35.835938 85.417969 35.855469 85.90625 35.875 L 85.90625 35.53125 L 85.378906 35.488281 C 84.960938 35.46875 84.933594 35.367188 84.933594 34.621094 L 84.933594 32.371094 C 85.277344 32.601562 85.65625 32.671875 86.191406 32.671875 C 86.535156 32.671875 86.863281 32.601562 87.050781 32.492188 L 88.394531 31.609375 C 88.878906 31.308594 89.4375 30.074219 89.4375 29.308594 Z M 88.394531 29.746094 C 88.394531 31.097656 87.609375 32.074219 86.535156 32.074219 C 85.886719 32.074219 85.398438 31.863281 84.933594 31.378906 L 84.933594 28.890625 C 84.933594 28.730469 84.980469 28.609375 85.148438 28.402344 C 85.488281 27.964844 85.976562 27.726562 86.5625 27.726562 C 87.675781 27.726562 88.394531 28.519531 88.394531 29.746094 Z M 88.394531 29.746094 "/>
<path style=" stroke:none;fill-rule:nonzero;fill:rgb(0%,0%,0%);fill-opacity:1;" d="M 94.429688 27.097656 C 94.308594 27.007812 94.101562 26.957031 93.871094 26.957031 C 93.523438 26.957031 93.152344 27.148438 92.894531 27.449219 L 92.21875 28.238281 L 92.21875 27.007812 L 92.128906 26.957031 C 91.523438 27.21875 90.894531 27.378906 90.269531 27.449219 L 90.269531 27.773438 L 90.710938 27.773438 C 91.175781 27.773438 91.222656 27.863281 91.222656 28.660156 L 91.222656 31.328125 C 91.222656 32.074219 91.203125 32.164062 90.785156 32.1875 L 90.246094 32.214844 L 90.246094 32.582031 C 90.738281 32.5625 91.222656 32.53125 91.710938 32.53125 C 92.265625 32.53125 92.824219 32.5625 93.402344 32.582031 L 93.402344 32.214844 L 92.777344 32.1875 C 92.246094 32.144531 92.21875 32.125 92.21875 31.328125 L 92.21875 29.285156 C 92.21875 28.5625 92.707031 27.964844 93.292969 27.964844 C 93.640625 27.964844 93.890625 28.144531 94.082031 28.519531 L 94.335938 28.519531 Z M 94.429688 27.097656 "/>
<path style=" stroke:none;fill-rule:nonzero;fill:rgb(0%,0%,0%);fill-opacity:1;" d="M 99.996094 29.21875 C 99.996094 27.84375 99.109375 26.957031 97.785156 26.957031 C 97.347656 26.957031 96.835938 27.125 96.351562 27.40625 C 95.375 27.964844 94.976562 28.703125 94.976562 29.933594 C 94.976562 30.679688 95.136719 31.328125 95.496094 31.765625 C 95.953125 32.390625 96.769531 32.769531 97.652344 32.769531 C 98.09375 32.769531 98.53125 32.671875 99.019531 32.460938 C 99.347656 32.324219 99.574219 32.1875 99.644531 32.125 L 99.882812 31.695312 L 99.714844 31.585938 C 98.949219 32.023438 98.699219 32.144531 98.183594 32.144531 C 97.398438 32.144531 96.769531 31.792969 96.421875 31.207031 C 96.214844 30.820312 96.117188 30.492188 96.089844 29.792969 L 97.835938 29.792969 C 98.652344 29.792969 99.15625 29.773438 99.972656 29.636719 C 99.996094 29.46875 99.996094 29.355469 99.996094 29.21875 Z M 98.949219 29.355469 L 97.601562 29.398438 C 97.066406 29.398438 96.769531 29.378906 96.117188 29.328125 C 96.117188 28.773438 96.164062 28.492188 96.320312 28.191406 C 96.558594 27.683594 97.066406 27.359375 97.652344 27.359375 C 98.042969 27.359375 98.34375 27.492188 98.550781 27.824219 C 98.839844 28.214844 98.949219 28.5625 98.949219 29.355469 Z M 99.390625 24.894531 C 99.390625 24.660156 99.226562 24.480469 99.019531 24.480469 C 98.859375 24.480469 98.628906 24.621094 98.371094 24.871094 L 96.742188 26.519531 L 97.207031 26.519531 L 98.925781 25.457031 C 99.328125 25.195312 99.390625 25.105469 99.390625 24.894531 Z M 99.390625 24.894531 "/>
<path style=" stroke:none;fill-rule:nonzero;fill:rgb(0%,0%,0%);fill-opacity:1;" d="M 105.269531 31.976562 L 105.148438 31.816406 C 104.710938 32.046875 104.339844 32.164062 103.917969 32.164062 C 102.601562 32.164062 101.714844 31.140625 101.714844 29.5625 C 101.714844 28.28125 102.3125 27.566406 103.386719 27.566406 C 103.917969 27.566406 104.472656 27.824219 104.691406 28.125 L 104.78125 28.84375 L 105.101562 28.84375 C 105.101562 28.28125 105.167969 27.796875 105.269531 27.378906 C 104.800781 27.097656 104.382812 26.957031 103.894531 26.957031 C 103.316406 26.957031 102.671875 27.195312 101.945312 27.632812 C 101.109375 28.171875 100.671875 28.980469 100.671875 30.027344 C 100.671875 31.652344 101.804688 32.769531 103.410156 32.769531 C 104.015625 32.769531 104.921875 32.5625 105.035156 32.371094 Z M 105.269531 31.976562 "/>
<path style=" stroke:none;fill-rule:nonzero;fill:rgb(0%,0%,0%);fill-opacity:1;" d="M 108.867188 32.582031 L 108.867188 32.214844 L 108.308594 32.1875 C 107.90625 32.164062 107.859375 32.074219 107.859375 31.328125 L 107.859375 27.007812 L 107.773438 26.957031 C 107.160156 27.21875 106.535156 27.378906 105.910156 27.449219 L 105.910156 27.773438 L 106.355469 27.773438 C 106.816406 27.773438 106.863281 27.863281 106.863281 28.660156 L 106.863281 31.328125 C 106.863281 32.074219 106.84375 32.164062 106.421875 32.1875 L 105.890625 32.214844 L 105.890625 32.582031 C 106.375 32.5625 106.863281 32.53125 107.375 32.53125 C 107.859375 32.53125 108.347656 32.5625 108.867188 32.582031 Z M 107.957031 25.5 C 107.957031 25.148438 107.722656 24.894531 107.375 24.894531 C 107.007812 24.894531 106.773438 25.148438 106.773438 25.5 C 106.773438 25.84375 107.007812 26.082031 107.375 26.082031 C 107.722656 26.082031 107.957031 25.84375 107.957031 25.5 Z M 107.957031 25.5 "/>
<path style=" stroke:none;fill-rule:nonzero;fill:rgb(0%,0%,0%);fill-opacity:1;" d="M 113.734375 30.769531 C 113.734375 30.398438 113.636719 30.144531 113.40625 29.894531 C 113.109375 29.589844 112.710938 29.449219 111.664062 29.257812 C 110.6875 29.046875 110.363281 28.820312 110.363281 28.28125 C 110.363281 27.683594 110.789062 27.359375 111.503906 27.359375 C 112.292969 27.359375 112.898438 27.773438 112.898438 28.332031 L 112.898438 28.609375 L 113.246094 28.609375 C 113.246094 27.914062 113.265625 27.632812 113.292969 27.265625 C 112.660156 27.027344 112.25 26.957031 111.761719 26.957031 C 110.363281 26.957031 109.53125 27.613281 109.53125 28.679688 C 109.53125 29.257812 109.78125 29.652344 110.34375 29.914062 C 110.667969 30.054688 111.292969 30.230469 112.101562 30.421875 C 112.640625 30.539062 112.847656 30.792969 112.847656 31.238281 C 112.847656 31.886719 112.273438 32.324219 111.40625 32.324219 C 110.546875 32.324219 109.921875 31.90625 109.921875 31.328125 L 109.921875 30.839844 L 109.574219 30.839844 C 109.574219 31.652344 109.53125 32.003906 109.433594 32.492188 C 110.0625 32.699219 110.527344 32.769531 111.089844 32.769531 C 112.640625 32.769531 113.734375 31.933594 113.734375 30.769531 Z M 113.734375 30.769531 "/>
<path style=" stroke:none;fill-rule:nonzero;fill:rgb(0%,0%,0%);fill-opacity:1;" d="M 117.355469 32.582031 L 117.355469 32.214844 L 116.800781 32.1875 C 116.402344 32.164062 116.363281 32.074219 116.363281 31.328125 L 116.363281 27.007812 L 116.261719 26.957031 C 115.664062 27.21875 115.035156 27.378906 114.410156 27.449219 L 114.410156 27.773438 L 114.847656 27.773438 C 115.308594 27.773438 115.355469 27.863281 115.355469 28.660156 L 115.355469 31.328125 C 115.355469 32.074219 115.335938 32.164062 114.917969 32.1875 L 114.382812 32.214844 L 114.382812 32.582031 C 114.871094 32.5625 115.355469 32.53125 115.863281 32.53125 C 116.363281 32.53125 116.847656 32.5625 117.355469 32.582031 Z M 116.453125 25.5 C 116.453125 25.148438 116.21875 24.894531 115.863281 24.894531 C 115.496094 24.894531 115.269531 25.148438 115.269531 25.5 C 115.269531 25.84375 115.496094 26.082031 115.863281 26.082031 C 116.21875 26.082031 116.453125 25.84375 116.453125 25.5 Z M 116.453125 25.5 "/>
<path style=" stroke:none;fill-rule:nonzero;fill:rgb(0%,0%,0%);fill-opacity:1;" d="M 123.691406 29.722656 C 123.691406 28.125 122.527344 26.957031 120.902344 26.957031 C 119.164062 26.957031 117.957031 28.191406 117.957031 29.957031 C 117.957031 31.628906 119.023438 32.769531 120.554688 32.769531 C 122.386719 32.769531 123.691406 31.488281 123.691406 29.722656 Z M 122.597656 30.164062 C 122.597656 31.515625 121.96875 32.371094 121.023438 32.371094 C 119.859375 32.371094 119.070312 31.238281 119.070312 29.539062 C 119.070312 28.125 119.648438 27.359375 120.695312 27.359375 C 121.789062 27.359375 122.597656 28.539062 122.597656 30.164062 Z M 122.597656 30.164062 "/>
<path style=" stroke:none;fill-rule:nonzero;fill:rgb(0%,0%,0%);fill-opacity:1;" d="M 130.890625 32.582031 L 130.890625 32.214844 L 130.398438 32.1875 C 129.980469 32.164062 129.953125 32.09375 129.953125 31.328125 L 129.953125 29.027344 C 129.953125 27.632812 129.304688 26.957031 127.960938 26.957031 C 127.515625 26.957031 127.285156 27.027344 127.027344 27.265625 L 126.121094 28.035156 L 126.121094 27.007812 L 126.011719 26.957031 C 125.40625 27.21875 124.800781 27.378906 124.171875 27.449219 L 124.171875 27.773438 L 124.613281 27.773438 C 125.074219 27.773438 125.125 27.863281 125.125 28.660156 L 125.125 31.328125 C 125.125 32.074219 125.097656 32.164062 124.683594 32.1875 L 124.148438 32.214844 L 124.148438 32.582031 C 124.636719 32.5625 125.144531 32.53125 125.632812 32.53125 C 126.121094 32.53125 126.609375 32.5625 127.097656 32.582031 L 127.097656 32.214844 L 126.566406 32.1875 C 126.167969 32.164062 126.121094 32.074219 126.121094 31.328125 L 126.121094 28.800781 C 126.121094 28.261719 126.914062 27.683594 127.632812 27.683594 C 128.417969 27.683594 128.957031 28.28125 128.957031 29.1875 L 128.957031 32.582031 C 129.257812 32.5625 129.582031 32.53125 129.882812 32.53125 C 130.230469 32.53125 130.558594 32.5625 130.890625 32.582031 Z M 130.890625 32.582031 "/>
<path style=" stroke:none;fill-rule:nonzero;fill:rgb(0%,0%,0%);fill-opacity:1;" d="M 138.613281 30.769531 C 138.613281 30.398438 138.515625 30.144531 138.289062 29.894531 C 137.988281 29.589844 137.589844 29.449219 136.542969 29.257812 C 135.570312 29.046875 135.242188 28.820312 135.242188 28.28125 C 135.242188 27.683594 135.65625 27.359375 136.382812 27.359375 C 137.171875 27.359375 137.773438 27.773438 137.773438 28.332031 L 137.773438 28.609375 L 138.125 28.609375 C 138.125 27.914062 138.148438 27.632812 138.167969 27.265625 C 137.542969 27.027344 137.121094 26.957031 136.636719 26.957031 C 135.242188 26.957031 134.40625 27.613281 134.40625 28.679688 C 134.40625 29.257812 134.664062 29.652344 135.21875 29.914062 C 135.546875 30.054688 136.175781 30.230469 136.980469 30.421875 C 137.519531 30.539062 137.726562 30.792969 137.726562 31.238281 C 137.726562 31.886719 137.148438 32.324219 136.285156 32.324219 C 135.429688 32.324219 134.804688 31.90625 134.804688 31.328125 L 134.804688 30.839844 L 134.453125 30.839844 C 134.453125 31.652344 134.40625 32.003906 134.3125 32.492188 C 134.945312 32.699219 135.410156 32.769531 135.964844 32.769531 C 137.519531 32.769531 138.613281 31.933594 138.613281 30.769531 Z M 138.613281 30.769531 "/>
<path style=" stroke:none;fill-rule:nonzero;fill:rgb(0%,0%,0%);fill-opacity:1;" d="M 142.597656 27.359375 L 140.976562 27.425781 L 140.976562 26.957031 C 140.976562 26.472656 141.027344 26.035156 141.113281 25.289062 L 140.976562 25.148438 C 140.675781 25.335938 140.328125 25.476562 139.949219 25.613281 C 140 25.964844 140 26.195312 140 26.542969 L 140 27.378906 L 139.070312 27.796875 L 139.070312 28.035156 L 139.980469 27.984375 L 139.980469 31.417969 C 139.980469 32.300781 140.371094 32.671875 141.273438 32.671875 C 141.554688 32.671875 141.859375 32.628906 141.929688 32.53125 L 142.484375 31.90625 L 142.347656 31.695312 C 142.039062 31.863281 141.859375 31.933594 141.625 31.933594 C 141.164062 31.933594 140.976562 31.695312 140.976562 31.117188 L 140.976562 27.984375 L 142.507812 27.984375 Z M 142.597656 27.359375 "/>
<path style=" stroke:none;fill-rule:nonzero;fill:rgb(0%,0%,0%);fill-opacity:1;" d="M 148.285156 32.582031 L 148.285156 32.214844 L 147.824219 32.1875 C 147.539062 32.1875 147.496094 32.09375 147.496094 31.488281 L 147.496094 29.328125 C 147.496094 27.585938 146.984375 26.957031 145.617188 26.957031 C 145.101562 26.957031 144.609375 27.097656 144.171875 27.359375 L 143.546875 27.753906 L 143.546875 28.519531 L 143.84375 28.609375 L 144.011719 28.238281 C 144.242188 27.683594 144.382812 27.585938 144.917969 27.585938 C 146.03125 27.585938 146.496094 28.035156 146.539062 29.117188 L 145.355469 29.328125 C 143.757812 29.636719 143.058594 30.195312 143.058594 31.207031 C 143.058594 32.144531 143.617188 32.671875 144.570312 32.671875 C 144.777344 32.671875 144.988281 32.652344 145.058594 32.582031 L 146.539062 31.558594 L 146.46875 32.582031 C 146.800781 32.5625 147.101562 32.53125 147.398438 32.53125 C 147.707031 32.53125 147.984375 32.5625 148.285156 32.582031 Z M 146.539062 31.070312 C 146.195312 31.558594 145.449219 32.003906 144.988281 32.003906 C 144.5 32.003906 144.082031 31.558594 144.082031 31.046875 C 144.082031 30.609375 144.335938 30.195312 144.683594 29.957031 C 144.988281 29.792969 145.636719 29.636719 146.539062 29.496094 Z M 146.539062 31.070312 "/>
<path style=" stroke:none;fill-rule:nonzero;fill:rgb(0%,0%,0%);fill-opacity:1;" d="M 152.414062 27.359375 L 150.789062 27.425781 L 150.789062 26.957031 C 150.789062 26.472656 150.839844 26.035156 150.929688 25.289062 L 150.789062 25.148438 C 150.492188 25.335938 150.144531 25.476562 149.769531 25.613281 C 149.816406 25.964844 149.816406 26.195312 149.816406 26.542969 L 149.816406 27.378906 L 148.890625 27.796875 L 148.890625 28.035156 L 149.796875 27.984375 L 149.796875 31.417969 C 149.796875 32.300781 150.183594 32.671875 151.097656 32.671875 C 151.371094 32.671875 151.675781 32.628906 151.746094 32.53125 L 152.304688 31.90625 L 152.164062 31.695312 C 151.859375 31.863281 151.675781 31.933594 151.441406 31.933594 C 150.980469 31.933594 150.789062 31.695312 150.789062 31.117188 L 150.789062 27.984375 L 152.324219 27.984375 Z M 152.414062 27.359375 "/>
<path style=" stroke:none;fill-rule:nonzero;fill:rgb(0%,0%,0%);fill-opacity:1;" d="M 155.730469 32.582031 L 155.730469 32.214844 L 155.175781 32.1875 C 154.785156 32.164062 154.734375 32.074219 154.734375 31.328125 L 154.734375 27.007812 L 154.640625 26.957031 C 154.039062 27.21875 153.410156 27.378906 152.78125 27.449219 L 152.78125 27.773438 L 153.222656 27.773438 C 153.691406 27.773438 153.742188 27.863281 153.742188 28.660156 L 153.742188 31.328125 C 153.742188 32.074219 153.710938 32.164062 153.296875 32.1875 L 152.761719 32.214844 L 152.761719 32.582031 C 153.253906 32.5625 153.742188 32.53125 154.246094 32.53125 C 154.734375 32.53125 155.226562 32.5625 155.730469 32.582031 Z M 154.824219 25.5 C 154.824219 25.148438 154.597656 24.894531 154.246094 24.894531 C 153.878906 24.894531 153.640625 25.148438 153.640625 25.5 C 153.640625 25.84375 153.878906 26.082031 154.246094 26.082031 C 154.597656 26.082031 154.824219 25.84375 154.824219 25.5 Z M 154.824219 25.5 "/>
<path style=" stroke:none;fill-rule:nonzero;fill:rgb(0%,0%,0%);fill-opacity:1;" d="M 162.621094 35.875 L 162.621094 35.53125 L 162.066406 35.488281 C 161.675781 35.46875 161.625 35.367188 161.625 34.621094 L 161.625 28.75 C 161.625 28.003906 161.695312 27.566406 161.90625 27.125 L 161.675781 26.984375 L 161.089844 27.359375 C 160.492188 27.078125 159.976562 26.957031 159.464844 26.957031 C 159.117188 26.957031 158.699219 27.054688 158.539062 27.167969 L 157.542969 27.796875 C 156.769531 28.28125 156.378906 29.078125 156.378906 30.125 C 156.378906 31.675781 157.308594 32.671875 158.789062 32.671875 C 159.046875 32.671875 159.238281 32.628906 159.394531 32.53125 L 160.628906 31.746094 L 160.628906 34.621094 C 160.628906 35.367188 160.582031 35.46875 160.183594 35.488281 L 159.511719 35.53125 L 159.511719 35.875 C 160.046875 35.855469 160.601562 35.835938 161.160156 35.835938 C 161.644531 35.835938 162.132812 35.855469 162.621094 35.875 Z M 160.628906 31.117188 C 160.628906 31.277344 160.351562 31.585938 160.023438 31.765625 C 159.746094 31.90625 159.464844 32.003906 159.1875 32.003906 C 158.140625 32.003906 157.398438 31.027344 157.398438 29.589844 C 157.398438 28.28125 158.070312 27.519531 159.214844 27.519531 C 159.792969 27.519531 160.210938 27.65625 160.628906 28.003906 Z M 160.628906 31.117188 "/>
<path style=" stroke:none;fill-rule:nonzero;fill:rgb(0%,0%,0%);fill-opacity:1;" d="M 169.519531 32.582031 L 169.519531 32.214844 L 169.03125 32.1875 C 168.632812 32.164062 168.613281 32.09375 168.613281 31.328125 L 168.613281 27.007812 L 168.496094 26.957031 C 167.890625 27.21875 167.261719 27.378906 166.636719 27.449219 L 166.636719 27.773438 L 167.078125 27.773438 C 167.542969 27.773438 167.609375 27.863281 167.609375 28.660156 L 167.609375 30.582031 C 167.609375 30.839844 167.429688 31.1875 167.171875 31.449219 C 166.824219 31.792969 166.453125 31.953125 165.988281 31.953125 C 165.566406 31.953125 165.242188 31.816406 165.03125 31.609375 C 164.871094 31.398438 164.804688 31.027344 164.804688 30.511719 L 164.804688 27.007812 L 164.683594 26.957031 C 164.085938 27.21875 163.457031 27.378906 162.832031 27.449219 L 162.832031 27.773438 L 163.269531 27.773438 C 163.757812 27.773438 163.804688 27.863281 163.804688 28.660156 L 163.804688 30.652344 C 163.804688 31.46875 163.875 31.835938 164.085938 32.144531 C 164.335938 32.492188 164.804688 32.671875 165.480469 32.671875 C 166.007812 32.671875 166.472656 32.511719 166.804688 32.214844 L 167.609375 31.46875 C 167.609375 31.816406 167.589844 32.003906 167.542969 32.582031 C 167.890625 32.5625 168.21875 32.53125 168.542969 32.53125 C 168.867188 32.53125 169.191406 32.5625 169.519531 32.582031 Z M 169.519531 32.582031 "/>
<path style=" stroke:none;fill-rule:nonzero;fill:rgb(0%,0%,0%);fill-opacity:1;" d="M 175.105469 29.21875 C 175.105469 27.84375 174.222656 26.957031 172.90625 26.957031 C 172.457031 26.957031 171.953125 27.125 171.464844 27.40625 C 170.488281 27.964844 170.09375 28.703125 170.09375 29.933594 C 170.09375 30.679688 170.25 31.328125 170.605469 31.765625 C 171.0625 32.390625 171.882812 32.769531 172.765625 32.769531 C 173.203125 32.769531 173.644531 32.671875 174.132812 32.460938 C 174.457031 32.324219 174.691406 32.1875 174.757812 32.125 L 175 31.695312 L 174.828125 31.585938 C 174.0625 32.023438 173.8125 32.144531 173.292969 32.144531 C 172.507812 32.144531 171.882812 31.792969 171.535156 31.207031 C 171.324219 30.820312 171.234375 30.492188 171.207031 29.792969 L 172.949219 29.792969 C 173.761719 29.792969 174.273438 29.773438 175.085938 29.636719 C 175.105469 29.46875 175.105469 29.355469 175.105469 29.21875 Z M 174.0625 29.355469 L 172.71875 29.398438 C 172.183594 29.398438 171.882812 29.378906 171.234375 29.328125 C 171.234375 28.773438 171.277344 28.492188 171.4375 28.191406 C 171.671875 27.683594 172.183594 27.359375 172.765625 27.359375 C 173.15625 27.359375 173.464844 27.492188 173.667969 27.824219 C 173.949219 28.214844 174.0625 28.5625 174.0625 29.355469 Z M 174.0625 29.355469 "/>
<path style=" stroke:none;fill-rule:nonzero;fill:rgb(0%,0%,0%);fill-opacity:1;" d="M 88.441406 47.433594 L 88.441406 47.0625 L 87.976562 47.039062 C 87.695312 47.039062 87.648438 46.949219 87.648438 46.339844 L 87.648438 44.183594 C 87.648438 42.441406 87.140625 41.816406 85.769531 41.816406 C 85.261719 41.816406 84.769531 41.953125 84.332031 42.210938 L 83.707031 42.601562 L 83.707031 43.367188 L 84.003906 43.464844 L 84.164062 43.089844 C 84.402344 42.53125 84.542969 42.441406 85.078125 42.441406 C 86.191406 42.441406 86.648438 42.878906 86.699219 43.972656 L 85.515625 44.183594 C 83.910156 44.484375 83.214844 45.039062 83.214844 46.0625 C 83.214844 46.992188 83.777344 47.527344 84.722656 47.527344 C 84.933594 47.527344 85.148438 47.503906 85.210938 47.433594 L 86.699219 46.414062 L 86.632812 47.433594 C 86.953125 47.414062 87.261719 47.386719 87.558594 47.386719 C 87.867188 47.386719 88.132812 47.414062 88.441406 47.433594 Z M 86.699219 45.925781 C 86.351562 46.414062 85.605469 46.859375 85.148438 46.859375 C 84.65625 46.859375 84.234375 46.414062 84.234375 45.90625 C 84.234375 45.457031 84.492188 45.039062 84.839844 44.808594 C 85.148438 44.648438 85.796875 44.484375 86.699219 44.34375 Z M 86.699219 45.925781 "/>
<path style=" stroke:none;fill-rule:nonzero;fill:rgb(0%,0%,0%);fill-opacity:1;" d="M 94.773438 42.25 L 94.773438 41.929688 C 94.40625 41.953125 94.03125 41.972656 93.660156 41.972656 C 93.292969 41.972656 92.914062 41.953125 92.546875 41.929688 L 92.546875 42.25 L 93.03125 42.28125 C 93.402344 42.300781 93.402344 42.648438 93.082031 43.464844 L 92.597656 44.71875 L 91.851562 46.390625 L 90.433594 42.976562 C 90.296875 42.625 90.246094 42.300781 90.617188 42.28125 L 91.203125 42.25 L 91.203125 41.929688 C 90.738281 41.953125 90.269531 41.972656 89.808594 41.972656 C 89.339844 41.972656 88.902344 41.953125 88.4375 41.929688 L 88.4375 42.25 L 88.832031 42.28125 C 89.0625 42.300781 89.085938 42.402344 89.203125 42.667969 L 91.246094 47.476562 L 91.851562 47.476562 C 91.921875 47.085938 92.109375 46.710938 92.335938 46.183594 L 93.730469 43.089844 C 94.011719 42.488281 94.167969 42.300781 94.40625 42.28125 Z M 94.773438 42.25 "/>
<path style=" stroke:none;fill-rule:nonzero;fill:rgb(0%,0%,0%);fill-opacity:1;" d="M 99.933594 44.070312 C 99.933594 42.695312 99.046875 41.816406 97.722656 41.816406 C 97.285156 41.816406 96.777344 41.972656 96.289062 42.25 C 95.3125 42.808594 94.914062 43.554688 94.914062 44.789062 C 94.914062 45.527344 95.074219 46.183594 95.425781 46.625 C 95.890625 47.25 96.707031 47.617188 97.582031 47.617188 C 98.03125 47.617188 98.46875 47.527344 98.957031 47.316406 C 99.285156 47.179688 99.515625 47.039062 99.582031 46.96875 L 99.8125 46.550781 L 99.65625 46.433594 C 98.890625 46.878906 98.628906 46.992188 98.121094 46.992188 C 97.335938 46.992188 96.707031 46.640625 96.355469 46.0625 C 96.152344 45.667969 96.050781 45.34375 96.03125 44.648438 L 97.773438 44.648438 C 98.585938 44.648438 99.09375 44.628906 99.910156 44.484375 C 99.933594 44.324219 99.933594 44.203125 99.933594 44.070312 Z M 98.890625 44.203125 L 97.539062 44.253906 C 97.003906 44.253906 96.707031 44.230469 96.050781 44.183594 C 96.050781 43.625 96.101562 43.34375 96.257812 43.046875 C 96.496094 42.53125 97.003906 42.210938 97.582031 42.210938 C 97.980469 42.210938 98.28125 42.351562 98.488281 42.667969 C 98.769531 43.070312 98.890625 43.414062 98.890625 44.203125 Z M 98.890625 44.203125 "/>
<path style=" stroke:none;fill-rule:nonzero;fill:rgb(0%,0%,0%);fill-opacity:1;" d="M 105.199219 46.828125 L 105.082031 46.667969 C 104.640625 46.898438 104.273438 47.019531 103.847656 47.019531 C 102.53125 47.019531 101.644531 45.992188 101.644531 44.414062 C 101.644531 43.140625 102.246094 42.421875 103.316406 42.421875 C 103.847656 42.421875 104.410156 42.667969 104.613281 42.976562 L 104.710938 43.695312 L 105.035156 43.695312 C 105.035156 43.140625 105.101562 42.648438 105.199219 42.230469 C 104.734375 41.953125 104.316406 41.816406 103.824219 41.816406 C 103.246094 41.816406 102.601562 42.042969 101.875 42.488281 C 101.039062 43.019531 100.601562 43.835938 100.601562 44.878906 C 100.601562 46.503906 101.734375 47.617188 103.339844 47.617188 C 103.945312 47.617188 104.851562 47.414062 104.960938 47.230469 Z M 105.199219 46.828125 "/>
<path style=" stroke:none;fill-rule:nonzero;fill:rgb(0%,0%,0%);fill-opacity:1;" d="M 111.761719 47.433594 L 111.761719 47.0625 L 111.203125 47.039062 C 110.808594 47.019531 110.757812 46.921875 110.757812 46.183594 L 110.757812 38.839844 L 110.667969 38.75 C 110.132812 38.957031 109.738281 39.058594 108.808594 39.1875 L 108.808594 39.535156 L 109.460938 39.535156 C 109.695312 39.535156 109.761719 39.652344 109.761719 40.019531 L 109.761719 46.183594 C 109.761719 46.921875 109.738281 47.019531 109.316406 47.039062 L 108.789062 47.0625 L 108.789062 47.433594 C 109.273438 47.414062 109.761719 47.386719 110.273438 47.386719 C 110.757812 47.386719 111.246094 47.414062 111.761719 47.433594 Z M 111.761719 47.433594 "/>
<path style=" stroke:none;fill-rule:nonzero;fill:rgb(0%,0%,0%);fill-opacity:1;" d="M 117.585938 47.433594 L 117.585938 47.0625 L 117.121094 47.039062 C 116.847656 47.039062 116.800781 46.949219 116.800781 46.339844 L 116.800781 44.183594 C 116.800781 42.441406 116.292969 41.816406 114.917969 41.816406 C 114.410156 41.816406 113.917969 41.953125 113.476562 42.210938 L 112.847656 42.601562 L 112.847656 43.367188 L 113.152344 43.464844 L 113.316406 43.089844 C 113.546875 42.53125 113.6875 42.441406 114.222656 42.441406 C 115.335938 42.441406 115.804688 42.878906 115.847656 43.972656 L 114.660156 44.183594 C 113.058594 44.484375 112.363281 45.039062 112.363281 46.0625 C 112.363281 46.992188 112.917969 47.527344 113.871094 47.527344 C 114.082031 47.527344 114.289062 47.503906 114.363281 47.433594 L 115.847656 46.414062 L 115.777344 47.433594 C 116.101562 47.414062 116.402344 47.386719 116.707031 47.386719 C 117.007812 47.386719 117.285156 47.414062 117.585938 47.433594 Z M 115.847656 45.925781 C 115.496094 46.414062 114.75 46.859375 114.289062 46.859375 C 113.804688 46.859375 113.386719 46.414062 113.386719 45.90625 C 113.386719 45.457031 113.636719 45.039062 113.988281 44.808594 C 114.289062 44.648438 114.941406 44.484375 115.847656 44.34375 Z M 115.847656 45.925781 "/>
<path style=" stroke:none;fill-rule:nonzero;fill:rgb(0%,0%,0%);fill-opacity:1;" d="M 127.5 44.160156 C 127.5 42.839844 126.40625 41.816406 125.011719 41.816406 C 124.574219 41.816406 124.15625 41.929688 123.96875 42.113281 L 122.992188 42.996094 L 122.992188 41.863281 L 122.875 41.816406 C 122.273438 42.070312 121.648438 42.230469 121.023438 42.300781 L 121.023438 42.625 L 121.460938 42.625 C 121.945312 42.625 121.996094 42.71875 121.996094 43.515625 L 121.996094 49.476562 C 121.996094 50.222656 121.945312 50.3125 121.550781 50.335938 L 120.992188 50.382812 L 120.992188 50.730469 C 121.507812 50.710938 121.996094 50.6875 122.484375 50.6875 C 122.992188 50.6875 123.480469 50.710938 123.96875 50.730469 L 123.96875 50.382812 L 123.433594 50.335938 C 123.015625 50.3125 122.992188 50.222656 122.992188 49.476562 L 122.992188 47.230469 C 123.34375 47.457031 123.710938 47.527344 124.246094 47.527344 C 124.597656 47.527344 124.921875 47.457031 125.105469 47.335938 L 126.457031 46.460938 C 126.941406 46.152344 127.5 44.925781 127.5 44.160156 Z M 126.457031 44.597656 C 126.457031 45.945312 125.660156 46.921875 124.597656 46.921875 C 123.949219 46.921875 123.457031 46.710938 122.992188 46.222656 L 122.992188 43.742188 C 122.992188 43.578125 123.042969 43.464844 123.203125 43.253906 C 123.550781 42.808594 124.039062 42.578125 124.617188 42.578125 C 125.730469 42.578125 126.457031 43.367188 126.457031 44.597656 Z M 126.457031 44.597656 "/>
<path style=" stroke:none;fill-rule:nonzero;fill:rgb(0%,0%,0%);fill-opacity:1;" d="M 133.367188 44.070312 C 133.367188 42.695312 132.488281 41.816406 131.164062 41.816406 C 130.71875 41.816406 130.207031 41.972656 129.722656 42.25 C 128.75 42.808594 128.351562 43.554688 128.351562 44.789062 C 128.351562 45.527344 128.519531 46.183594 128.863281 46.625 C 129.328125 47.25 130.144531 47.617188 131.023438 47.617188 C 131.464844 47.617188 131.902344 47.527344 132.390625 47.316406 C 132.71875 47.179688 132.945312 47.039062 133.015625 46.96875 L 133.253906 46.550781 L 133.089844 46.433594 C 132.320312 46.878906 132.070312 46.992188 131.554688 46.992188 C 130.769531 46.992188 130.144531 46.640625 129.792969 46.0625 C 129.582031 45.667969 129.484375 45.34375 129.46875 44.648438 L 131.207031 44.648438 C 132.023438 44.648438 132.53125 44.628906 133.347656 44.484375 C 133.367188 44.324219 133.367188 44.203125 133.367188 44.070312 Z M 132.320312 44.203125 L 130.976562 44.253906 C 130.441406 44.253906 130.144531 44.230469 129.484375 44.183594 C 129.484375 43.625 129.53125 43.34375 129.703125 43.046875 C 129.933594 42.53125 130.441406 42.210938 131.023438 42.210938 C 131.417969 42.210938 131.714844 42.351562 131.933594 42.667969 C 132.210938 43.070312 132.320312 43.414062 132.320312 44.203125 Z M 132.320312 44.203125 "/>
<path style=" stroke:none;fill-rule:nonzero;fill:rgb(0%,0%,0%);fill-opacity:1;" d="M 140.535156 47.433594 L 140.535156 47.0625 L 140.050781 47.039062 C 139.632812 47.019531 139.613281 46.949219 139.613281 46.183594 L 139.613281 43.886719 C 139.613281 42.488281 138.960938 41.816406 137.609375 41.816406 C 137.171875 41.816406 136.941406 41.878906 136.683594 42.113281 L 135.777344 42.878906 L 135.777344 41.863281 L 135.65625 41.816406 C 135.058594 42.070312 134.453125 42.230469 133.828125 42.300781 L 133.828125 42.625 L 134.265625 42.625 C 134.734375 42.625 134.78125 42.71875 134.78125 43.515625 L 134.78125 46.183594 C 134.78125 46.921875 134.753906 47.019531 134.335938 47.039062 L 133.804688 47.0625 L 133.804688 47.433594 C 134.292969 47.414062 134.804688 47.386719 135.289062 47.386719 C 135.777344 47.386719 136.269531 47.414062 136.753906 47.433594 L 136.753906 47.0625 L 136.21875 47.039062 C 135.828125 47.019531 135.777344 46.921875 135.777344 46.183594 L 135.777344 43.648438 C 135.777344 43.117188 136.566406 42.53125 137.289062 42.53125 C 138.078125 42.53125 138.613281 43.140625 138.613281 44.042969 L 138.613281 47.433594 C 138.914062 47.414062 139.242188 47.386719 139.542969 47.386719 C 139.886719 47.386719 140.21875 47.414062 140.535156 47.433594 Z M 140.535156 47.433594 "/>
<path style=" stroke:none;fill-rule:nonzero;fill:rgb(0%,0%,0%);fill-opacity:1;" d="M 144.4375 42.210938 L 142.808594 42.28125 L 142.808594 41.816406 C 142.808594 41.324219 142.855469 40.886719 142.949219 40.140625 L 142.808594 40 C 142.507812 40.191406 142.160156 40.328125 141.789062 40.464844 C 141.832031 40.816406 141.832031 41.050781 141.832031 41.394531 L 141.832031 42.230469 L 140.90625 42.648438 L 140.90625 42.878906 L 141.808594 42.839844 L 141.808594 46.273438 C 141.808594 47.15625 142.210938 47.527344 143.113281 47.527344 C 143.394531 47.527344 143.691406 47.476562 143.765625 47.386719 L 144.320312 46.757812 L 144.179688 46.550781 C 143.878906 46.710938 143.691406 46.78125 143.460938 46.78125 C 142.996094 46.78125 142.808594 46.550781 142.808594 45.96875 L 142.808594 42.839844 L 144.339844 42.839844 Z M 144.4375 42.210938 "/>
<path style=" stroke:none;fill-rule:nonzero;fill:rgb(0%,0%,0%);fill-opacity:1;" d="M 149.839844 44.070312 C 149.839844 42.695312 148.960938 41.816406 147.636719 41.816406 C 147.195312 41.816406 146.679688 41.972656 146.195312 42.25 C 145.214844 42.808594 144.820312 43.554688 144.820312 44.789062 C 144.820312 45.527344 144.988281 46.183594 145.335938 46.625 C 145.800781 47.25 146.609375 47.617188 147.496094 47.617188 C 147.933594 47.617188 148.382812 47.527344 148.867188 47.316406 C 149.191406 47.179688 149.425781 47.039062 149.496094 46.96875 L 149.726562 46.550781 L 149.558594 46.433594 C 148.792969 46.878906 148.539062 46.992188 148.027344 46.992188 C 147.238281 46.992188 146.609375 46.640625 146.261719 46.0625 C 146.054688 45.667969 145.960938 45.34375 145.933594 44.648438 L 147.679688 44.648438 C 148.492188 44.648438 149 44.628906 149.816406 44.484375 C 149.839844 44.324219 149.839844 44.203125 149.839844 44.070312 Z M 148.792969 44.203125 L 147.445312 44.253906 C 146.914062 44.253906 146.609375 44.230469 145.960938 44.183594 C 145.960938 43.625 146.003906 43.34375 146.171875 43.046875 C 146.402344 42.53125 146.914062 42.210938 147.496094 42.210938 C 147.882812 42.210938 148.191406 42.351562 148.402344 42.667969 C 148.679688 43.070312 148.792969 43.414062 148.792969 44.203125 Z M 148.792969 44.203125 "/>
<path style=" stroke:none;fill-rule:nonzero;fill:rgb(0%,0%,0%);fill-opacity:1;" d="M 158.5 44.070312 C 158.5 42.695312 157.613281 41.816406 156.289062 41.816406 C 155.851562 41.816406 155.339844 41.972656 154.855469 42.25 C 153.878906 42.808594 153.480469 43.554688 153.480469 44.789062 C 153.480469 45.527344 153.640625 46.183594 153.988281 46.625 C 154.457031 47.25 155.273438 47.617188 156.148438 47.617188 C 156.597656 47.617188 157.035156 47.527344 157.523438 47.316406 C 157.851562 47.179688 158.078125 47.039062 158.148438 46.96875 L 158.378906 46.550781 L 158.21875 46.433594 C 157.453125 46.878906 157.195312 46.992188 156.6875 46.992188 C 155.902344 46.992188 155.273438 46.640625 154.921875 46.0625 C 154.714844 45.667969 154.617188 45.34375 154.597656 44.648438 L 156.339844 44.648438 C 157.152344 44.648438 157.660156 44.628906 158.476562 44.484375 C 158.5 44.324219 158.5 44.203125 158.5 44.070312 Z M 157.453125 44.203125 L 156.105469 44.253906 C 155.570312 44.253906 155.273438 44.230469 154.617188 44.183594 C 154.617188 43.625 154.667969 43.34375 154.824219 43.046875 C 155.0625 42.53125 155.570312 42.210938 156.148438 42.210938 C 156.546875 42.210938 156.84375 42.351562 157.054688 42.667969 C 157.335938 43.070312 157.453125 43.414062 157.453125 44.203125 Z M 157.453125 44.203125 "/>
<path style=" stroke:none;fill-rule:nonzero;fill:rgb(0%,0%,0%);fill-opacity:1;" d="M 165.664062 47.433594 L 165.664062 47.0625 L 165.179688 47.039062 C 164.761719 47.019531 164.742188 46.949219 164.742188 46.183594 L 164.742188 43.886719 C 164.742188 42.488281 164.085938 41.816406 162.742188 41.816406 C 162.300781 41.816406 162.066406 41.878906 161.8125 42.113281 L 160.90625 42.878906 L 160.90625 41.863281 L 160.792969 41.816406 C 160.183594 42.070312 159.582031 42.230469 158.957031 42.300781 L 158.957031 42.625 L 159.394531 42.625 C 159.863281 42.625 159.90625 42.71875 159.90625 43.515625 L 159.90625 46.183594 C 159.90625 46.921875 159.886719 47.019531 159.464844 47.039062 L 158.929688 47.0625 L 158.929688 47.433594 C 159.417969 47.414062 159.933594 47.386719 160.421875 47.386719 C 160.90625 47.386719 161.398438 47.414062 161.882812 47.433594 L 161.882812 47.0625 L 161.347656 47.039062 C 160.949219 47.019531 160.90625 46.921875 160.90625 46.183594 L 160.90625 43.648438 C 160.90625 43.117188 161.695312 42.53125 162.414062 42.53125 C 163.207031 42.53125 163.734375 43.140625 163.734375 44.042969 L 163.734375 47.433594 C 164.042969 47.414062 164.363281 47.386719 164.671875 47.386719 C 165.019531 47.386719 165.347656 47.414062 165.664062 47.433594 Z M 165.664062 47.433594 "/>
<path style=" stroke:none;fill-rule:nonzero;fill:rgb(0%,0%,0%);fill-opacity:1;" d="M 175.601562 44.667969 C 175.601562 44.070312 175.371094 43.578125 174.90625 43.253906 C 174.464844 42.929688 174.046875 42.808594 173.140625 42.738281 C 173.722656 42.625 174 42.53125 174.328125 42.300781 C 174.90625 41.902344 175.203125 41.394531 175.203125 40.765625 C 175.203125 39.726562 174.507812 39.167969 173.070312 39.167969 C 172.351562 39.167969 171.652344 39.1875 170.933594 39.1875 C 170.304688 39.1875 169.679688 39.1875 169.050781 39.167969 L 169.050781 39.515625 L 169.492188 39.5625 C 170.050781 39.613281 170.097656 39.675781 170.097656 40.628906 L 170.097656 46.253906 C 170.097656 46.6875 170.007812 46.96875 169.839844 47.039062 L 169.519531 47.15625 L 169.519531 47.433594 C 169.957031 47.414062 170.398438 47.386719 170.816406 47.386719 C 171.300781 47.386719 171.816406 47.433594 172.308594 47.433594 C 173.160156 47.433594 173.949219 47.199219 174.484375 46.808594 C 175.183594 46.320312 175.601562 45.507812 175.601562 44.667969 Z M 174.367188 44.925781 C 174.367188 46.183594 173.5625 46.921875 172.140625 46.921875 C 171.789062 46.921875 171.511719 46.898438 171.214844 46.828125 L 171.214844 43.089844 C 171.675781 43.070312 171.789062 43.070312 172.027344 43.070312 C 173.632812 43.070312 174.367188 43.648438 174.367188 44.925781 Z M 174.019531 41.050781 C 174.019531 42.09375 173.300781 42.648438 171.957031 42.648438 C 171.746094 42.648438 171.585938 42.648438 171.214844 42.625 L 171.214844 39.726562 C 171.542969 39.652344 171.816406 39.632812 172.1875 39.632812 C 173.464844 39.632812 174.019531 40.070312 174.019531 41.050781 Z M 174.019531 41.050781 "/>
<path style=" stroke:none;fill-rule:nonzero;fill:rgb(0%,0%,0%);fill-opacity:1;" d="M 182.382812 39.1875 L 180.941406 39.167969 C 180.082031 39.1875 179.214844 39.1875 178.363281 39.1875 C 177.667969 39.1875 176.96875 39.1875 176.269531 39.167969 L 176.269531 39.515625 L 176.851562 39.5625 C 177.382812 39.585938 177.457031 39.675781 177.457031 40.628906 L 177.457031 45.96875 C 177.457031 46.898438 177.382812 46.992188 176.851562 47.039062 L 176.269531 47.0625 L 176.269531 47.433594 C 176.851562 47.414062 177.425781 47.386719 178.011719 47.386719 C 178.589844 47.386719 179.167969 47.414062 179.757812 47.433594 L 179.757812 47.0625 L 179.199219 47.039062 C 178.640625 46.992188 178.589844 46.898438 178.589844 45.96875 L 178.589844 43.515625 L 180.5 43.464844 C 181.011719 43.464844 181.238281 43.515625 181.308594 43.902344 C 181.355469 44.160156 181.378906 44.597656 181.378906 44.597656 L 181.726562 44.597656 C 181.707031 44.160156 181.707031 43.71875 181.707031 43.277344 C 181.707031 42.808594 181.707031 42.371094 181.726562 41.902344 L 181.378906 41.902344 L 181.308594 42.53125 C 181.285156 42.929688 180.980469 42.976562 180.453125 42.976562 C 179.824219 42.976562 179.101562 42.976562 178.589844 42.929688 L 178.589844 39.746094 C 178.941406 39.675781 179.152344 39.652344 179.84375 39.652344 C 180.425781 39.652344 181.101562 39.726562 181.449219 39.8125 C 181.753906 39.882812 181.777344 39.953125 181.777344 40.234375 L 181.777344 41 L 182.191406 41 C 182.191406 40.28125 182.261719 39.726562 182.382812 39.1875 Z M 182.382812 39.1875 "/>
<path style=" stroke:none;fill-rule:nonzero;fill:rgb(0%,0%,0%);fill-opacity:1;" d="M 426.269531 41.21875 C 426.355469 39.8125 425.769531 38.859375 424.855469 38.859375 C 424.53125 38.859375 424.28125 38.945312 424.027344 39.148438 L 422.789062 40.265625 L 423.035156 40.726562 C 423.285156 40.601562 423.449219 40.515625 423.703125 40.515625 C 424.40625 40.515625 424.695312 41.0625 424.65625 42.050781 C 424.488281 45.667969 421.992188 49.609375 419.84375 49.609375 C 418.636719 49.609375 417.933594 48.617188 418.015625 46.992188 C 418.015625 46.660156 418.058594 46.328125 418.21875 45.707031 L 418.761719 43.84375 C 418.886719 43.421875 419.054688 43.089844 419.210938 42.675781 L 418.929688 42.300781 L 417.347656 42.972656 L 416.558594 45.910156 C 416.226562 46.746094 415.9375 47.777344 415.195312 48.363281 C 414.480469 48.941406 413.78125 49.359375 412.953125 49.359375 C 412.25 49.359375 411.660156 49.023438 411.292969 48.53125 C 410.792969 47.988281 410.664062 47.117188 410.707031 46.371094 C 410.832031 44.125 411.496094 42.175781 413.65625 40.183594 C 413.945312 39.980469 414.398438 39.5625 414.691406 39.269531 L 414.316406 38.859375 C 413.65625 39.3125 412.53125 40.105469 411.871094 40.683594 C 410.003906 42.300781 408.964844 44.417969 408.882812 46.285156 C 408.800781 47.699219 408.839844 48.898438 409.585938 49.855469 C 410.085938 50.480469 410.664062 50.804688 411.539062 50.804688 C 412.25 50.804688 413.199219 50.4375 413.863281 50.058594 C 414.859375 49.527344 415.355469 49.023438 416.226562 48.320312 C 416.394531 49.8125 417.390625 50.804688 418.761719 50.804688 C 419.84375 50.804688 420.839844 50.355469 422.035156 49.234375 C 423.160156 48.238281 424.28125 46.703125 425.066406 45.164062 C 425.730469 43.886719 426.230469 42.257812 426.269531 41.21875 Z M 426.269531 41.21875 "/>
</g>
</svg>
