<?xml version="1.0" encoding="UTF-8"?>
<svg xmlns="http://www.w3.org/2000/svg" xmlns:xlink="http://www.w3.org/1999/xlink" width="464.355011pt" height="243.293243pt" viewBox="0 0 464.355011 243.293243" version="1.2">
<defs>
<clipPath id="clip1">
  <path d="M 0.351562 100 L 241 100 L 241 106 L 0.351562 106 Z M 0.351562 100 "/>
</clipPath>
<clipPath id="clip2">
  <path d="M 269 59 L 463.359375 59 L 463.359375 65 L 269 65 Z M 269 59 "/>
</clipPath>
<clipPath id="clip3">
  <path d="M 269 161 L 463.359375 161 L 463.359375 168 L 269 168 Z M 269 161 "/>
</clipPath>
<clipPath id="clip4">
  <path d="M 282 177 L 410 177 L 410 242.589844 L 282 242.589844 Z M 282 177 "/>
</clipPath>
</defs>
<g id="surface1">
<path style=" stroke:none;fill-rule:nonzero;fill:rgb(0%,0%,0%);fill-opacity:1;" d="M 106.839844 189.105469 L 106.839844 33.210938 L 106.996094 33.054688 L 107.144531 33.210938 L 107.144531 189.105469 L 106.996094 189.253906 Z M 104.382812 34.59375 L 106.996094 29.375 L 109.597656 34.59375 "/>
<g clip-path="url(#clip1)" clip-rule="nonzero">
<path style=" stroke:none;fill-rule:nonzero;fill:rgb(0%,0%,0%);fill-opacity:1;" d="M 0.507812 103.175781 L 236.339844 103.175781 L 236.496094 103.332031 L 236.339844 103.484375 L 0.507812 103.484375 L 0.351562 103.332031 Z M 234.957031 100.878906 L 240.175781 103.332031 L 234.957031 105.9375 "/>
</g>
<path style="fill:none;stroke-width:0.320585;stroke-linecap:round;stroke-linejoin:round;stroke:rgb(0%,0%,50.195312%);stroke-opacity:1;stroke-miterlimit:10;" d="M 40.163822 63.38281 L 40.163822 99.628422 " transform="matrix(0.997103,0,0,0.997103,0.350952,0)"/>
<path style=" stroke:none;fill-rule:nonzero;fill:rgb(0%,0%,0%);fill-opacity:1;" d="M 27.855469 93.609375 L 30.992188 93.609375 L 30.992188 94.410156 L 27.855469 94.410156 Z M 27.855469 93.609375 "/>
<path style=" stroke:none;fill-rule:nonzero;fill:rgb(0%,0%,0%);fill-opacity:1;" d="M 33.003906 96.886719 L 36.519531 96.886719 L 36.519531 96.6875 C 35.539062 96.6875 35.320312 96.546875 35.300781 95.949219 L 35.300781 88.316406 L 35.199219 88.273438 L 32.921875 89.433594 L 32.921875 89.613281 C 33.417969 89.433594 33.722656 89.339844 33.839844 89.339844 C 34.101562 89.339844 34.222656 89.535156 34.222656 89.933594 L 34.222656 95.710938 C 34.179688 96.507812 33.980469 96.6875 33.003906 96.6875 Z M 33.003906 96.886719 "/>
<path style="fill:none;stroke-width:1.282357;stroke-linecap:butt;stroke-linejoin:round;stroke:rgb(0%,0%,0%);stroke-opacity:1;stroke-miterlimit:10;" d="M 93.717379 86.241991 C 101.105968 86.241991 106.954941 94.398429 106.954941 104.55676 " transform="matrix(0.997103,0,0,0.997103,0.350952,0)"/>
<path style="fill:none;stroke-width:1.282357;stroke-linecap:butt;stroke-linejoin:round;stroke:rgb(0%,0%,0%);stroke-opacity:1;stroke-miterlimit:10;" d="M 93.717379 86.241991 C 79.100823 86.241991 67.250091 102.554867 67.250091 122.562038 " transform="matrix(0.997103,0,0,0.997103,0.350952,0)"/>
<path style="fill:none;stroke-width:1.282357;stroke-linecap:butt;stroke-linejoin:round;stroke:rgb(0%,0%,0%);stroke-opacity:1;stroke-miterlimit:10;" d="M 120.188586 183.03799 C 90.947638 183.03799 67.250091 155.951721 67.250091 122.562038 " transform="matrix(0.997103,0,0,0.997103,0.350952,0)"/>
<path style="fill:none;stroke-width:1.282357;stroke-linecap:butt;stroke-linejoin:round;stroke:rgb(0%,0%,0%);stroke-opacity:1;stroke-miterlimit:10;" d="M 120.031882 183.03799 C 166.196851 183.03799 203.747023 147.795283 203.747023 104.400056 " transform="matrix(0.997103,0,0,0.997103,0.350952,0)"/>
<path style=" stroke:none;fill-rule:nonzero;fill:rgb(0%,0%,0%);fill-opacity:1;" d="M 129.394531 181.277344 C 131.492188 182.085938 132.050781 182.625 129.550781 182.507812 Z M 134.609375 185.113281 L 128.320312 182.042969 L 133.847656 177.597656 C 134.148438 177.441406 134.457031 177.441406 134.765625 177.75 C 134.917969 178.058594 134.917969 178.359375 134.609375 178.671875 L 129.855469 182.351562 L 129.699219 181.277344 L 135.222656 183.886719 C 135.53125 184.039062 135.6875 184.5 135.53125 184.808594 C 135.378906 185.113281 134.917969 185.269531 134.609375 185.113281 "/>
<path style="fill:none;stroke-width:0.320585;stroke-linecap:round;stroke-linejoin:round;stroke:rgb(0%,0%,50.195312%);stroke-opacity:1;stroke-miterlimit:10;" d="M 70.329322 63.38281 L 70.329322 102.86044 " transform="matrix(0.997103,0,0,0.997103,0.350952,0)"/>
<path style=" stroke:none;fill-rule:nonzero;fill:rgb(0%,0%,50.195312%);fill-opacity:1;" d="M 57.386719 47.964844 L 55.09375 47.964844 L 52.554688 53.777344 L 49.898438 47.964844 L 47.621094 47.964844 L 47.621094 48.183594 C 48.558594 48.222656 48.699219 48.34375 48.71875 49.203125 L 48.71875 53.878906 C 48.699219 55.097656 48.539062 55.296875 47.601562 55.355469 L 47.601562 55.578125 L 50.296875 55.578125 L 50.296875 55.355469 C 49.417969 55.316406 49.238281 55.078125 49.222656 53.878906 L 49.222656 49.242188 L 52.113281 55.578125 L 52.273438 55.578125 L 55.210938 48.984375 L 55.210938 54.199219 C 55.210938 55.175781 55.074219 55.296875 54.175781 55.355469 L 54.175781 55.578125 L 57.386719 55.578125 L 57.386719 55.355469 C 56.570312 55.316406 56.410156 55.15625 56.390625 54.320312 L 56.390625 49.203125 C 56.410156 48.382812 56.550781 48.246094 57.386719 48.183594 Z M 57.386719 47.964844 "/>
<path style=" stroke:none;fill-rule:nonzero;fill:rgb(0%,0%,50.195312%);fill-opacity:1;" d="M 63.175781 54.851562 L 61.21875 54.851562 L 61.21875 54.992188 C 61.816406 55.03125 61.875 55.089844 61.894531 55.671875 L 61.894531 56.910156 C 61.894531 57.171875 61.433594 57.367188 60.878906 57.367188 C 59.621094 57.367188 58.859375 56.492188 58.859375 55.074219 C 58.859375 54.355469 59.078125 53.652344 59.417969 53.273438 C 59.738281 52.894531 60.214844 52.695312 60.757812 52.695312 C 61.175781 52.695312 61.554688 52.835938 61.855469 53.117188 C 62.074219 53.332031 62.195312 53.535156 62.394531 53.992188 L 62.578125 53.992188 L 62.515625 52.375 L 62.335938 52.375 C 62.296875 52.535156 62.15625 52.636719 61.996094 52.636719 C 61.914062 52.636719 61.796875 52.617188 61.65625 52.554688 C 61.320312 52.433594 60.957031 52.375 60.617188 52.375 C 59.078125 52.375 57.980469 53.511719 57.980469 55.074219 C 57.980469 55.828125 58.199219 56.410156 58.621094 56.851562 C 59.140625 57.386719 59.878906 57.667969 60.71875 57.667969 C 61.375 57.667969 62.335938 57.410156 62.636719 57.132812 L 62.636719 55.59375 C 62.652344 55.113281 62.734375 55.03125 63.175781 54.992188 Z M 63.175781 54.851562 "/>
<path style="fill:none;stroke-width:0.320585;stroke-linecap:round;stroke-linejoin:round;stroke:rgb(0%,0%,50.195312%);stroke-opacity:1;stroke-miterlimit:10;" d="M 106.492665 103.941697 L 74.787548 183.958626 " transform="matrix(0.997103,0,0,0.997103,0.350952,0)"/>
<path style="fill:none;stroke-width:0.320585;stroke-linecap:round;stroke-linejoin:round;stroke:rgb(0%,0%,50.195312%);stroke-opacity:1;stroke-miterlimit:10;" d="M 96.949397 168.260813 C 64.323645 163.336392 40.163822 135.642896 40.163822 102.86044 " transform="matrix(0.997103,0,0,0.997103,0.350952,0)"/>
<path style=" stroke:none;fill-rule:nonzero;fill:rgb(0%,0%,50.195312%);fill-opacity:1;" d="M 30.523438 148.871094 L 28.226562 148.871094 L 25.6875 154.6875 L 23.03125 148.871094 L 20.753906 148.871094 L 20.753906 149.09375 C 21.691406 149.132812 21.835938 149.253906 21.851562 150.109375 L 21.851562 154.789062 C 21.835938 156.003906 21.671875 156.207031 20.734375 156.265625 L 20.734375 156.484375 L 23.433594 156.484375 L 23.433594 156.265625 C 22.550781 156.226562 22.371094 155.984375 22.351562 154.789062 L 22.351562 150.148438 L 25.25 156.484375 L 25.410156 156.484375 L 28.347656 149.890625 L 28.347656 155.109375 C 28.347656 156.085938 28.207031 156.207031 27.308594 156.265625 L 27.308594 156.484375 L 30.523438 156.484375 L 30.523438 156.265625 C 29.703125 156.226562 29.542969 156.066406 29.523438 155.226562 L 29.523438 150.109375 C 29.542969 149.292969 29.683594 149.152344 30.523438 149.09375 Z M 30.523438 148.871094 "/>
<path style=" stroke:none;fill-rule:nonzero;fill:rgb(0%,0%,50.195312%);fill-opacity:1;" d="M 32.796875 154.582031 L 32.796875 154.761719 C 32.257812 154.960938 31.996094 155.460938 31.996094 156.300781 C 31.996094 157.378906 32.378906 158.035156 33.035156 158.136719 L 32.980469 156.039062 L 32.980469 155.921875 C 32.980469 155.839844 32.980469 155.761719 32.980469 155.738281 C 32.980469 155.023438 33.355469 154.542969 33.9375 154.542969 C 34.714844 154.542969 35.375 155.417969 35.375 156.421875 C 35.375 157.519531 34.554688 158.457031 33.554688 158.476562 L 33.554688 160.175781 L 33.035156 160.175781 L 33.035156 158.476562 C 31.957031 158.417969 31.160156 157.539062 31.160156 156.402344 C 31.160156 155.738281 31.417969 155.222656 31.917969 154.882812 C 32.195312 154.683594 32.4375 154.601562 32.796875 154.582031 Z M 33.554688 158.15625 C 34.257812 158.101562 34.714844 157.519531 34.714844 156.679688 C 34.714844 155.898438 34.277344 155.140625 33.855469 155.140625 C 33.59375 155.140625 33.457031 155.417969 33.457031 155.941406 C 33.457031 155.980469 33.457031 156.058594 33.457031 156.140625 Z M 33.554688 158.15625 "/>
<path style="fill:none;stroke-width:0.320585;stroke-linecap:round;stroke-linejoin:round;stroke:rgb(0%,0%,0%);stroke-opacity:1;stroke-miterlimit:10;" d="M 40.163822 109.633966 L 40.163822 99.628422 " transform="matrix(0.997103,0,0,0.997103,0.350952,0)"/>
<path style=" stroke:none;fill-rule:nonzero;fill:rgb(0%,0%,0%);fill-opacity:1;" d="M 308.691406 107.167969 L 308.691406 6.664062 L 308.847656 6.511719 L 309 6.664062 L 309 107.167969 L 308.847656 107.320312 Z M 306.238281 7.890625 L 308.847656 2.828125 L 311.460938 7.890625 "/>
<g clip-path="url(#clip2)" clip-rule="nonzero">
<path style=" stroke:none;fill-rule:nonzero;fill:rgb(0%,0%,0%);fill-opacity:1;" d="M 269.390625 62.367188 L 459.523438 62.367188 L 459.675781 62.511719 L 459.523438 62.671875 L 269.390625 62.671875 L 269.238281 62.511719 Z M 458.292969 59.90625 L 463.359375 62.511719 L 458.292969 64.972656 "/>
</g>
<path style=" stroke:none;fill-rule:nonzero;fill:rgb(0%,0%,0%);fill-opacity:1;" d="M 308.691406 230.835938 L 308.691406 130.027344 L 308.847656 129.878906 L 309 130.027344 L 309 230.835938 L 308.847656 230.992188 Z M 306.238281 131.410156 L 308.847656 126.191406 L 311.460938 131.410156 "/>
<g clip-path="url(#clip3)" clip-rule="nonzero">
<path style=" stroke:none;fill-rule:nonzero;fill:rgb(0%,0%,0%);fill-opacity:1;" d="M 269.390625 164.402344 L 459.523438 164.402344 L 459.675781 164.554688 L 459.523438 164.707031 L 269.390625 164.707031 L 269.238281 164.554688 Z M 458.292969 161.945312 L 463.359375 164.554688 L 458.292969 167.164062 "/>
</g>
<path style="fill:none;stroke-width:0.320585;stroke-linecap:round;stroke-linejoin:round;stroke:rgb(0%,0%,50.195312%);stroke-opacity:1;stroke-miterlimit:10;" d="M 381.406152 37.307281 L 381.406152 241.049774 " transform="matrix(0.997103,0,0,0.997103,0.350952,0)"/>
<path style="fill:none;stroke-width:1.282357;stroke-linecap:butt;stroke-linejoin:round;stroke:rgb(0%,0%,0%);stroke-opacity:1;stroke-miterlimit:10;" d="M 397.566241 98.402214 C 391.870055 95.162361 374.789329 85.16857 363.099219 78.23834 C 351.401272 71.472649 342.476985 64.699123 327.241449 57.46332 C 312.013747 50.235353 288.155578 40.386513 271.533212 34.53754 " transform="matrix(0.997103,0,0,0.997103,0.350952,0)"/>
<path style="fill:none;stroke-width:0.320585;stroke-linecap:round;stroke-linejoin:round;stroke:rgb(0%,0%,50.195312%);stroke-opacity:1;stroke-miterlimit:10;" d="M 309.698447 225.508665 L 406.490528 226.11981 " transform="matrix(0.997103,0,0,0.997103,0.350952,0)"/>
<g clip-path="url(#clip4)" clip-rule="nonzero">
<path style="fill:none;stroke-width:1.282357;stroke-linecap:butt;stroke-linejoin:round;stroke:rgb(0%,0%,0%);stroke-opacity:1;stroke-miterlimit:10;" d="M 409.413056 242.742176 C 403.724705 239.353454 386.487276 229.351828 374.789329 222.429433 C 363.099219 215.655907 354.171014 208.886299 338.943312 201.654414 C 323.703858 194.426446 299.853525 184.573689 283.387862 178.724715 " transform="matrix(0.997103,0,0,0.997103,0.350952,0)"/>
</g>
<path style="fill:none;stroke-width:0.320585;stroke-linecap:round;stroke-linejoin:round;stroke:rgb(0%,0%,50.195312%);stroke-opacity:1;stroke-miterlimit:10;" d="M 368.329211 88.702243 L 406.03217 88.091097 " transform="matrix(0.997103,0,0,0.997103,0.350952,0)"/>
<path style=" stroke:none;fill-rule:nonzero;fill:rgb(0%,0%,0%);fill-opacity:1;" d="M 270.777344 223.589844 L 273.613281 223.589844 L 273.613281 224.304688 L 270.777344 224.304688 Z M 270.777344 223.589844 "/>
<path style=" stroke:none;fill-rule:nonzero;fill:rgb(0%,0%,0%);fill-opacity:1;" d="M 278.441406 226.542969 L 281.621094 226.542969 L 281.621094 226.367188 C 280.738281 226.367188 280.539062 226.246094 280.515625 225.6875 L 280.515625 218.792969 L 280.4375 218.773438 L 278.363281 219.8125 L 278.363281 219.96875 C 278.804688 219.796875 279.082031 219.714844 279.183594 219.714844 C 279.441406 219.714844 279.539062 219.890625 279.539062 220.273438 L 279.539062 225.464844 C 279.519531 226.207031 279.320312 226.367188 278.441406 226.367188 Z M 278.441406 226.542969 "/>
<path style=" stroke:none;fill-rule:nonzero;fill:rgb(0%,0%,0%);fill-opacity:1;" d="M 286.253906 222.269531 C 287.410156 221.652344 287.792969 221.195312 287.792969 220.390625 C 287.792969 219.453125 286.972656 218.773438 285.816406 218.773438 C 284.554688 218.773438 283.636719 219.535156 283.636719 220.59375 C 283.636719 221.328125 283.855469 221.671875 285.054688 222.730469 C 283.796875 223.691406 283.554688 224.007812 283.554688 224.808594 C 283.554688 225.925781 284.457031 226.703125 285.777344 226.703125 C 287.15625 226.703125 288.03125 225.945312 288.03125 224.769531 C 288.03125 223.871094 287.652344 223.332031 286.253906 222.269531 Z M 286.050781 223.46875 C 286.894531 224.066406 287.167969 224.46875 287.167969 225.128906 C 287.167969 225.867188 286.652344 226.386719 285.890625 226.386719 C 285.015625 226.386719 284.4375 225.726562 284.4375 224.726562 C 284.4375 223.992188 284.671875 223.507812 285.355469 222.949219 Z M 285.914062 222.070312 C 284.894531 221.410156 284.472656 220.875 284.472656 220.230469 C 284.472656 219.554688 284.992188 219.09375 285.734375 219.09375 C 286.511719 219.09375 286.996094 219.59375 286.996094 220.390625 C 286.996094 221.089844 286.714844 221.550781 285.914062 222.070312 Z M 285.914062 222.070312 "/>
<path style=" stroke:none;fill-rule:nonzero;fill:rgb(0%,0%,0%);fill-opacity:1;" d="M 291.660156 218.773438 C 291.046875 218.773438 290.542969 218.953125 290.125 219.375 C 289.464844 220.011719 289.027344 221.328125 289.027344 222.667969 C 289.027344 223.949219 289.40625 225.285156 289.945312 225.925781 C 290.363281 226.425781 290.964844 226.703125 291.621094 226.703125 C 292.203125 226.703125 292.699219 226.507812 293.121094 226.105469 C 293.78125 225.464844 294.21875 224.148438 294.21875 222.746094 C 294.21875 220.390625 293.179688 218.773438 291.660156 218.773438 Z M 291.640625 219.074219 C 292.601562 219.074219 293.121094 220.371094 293.121094 222.769531 C 293.121094 225.164062 292.621094 226.40625 291.621094 226.40625 C 290.625 226.40625 290.125 225.164062 290.125 222.789062 C 290.125 220.332031 290.644531 219.074219 291.640625 219.074219 Z M 291.640625 219.074219 "/>
<path style=" stroke:none;fill-rule:nonzero;fill:rgb(0%,0%,0%);fill-opacity:1;" d="M 296.871094 218.773438 C 295.953125 218.773438 295.230469 219.496094 295.230469 220.410156 C 295.230469 221.308594 295.953125 222.050781 296.851562 222.050781 C 297.792969 222.050781 298.53125 221.351562 298.53125 220.433594 C 298.53125 219.496094 297.8125 218.773438 296.871094 218.773438 Z M 296.871094 219.152344 C 297.53125 219.152344 298.070312 219.734375 298.070312 220.410156 C 298.070312 221.113281 297.53125 221.671875 296.871094 221.671875 C 296.214844 221.671875 295.671875 221.089844 295.671875 220.410156 C 295.671875 219.714844 296.214844 219.152344 296.871094 219.152344 Z M 296.871094 219.152344 "/>
<path style=" stroke:none;fill-rule:nonzero;fill:rgb(0%,0%,50.195312%);fill-opacity:1;" d="M 420.355469 70.707031 L 418.054688 70.707031 L 415.515625 76.523438 L 412.859375 70.707031 L 410.582031 70.707031 L 410.582031 70.929688 C 411.519531 70.96875 411.660156 71.089844 411.679688 71.949219 L 411.679688 76.625 C 411.660156 77.84375 411.5 78.042969 410.5625 78.101562 L 410.5625 78.324219 L 413.261719 78.324219 L 413.261719 78.101562 C 412.382812 78.0625 412.203125 77.824219 412.179688 76.625 L 412.179688 71.988281 L 415.078125 78.324219 L 415.234375 78.324219 L 418.175781 71.730469 L 418.175781 76.945312 C 418.175781 77.921875 418.03125 78.042969 417.136719 78.101562 L 417.136719 78.324219 L 420.355469 78.324219 L 420.355469 78.101562 C 419.53125 78.0625 419.371094 77.902344 419.351562 77.066406 L 419.351562 71.949219 C 419.371094 71.128906 419.511719 70.988281 420.355469 70.929688 Z M 420.355469 70.707031 "/>
<path style=" stroke:none;fill-rule:nonzero;fill:rgb(0%,0%,50.195312%);fill-opacity:1;" d="M 426.132812 77.601562 L 424.179688 77.601562 L 424.179688 77.742188 C 424.777344 77.78125 424.835938 77.84375 424.855469 78.421875 L 424.855469 79.660156 C 424.855469 79.917969 424.394531 80.121094 423.839844 80.121094 C 422.582031 80.121094 421.820312 79.242188 421.820312 77.824219 C 421.820312 77.105469 422.039062 76.402344 422.378906 76.023438 C 422.699219 75.648438 423.175781 75.445312 423.71875 75.445312 C 424.140625 75.445312 424.515625 75.585938 424.816406 75.867188 C 425.035156 76.082031 425.15625 76.285156 425.359375 76.746094 L 425.535156 76.746094 L 425.476562 75.125 L 425.296875 75.125 C 425.257812 75.285156 425.117188 75.386719 424.957031 75.386719 C 424.875 75.386719 424.757812 75.367188 424.617188 75.304688 C 424.277344 75.183594 423.917969 75.125 423.578125 75.125 C 422.039062 75.125 420.941406 76.265625 420.941406 77.824219 C 420.941406 78.582031 421.160156 79.160156 421.582031 79.601562 C 422.097656 80.140625 422.839844 80.417969 423.675781 80.417969 C 424.339844 80.417969 425.296875 80.164062 425.59375 79.882812 L 425.59375 78.34375 C 425.617188 77.863281 425.699219 77.78125 426.132812 77.742188 Z M 426.132812 77.601562 "/>
<path style="fill:none;stroke-width:0.320585;stroke-linecap:round;stroke-linejoin:round;stroke:rgb(0%,0%,50.195312%);stroke-opacity:1;stroke-miterlimit:10;" d="M 336.933585 56.695471 L 336.933585 207.346683 " transform="matrix(0.997103,0,0,0.997103,0.350952,0)"/>
<path style="fill:none;stroke-width:0.320585;stroke-linecap:round;stroke-linejoin:round;stroke:rgb(0%,0%,50.195312%);stroke-opacity:1;stroke-miterlimit:10;" d="M 331.088529 201.192137 L 406.800019 201.654414 " transform="matrix(0.997103,0,0,0.997103,0.350952,0)"/>
<path style=" stroke:none;fill-rule:nonzero;fill:rgb(0%,0%,50.195312%);fill-opacity:1;" d="M 421.730469 209.878906 L 419.433594 209.878906 L 416.894531 215.695312 L 414.238281 209.878906 L 411.960938 209.878906 L 411.960938 210.097656 C 412.898438 210.140625 413.039062 210.257812 413.058594 211.117188 L 413.058594 215.792969 C 413.039062 217.011719 412.878906 217.210938 411.941406 217.269531 L 411.941406 217.488281 L 414.640625 217.488281 L 414.640625 217.269531 C 413.757812 217.230469 413.582031 216.992188 413.554688 215.792969 L 413.554688 211.15625 L 416.453125 217.488281 L 416.613281 217.488281 L 419.550781 210.898438 L 419.550781 216.109375 C 419.550781 217.09375 419.410156 217.210938 418.515625 217.269531 L 418.515625 217.488281 L 421.730469 217.488281 L 421.730469 217.269531 C 420.910156 217.230469 420.75 217.074219 420.730469 216.230469 L 420.730469 211.117188 C 420.75 210.300781 420.890625 210.160156 421.730469 210.097656 Z M 421.730469 209.878906 "/>
<path style=" stroke:none;fill-rule:nonzero;fill:rgb(0%,0%,50.195312%);fill-opacity:1;" d="M 424.003906 215.59375 L 424.003906 215.769531 C 423.460938 215.972656 423.203125 216.472656 423.203125 217.308594 C 423.203125 218.386719 423.582031 219.046875 424.246094 219.148438 L 424.183594 217.050781 L 424.183594 216.933594 C 424.183594 216.851562 424.183594 216.773438 424.183594 216.753906 C 424.183594 216.03125 424.5625 215.554688 425.140625 215.554688 C 425.917969 215.554688 426.582031 216.429688 426.582031 217.429688 C 426.582031 218.527344 425.761719 219.46875 424.761719 219.488281 L 424.761719 221.183594 L 424.246094 221.183594 L 424.246094 219.488281 C 423.164062 219.429688 422.363281 218.550781 422.363281 217.410156 C 422.363281 216.753906 422.625 216.230469 423.121094 215.894531 C 423.402344 215.695312 423.644531 215.613281 424.003906 215.59375 Z M 424.761719 219.167969 C 425.460938 219.109375 425.917969 218.527344 425.917969 217.6875 C 425.917969 216.914062 425.480469 216.152344 425.0625 216.152344 C 424.800781 216.152344 424.660156 216.429688 424.660156 216.953125 C 424.660156 216.992188 424.660156 217.074219 424.660156 217.148438 Z M 424.761719 219.167969 "/>
<path style=" stroke:none;fill-rule:nonzero;fill:rgb(0%,0%,0%);fill-opacity:1;" d="M 326.234375 6.753906 L 326.175781 6.390625 C 325.597656 6.433594 325.015625 6.433594 324.4375 6.433594 C 323.859375 6.433594 323.300781 6.433594 322.71875 6.390625 L 322.71875 6.8125 L 323.898438 6.914062 C 324.238281 6.953125 324.378906 7.074219 324.378906 7.414062 L 324.378906 8.828125 C 324.378906 9.167969 324.339844 9.328125 324.277344 9.429688 C 324.140625 9.710938 323.28125 9.910156 322.359375 9.910156 C 319.582031 9.910156 317.804688 8.050781 317.804688 5.113281 C 317.804688 2.398438 319.324219 0.816406 321.941406 0.816406 C 322.679688 0.816406 323.300781 0.917969 323.835938 1.078125 C 324.660156 1.339844 324.996094 1.679688 324.996094 2.195312 L 324.996094 2.957031 L 325.4375 2.957031 C 325.4375 2.234375 325.515625 1.578125 325.71875 0.816406 C 324.15625 0.363281 323.4375 0.242188 322.320312 0.242188 C 318.683594 0.242188 316.289062 2.296875 316.289062 5.414062 C 316.289062 6.832031 316.785156 8.089844 317.664062 8.949219 C 318.644531 9.910156 320.144531 10.488281 321.78125 10.488281 C 322.78125 10.488281 323.757812 10.308594 325.65625 9.769531 L 325.65625 7.414062 C 325.65625 6.972656 325.675781 6.953125 325.816406 6.894531 Z M 326.234375 6.753906 "/>
<path style=" stroke:none;fill-rule:nonzero;fill:rgb(0%,0%,0%);fill-opacity:1;" d="M 334.460938 10.25 L 334.460938 9.832031 L 333.804688 9.792969 C 333.324219 9.75 333.28125 9.671875 333.28125 8.773438 L 333.28125 0.121094 L 333.164062 0 C 332.546875 0.242188 332.082031 0.339844 330.964844 0.523438 L 330.964844 0.917969 L 331.742188 0.917969 C 332.003906 0.917969 332.105469 1.058594 332.105469 1.5 L 332.105469 4.054688 C 331.328125 3.714844 330.925781 3.613281 330.425781 3.613281 C 330.050781 3.613281 329.707031 3.695312 329.367188 3.875 L 328.128906 4.535156 C 327.332031 4.953125 326.808594 5.976562 326.808594 7.175781 C 326.808594 8.292969 327.191406 9.230469 327.867188 9.792969 C 328.351562 10.1875 329.007812 10.367188 329.929688 10.367188 C 330.207031 10.367188 330.527344 10.328125 330.605469 10.269531 L 332.164062 8.949219 L 332.082031 10.25 C 332.464844 10.226562 332.804688 10.207031 333.183594 10.207031 C 333.601562 10.207031 334.023438 10.226562 334.460938 10.25 Z M 332.105469 7.09375 C 332.105469 8.011719 332.082031 8.152344 331.882812 8.472656 C 331.507812 9.128906 330.804688 9.570312 330.148438 9.570312 C 328.910156 9.570312 328.027344 8.371094 328.027344 6.710938 C 328.027344 5.175781 328.789062 4.277344 330.050781 4.277344 C 330.585938 4.277344 331.148438 4.457031 331.648438 4.796875 C 331.945312 4.996094 332.105469 5.175781 332.105469 5.292969 Z M 332.105469 7.09375 "/>
<path style=" stroke:none;fill-rule:nonzero;fill:rgb(0%,0%,0%);fill-opacity:1;" d="M 342.832031 6.992188 C 342.832031 6.292969 342.53125 5.714844 342.015625 5.335938 C 341.472656 4.933594 340.996094 4.8125 339.914062 4.714844 C 340.597656 4.578125 340.917969 4.457031 341.3125 4.195312 C 341.996094 3.714844 342.351562 3.117188 342.351562 2.398438 C 342.351562 1.160156 341.535156 0.480469 339.835938 0.480469 C 338.976562 0.480469 338.160156 0.523438 337.316406 0.523438 C 336.558594 0.523438 335.839844 0.5 335.082031 0.480469 L 335.082031 0.898438 L 335.601562 0.9375 C 336.261719 1 336.320312 1.097656 336.320312 2.195312 L 336.320312 8.871094 C 336.320312 9.390625 336.199219 9.710938 336 9.792969 L 335.644531 9.929688 L 335.644531 10.25 C 336.140625 10.226562 336.660156 10.207031 337.15625 10.207031 C 337.738281 10.207031 338.339844 10.25 338.917969 10.25 C 339.957031 10.25 340.875 9.992188 341.496094 9.53125 C 342.335938 8.949219 342.832031 7.992188 342.832031 6.992188 Z M 341.375 7.289062 C 341.375 8.773438 340.394531 9.671875 338.738281 9.671875 C 338.316406 9.671875 338 9.632812 337.640625 9.550781 L 337.640625 5.113281 C 338.199219 5.09375 338.316406 5.09375 338.597656 5.09375 C 340.496094 5.09375 341.375 5.777344 341.375 7.289062 Z M 340.957031 2.71875 C 340.957031 3.933594 340.117188 4.59375 338.496094 4.59375 C 338.261719 4.59375 338.078125 4.59375 337.640625 4.578125 L 337.640625 1.160156 C 338.019531 1.058594 338.339844 1.039062 338.777344 1.039062 C 340.296875 1.039062 340.957031 1.539062 340.957031 2.71875 Z M 340.957031 2.71875 "/>
<path style=" stroke:none;fill-rule:nonzero;fill:rgb(0%,0%,0%);fill-opacity:1;" d="M 454.621094 50.925781 C 454.621094 49.648438 453.863281 48.570312 453.042969 47.589844 L 452.660156 47.90625 C 453.382812 48.710938 453.441406 49.847656 453.441406 50.925781 C 453.441406 52.324219 453.28125 53.863281 452.105469 53.863281 C 451.105469 53.863281 451.105469 51.621094 451.105469 49.867188 L 450.726562 49.707031 L 449.929688 49.867188 C 449.929688 50.707031 449.984375 51.621094 450.164062 52.382812 C 450.023438 53.203125 449.667969 53.863281 448.945312 53.863281 C 447.746094 53.863281 447.585938 52.324219 447.585938 50.925781 C 447.585938 49.847656 447.667969 48.710938 448.367188 47.90625 L 448.007812 47.589844 C 447.164062 48.570312 446.410156 49.648438 446.410156 50.925781 C 446.410156 52.664062 447.347656 54.34375 448.945312 54.34375 C 449.667969 54.34375 450.144531 53.84375 450.425781 53.144531 C 450.746094 53.863281 451.28125 54.34375 452.105469 54.34375 C 453.683594 54.34375 454.621094 52.664062 454.621094 50.925781 Z M 454.621094 50.925781 "/>
<path style=" stroke:none;fill-rule:nonzero;fill:rgb(0%,0%,0%);fill-opacity:1;" d="M 119.839844 37.015625 L 119.839844 36.597656 L 119.160156 36.558594 C 118.519531 36.515625 118.441406 36.398438 118.441406 35.300781 L 118.441406 28.96875 C 118.441406 27.863281 118.519531 27.746094 119.160156 27.703125 L 119.839844 27.664062 L 119.839844 27.246094 C 119.140625 27.269531 118.460938 27.289062 117.761719 27.289062 C 117.082031 27.289062 116.40625 27.269531 115.703125 27.246094 L 115.703125 27.664062 L 116.386719 27.703125 C 117.042969 27.746094 117.101562 27.863281 117.101562 28.96875 L 117.101562 35.300781 C 117.101562 36.398438 117.042969 36.515625 116.386719 36.558594 L 115.703125 36.597656 L 115.703125 37.015625 C 116.40625 36.996094 117.082031 36.972656 117.761719 36.972656 C 118.460938 36.972656 119.140625 36.996094 119.839844 37.015625 Z M 119.839844 37.015625 "/>
<path style=" stroke:none;fill-rule:nonzero;fill:rgb(0%,0%,0%);fill-opacity:1;" d="M 132.535156 37.015625 L 132.535156 36.597656 L 131.875 36.558594 C 131.394531 36.515625 131.355469 36.4375 131.355469 35.539062 L 131.355469 32.640625 C 131.355469 31.242188 130.539062 30.382812 129.238281 30.382812 C 128.738281 30.382812 128.34375 30.503906 128.082031 30.722656 L 127.023438 31.679688 C 126.5625 30.761719 125.980469 30.382812 125.023438 30.382812 C 124.507812 30.382812 124.105469 30.503906 123.84375 30.722656 L 122.886719 31.625 L 122.886719 30.441406 L 122.746094 30.382812 C 122.046875 30.683594 121.308594 30.863281 120.566406 30.960938 L 120.566406 31.34375 L 121.089844 31.34375 C 121.648438 31.34375 121.707031 31.445312 121.707031 32.382812 L 121.707031 35.539062 C 121.707031 36.4375 121.667969 36.515625 121.1875 36.558594 L 120.527344 36.597656 L 120.527344 37.015625 C 121.128906 36.996094 121.726562 36.972656 122.328125 36.972656 C 122.886719 36.972656 123.425781 36.996094 123.984375 37.015625 L 123.984375 36.597656 L 123.402344 36.558594 C 122.925781 36.515625 122.886719 36.4375 122.886719 35.539062 L 122.886719 32.5625 C 122.886719 31.921875 123.804688 31.242188 124.664062 31.242188 C 125.421875 31.242188 125.941406 31.960938 125.941406 33.019531 L 125.941406 35.539062 C 125.941406 36.4375 125.882812 36.515625 125.421875 36.558594 L 124.761719 36.597656 L 124.761719 37.015625 C 125.363281 36.996094 125.941406 36.972656 126.523438 36.972656 C 127.125 36.972656 127.699219 36.996094 128.28125 37.015625 L 128.28125 36.597656 L 127.640625 36.558594 C 127.164062 36.515625 127.125 36.4375 127.125 35.539062 L 127.125 32.5625 C 127.125 31.921875 128.039062 31.242188 128.878906 31.242188 C 129.640625 31.242188 130.175781 31.960938 130.175781 33.019531 L 130.175781 37.015625 C 130.539062 36.996094 130.917969 36.972656 131.28125 36.972656 C 131.695312 36.972656 132.117188 36.996094 132.535156 37.015625 Z M 132.535156 37.015625 "/>
<path style=" stroke:none;fill-rule:nonzero;fill:rgb(0%,0%,0%);fill-opacity:1;" d="M 232.460938 94.542969 L 232.460938 94.121094 C 232.003906 94.082031 231.78125 94 231.601562 93.757812 L 228.402344 89.585938 C 229.203125 89.386719 229.5625 89.246094 230.023438 88.925781 C 230.761719 88.386719 231.160156 87.6875 231.160156 86.867188 C 231.160156 85.527344 230.242188 84.769531 228.402344 84.769531 C 227.566406 84.769531 226.722656 84.808594 225.886719 84.808594 C 225.070312 84.808594 224.269531 84.792969 223.449219 84.769531 L 223.449219 85.191406 L 224.027344 85.230469 C 224.6875 85.273438 224.75 85.40625 224.75 86.492188 L 224.75 92.824219 C 224.75 93.917969 224.6875 94.039062 224.027344 94.082031 L 223.347656 94.121094 L 223.347656 94.542969 C 224.050781 94.519531 224.726562 94.503906 225.40625 94.503906 C 226.109375 94.503906 226.789062 94.519531 227.484375 94.542969 L 227.484375 94.121094 L 226.804688 94.082031 C 226.167969 94.039062 226.085938 93.917969 226.085938 92.824219 L 226.085938 85.472656 C 226.566406 85.351562 226.984375 85.3125 227.464844 85.3125 C 228.925781 85.3125 229.742188 85.96875 229.742188 87.167969 C 229.742188 88.464844 228.722656 89.285156 227.085938 89.285156 L 226.683594 89.285156 L 226.683594 89.507812 C 226.984375 89.84375 227.105469 90.003906 227.324219 90.304688 L 229.921875 93.78125 L 230.484375 94.542969 C 230.824219 94.519531 231.121094 94.503906 231.441406 94.503906 C 231.78125 94.503906 232.121094 94.519531 232.460938 94.542969 Z M 232.460938 94.542969 "/>
<path style=" stroke:none;fill-rule:nonzero;fill:rgb(0%,0%,0%);fill-opacity:1;" d="M 238.398438 90.585938 C 238.398438 88.964844 237.363281 87.910156 235.78125 87.910156 C 235.261719 87.910156 234.664062 88.089844 234.082031 88.425781 C 232.945312 89.085938 232.464844 89.964844 232.464844 91.421875 C 232.464844 92.300781 232.664062 93.0625 233.066406 93.597656 C 233.601562 94.34375 234.566406 94.78125 235.621094 94.78125 C 236.144531 94.78125 236.660156 94.664062 237.242188 94.421875 C 237.617188 94.261719 237.917969 94.082031 237.980469 94 L 238.257812 93.519531 L 238.058594 93.378906 C 237.160156 93.902344 236.839844 94.039062 236.238281 94.039062 C 235.324219 94.039062 234.566406 93.621094 234.164062 92.941406 C 233.902344 92.480469 233.804688 92.085938 233.78125 91.261719 L 235.84375 91.261719 C 236.800781 91.261719 237.398438 91.222656 238.378906 91.0625 C 238.398438 90.863281 238.398438 90.746094 238.398438 90.585938 Z M 237.160156 90.746094 L 235.582031 90.785156 C 234.941406 90.785156 234.566406 90.761719 233.804688 90.707031 C 233.804688 90.042969 233.863281 89.722656 234.042969 89.367188 C 234.34375 88.746094 234.941406 88.367188 235.621094 88.367188 C 236.082031 88.367188 236.460938 88.546875 236.699219 88.925781 C 237.023438 89.386719 237.160156 89.804688 237.160156 90.746094 Z M 237.160156 90.746094 "/>
<path style=" stroke:none;fill-rule:nonzero;fill:rgb(0%,0%,0%);fill-opacity:1;" d="M 323.808594 127.230469 C 323.808594 125.515625 323.050781 123.796875 321.53125 123.796875 C 320.09375 123.796875 319.296875 125.3125 319.296875 126.871094 C 319.296875 127.96875 319.433594 129.070312 319.53125 130.167969 C 318.214844 129.945312 317.296875 128.667969 317.296875 127.230469 C 317.296875 126.089844 317.496094 124.894531 318.414062 124.234375 L 318.117188 123.835938 C 316.972656 124.671875 315.976562 125.816406 315.976562 127.230469 C 315.976562 129.109375 317.617188 130.507812 319.550781 130.648438 C 319.570312 130.949219 319.570312 131.265625 319.570312 131.546875 C 319.570312 132.105469 319.335938 132.625 318.933594 132.984375 L 319.09375 133.363281 L 319.710938 133.882812 C 320.394531 133.285156 320.773438 132.441406 320.773438 131.546875 C 320.773438 131.226562 320.753906 130.90625 320.730469 130.585938 C 322.429688 130.265625 323.808594 128.949219 323.808594 127.230469 Z M 322.46875 127.230469 C 322.46875 128.507812 321.773438 129.644531 320.691406 130.046875 C 320.613281 128.988281 320.472656 127.949219 320.472656 126.871094 C 320.472656 125.65625 320.472656 124.277344 321.53125 124.277344 C 322.46875 124.277344 322.46875 125.890625 322.46875 127.230469 Z M 322.46875 127.230469 "/>
<path style=" stroke:none;fill-rule:nonzero;fill:rgb(0%,0%,0%);fill-opacity:1;" d="M 454.621094 152.3125 C 454.621094 151.03125 453.863281 149.953125 453.042969 148.972656 L 452.660156 149.292969 C 453.382812 150.089844 453.441406 151.234375 453.441406 152.3125 C 453.441406 153.707031 453.28125 155.242188 452.105469 155.242188 C 451.105469 155.242188 451.105469 153.007812 451.105469 151.25 L 450.726562 151.089844 L 449.929688 151.25 C 449.929688 152.089844 449.984375 153.007812 450.164062 153.769531 C 450.023438 154.585938 449.667969 155.242188 448.945312 155.242188 C 447.746094 155.242188 447.585938 153.707031 447.585938 152.3125 C 447.585938 151.234375 447.667969 150.089844 448.367188 149.292969 L 448.007812 148.972656 C 447.164062 149.953125 446.410156 151.03125 446.410156 152.3125 C 446.410156 154.046875 447.347656 155.722656 448.945312 155.722656 C 449.667969 155.722656 450.144531 155.226562 450.425781 154.527344 C 450.746094 155.242188 451.28125 155.722656 452.105469 155.722656 C 453.683594 155.722656 454.621094 154.046875 454.621094 152.3125 Z M 454.621094 152.3125 "/>
<path style="fill:none;stroke-width:0.961772;stroke-linecap:butt;stroke-linejoin:miter;stroke:rgb(0%,0%,50.195312%);stroke-opacity:1;stroke-miterlimit:4;" d="M 23.396504 106.554734 C 25.535513 144.578936 46.271356 165.126735 73.404636 179.653186 " transform="matrix(0.997103,0,0,0.997103,0.350952,0)"/>
<path style="fill-rule:evenodd;fill:rgb(0%,0%,50.195312%);fill-opacity:1;stroke-width:0.512132;stroke-linecap:butt;stroke-linejoin:miter;stroke:rgb(0%,0%,50.195312%);stroke-opacity:1;stroke-miterlimit:4;" d="M 111.374967 -17.327977 L 113.297129 -19.248907 L 106.572241 -17.33239 L 113.300023 -15.409499 Z M 111.374967 -17.327977 " transform="matrix(0.0562235,0.997103,-0.997103,0.0562235,0.350952,0)"/>
<path style="fill-rule:evenodd;fill:rgb(0%,0%,50.195312%);fill-opacity:1;stroke-width:0.452211;stroke-linecap:butt;stroke-linejoin:miter;stroke:rgb(0%,0%,50.195312%);stroke-opacity:1;stroke-miterlimit:4;" d="M -128.415819 -109.078573 L -126.721942 -110.780735 L -132.654394 -109.085394 L -126.723007 -107.387525 Z M -128.415819 -109.078573 " transform="matrix(-0.997103,-0.533842,0.533842,-0.997103,0.350952,0)"/>
<path style="fill:none;stroke-width:0.961772;stroke-linecap:butt;stroke-linejoin:miter;stroke:rgb(0%,0%,50.195312%);stroke-opacity:1;stroke-miterlimit:4;" d="M 42.553556 62.187943 L 67.351948 62.187943 " transform="matrix(0.997103,0,0,0.997103,0.350952,0)"/>
<path style="fill-rule:evenodd;fill:rgb(0%,0%,50.195312%);fill-opacity:1;stroke-width:0.512945;stroke-linecap:butt;stroke-linejoin:miter;stroke:rgb(0%,0%,50.195312%);stroke-opacity:1;stroke-miterlimit:4;" d="M 46.400637 62.187943 L 48.324177 60.264402 L 41.593745 62.187943 L 48.324177 64.111483 Z M 46.400637 62.187943 " transform="matrix(0.997103,0,0,0.997103,0.350952,0)"/>
<path style="fill-rule:evenodd;fill:rgb(0%,0%,50.195312%);fill-opacity:1;stroke-width:0.512945;stroke-linecap:butt;stroke-linejoin:miter;stroke:rgb(0%,0%,50.195312%);stroke-opacity:1;stroke-miterlimit:4;" d="M -63.508785 -62.187943 L -61.581327 -64.111483 L -68.315677 -62.187943 L -61.581327 -60.264402 Z M -63.508785 -62.187943 " transform="matrix(-0.997103,0,0,-0.997103,0.350952,0)"/>
<path style="fill:none;stroke-width:0.961772;stroke-linecap:butt;stroke-linejoin:miter;stroke:rgb(0%,0%,50.195312%);stroke-opacity:1;stroke-miterlimit:4;" d="M 404.719774 65.016448 L 404.719774 85.685692 " transform="matrix(0.997103,0,0,0.997103,0.350952,0)"/>
<path style="fill-rule:evenodd;fill:rgb(0%,0%,50.195312%);fill-opacity:1;stroke-width:0.512945;stroke-linecap:butt;stroke-linejoin:miter;stroke:rgb(0%,0%,50.195312%);stroke-opacity:1;stroke-miterlimit:4;" d="M 68.863529 -404.719774 L 70.783152 -406.643315 L 64.056637 -404.719774 L 70.783152 -402.796234 Z M 68.863529 -404.719774 " transform="matrix(0,0.997103,-0.997103,0,0.350952,0)"/>
<path style="fill-rule:evenodd;fill:rgb(0%,0%,50.195312%);fill-opacity:1;stroke-width:0.512945;stroke-linecap:butt;stroke-linejoin:miter;stroke:rgb(0%,0%,50.195312%);stroke-opacity:1;stroke-miterlimit:4;" d="M -81.834694 404.719774 L -79.915071 402.796234 L -86.645504 404.719774 L -79.915071 406.643315 Z M -81.834694 404.719774 " transform="matrix(0,-0.997103,0.997103,0,0.350952,0)"/>
<path style="fill:none;stroke-width:0.961772;stroke-linecap:butt;stroke-linejoin:miter;stroke:rgb(0%,0%,50.195312%);stroke-opacity:1;stroke-miterlimit:4;" d="M 404.719774 203.550531 L 404.719774 224.223693 " transform="matrix(0.997103,0,0,0.997103,0.350952,0)"/>
<path style="fill-rule:evenodd;fill:rgb(0%,0%,50.195312%);fill-opacity:1;stroke-width:0.512945;stroke-linecap:butt;stroke-linejoin:miter;stroke:rgb(0%,0%,50.195312%);stroke-opacity:1;stroke-miterlimit:4;" d="M 207.397612 -404.719774 L 209.321152 -406.643315 L 202.590719 -404.719774 L 209.321152 -402.796234 Z M 207.397612 -404.719774 " transform="matrix(0,0.997103,-0.997103,0,0.350952,0)"/>
<path style="fill-rule:evenodd;fill:rgb(0%,0%,50.195312%);fill-opacity:1;stroke-width:0.512945;stroke-linecap:butt;stroke-linejoin:miter;stroke:rgb(0%,0%,50.195312%);stroke-opacity:1;stroke-miterlimit:4;" d="M -220.376612 404.719774 L -218.453072 402.796234 L -225.183504 404.719774 L -218.453072 406.643315 Z M -220.376612 404.719774 " transform="matrix(0,-0.997103,0.997103,0,0.350952,0)"/>
</g>
</svg>
